<?xml version="1.0" encoding="utf-8"?>
<!-- Generator: Adobe Illustrator 15.1.0, SVG Export Plug-In . SVG Version: 6.00 Build 0)  -->
<!DOCTYPE svg PUBLIC "-//W3C//DTD SVG 1.1//EN" "http://www.w3.org/Graphics/SVG/1.1/DTD/svg11.dtd">
<svg version="1.1" id="Calque_1" xmlns="http://www.w3.org/2000/svg" xmlns:xlink="http://www.w3.org/1999/xlink" x="0px" y="0px"
	 width="1900px" height="1600px" viewBox="0 0 1900 1600" enable-background="new 0 0 1900 1600" xml:space="preserve">
<g>
	<path fill="#71B0BA" d="M1552.21,283.699c-4.079-0.824-8-0.142-11.713-1.366c-2.91-0.976-6.047-1.4-7.646-4.661
		c-0.398-0.851-1.964-1.211-3.021-1.672c-7.41-3.375-14.684-6.937-21.635-11.223c-3.157-1.971-5.949-4.342-8.647-6.889
		c-1.271-1.175-2.308-2.37-0.853-4.16c0.89-1.09,0.149-1.938-0.647-2.671c-1.001-0.914-1.987-1.786-3.019-2.644
		c-2.252-1.854-4.131-3.768-3.567-7.091c0.276-1.684-1.18-2.656-2.237-3.604c-4.358-3.895-7.546-8.721-11.074-13.249
		c-1.328-1.691-3.01-3.424-1.179-5.91c0.558-0.746-0.062-1.681-0.539-2.458c-0.892-1.53-1.824-3.046-2.677-4.59
		c-0.749-1.378-1.009-2.902,0.295-4.063c1.74-1.49,1.281-3.197,0.584-4.882c-1.271-2.969-2.514-5.996-4.053-8.886
		c-2.094-3.938-3.711-8.066-5.149-12.249c-0.633-1.8-0.27-3.026,1.65-3.258c2.112-0.241,2.578-1.446,2.858-3.274
		c0.578-4.249,1.831-8.358,1.396-12.743c-0.235-2.258,0.967-3.927,3.174-4.825c2.506-1.037,5.082-1.513,7.812-1.307
		c1.938,0.148,3.562-0.09,3.239-2.811c-0.245-1.964,1.138-2.86,2.984-3.17c3.341-0.509,6.124-1.433,7.225-5.4
		c0.764-2.654,3.678-3.133,6.302-3.284c2.669-0.164,5.306-0.27,7.975-0.433c1.095-0.082,1.836-0.353,2.406-1.541
		c1.849-3.896,2.958-4.568,7.13-3.918c1.891,0.313,3.126,0.234,3.536-1.975c0.338-1.798,1.747-2.122,3.405-2.082
		c2.884,0.064,5.55,0.871,8.131,2.043c1.335,0.574,2.503,0.904,3.547-0.475c2.26-3.002,5.438-2.93,8.465-1.89
		c5.064,1.693,10.303,2.66,15.207,4.79c1.684,0.762,3.373,1.229,4.908-0.297c0.119-0.084,0.255-0.124,0.377-0.21
		c2.91-2.273,5.644,1.523,8.479,0.29c3.271-1.409,5.734-0.299,7.779,2.343c1.398,1.768,3.115,1.986,5.146,0.991
		c3.17-1.574,5.938-0.747,8.588,1.471c2.063,1.716,3.933,3.586,5.66,5.644c1.136,1.36,2.297,2.664,3.776,3.727
		c1.481,1.064,2.688,2.354,4.534,0.397c1.036-1.084,2.277-0.337,2.992,0.759c1.052,1.58,1.996,3.288,2.885,4.964
		c1.743,3.412,3.455,6.881,5.166,10.352c0.857,1.732,1.771,3.013,4.039,2.483c2.949-0.685,4.877,0.732,5.909,3.386
		c1.032,2.651,2.472,4.555,5.655,4.818c1.6,0.153,2.345,1.68,2.823,3.137c0.685,2.127,1.484,4.17,2.121,6.309
		c0.783,2.63,1.905,4.77,4.691,5.979c2.159,0.908,3.017,3.13,3.575,5.342c2.088,8.308,4.007,16.713,5.274,25.215
		c0.785,5.248,1.585,10.541,2.238,15.832c0.419,3.369,0.84,6.736,0.937,10.153c0.188,5.039,2.404,8.894,6.151,12.19
		c9.388,8.222,17.228,17.775,24.824,27.645c7.583,9.825,14.85,19.891,22.16,29.942c4.854,6.705,9.823,13.28,14.094,20.454
		c2.401,3.991,5.324,7.779,8.203,11.58c7.448,9.865,16.573,18.02,25.646,26.334c9.604,8.785,19.683,17.045,29.465,25.631
		c6.84,6.021,15.011,10.479,22.979,15.093c5.865,3.396,11.897,6.552,18.892,8.354c-0.296-1.807-1.511-2.946-2.201-4.295
		c-1.965-3.83-4.427-7.368-5.914-11.391c-0.758-2.056-2.235-3.119-4.375-3.938c-9.077-3.604-18.047-7.483-27-11.322
		c-1.61-0.686-3.125-1.69-4.653-2.595c-0.649-0.39-1.663-0.862-1.662-1.35c-0.229-3.862-3.546-4.088-6.022-5.241
		c-8.42-3.997-15.349-9.988-21.969-16.414c-0.824-0.819-2.166-1.73-1.404-2.93c1.256-1.976,0.078-2.839-1.104-4.039
		c-6.09-6.437-9.981-14.303-14.104-21.955c-1.398-2.589-2.519-5.363-3.875-7.968c-0.931-1.812-1.502-3.581-0.366-5.471
		c0.716-1.186,0.189-2.29-0.05-3.434c-0.535-2.605-1.155-5.187-1.646-7.809c-0.439-2.295-1.059-4.537,1.143-6.6
		c1.062-0.995,0.416-2.843,0.375-4.285c-0.019-1.354-0.414-3.03,0.668-3.789c2.353-1.719,1.693-3.757,1.416-6.003
		c-1.375-10.169-0.484-20.38,0.021-30.575c0.028-0.882,0.083-2.161,1.041-2.203c2.829-0.116,2.536-2.403,3.106-4.078
		c0.852-2.681,1.526-5.454,2.495-8.071c0.759-2.022,1.38-4.342,4.226-4.558c1.33-0.104,1.5-1.318,1.637-2.331
		c0.699-4.333,3.779-7.676,4.857-11.879c0.403-1.576,1.741-1.974,3.119-0.929c0.816,0.63,1.518,1.343,2.459,2.227
		c1.823-1.366,1.916-3.674,3.024-5.314c1.282-1.889,2.521-3.273,5.033-1.837c1.748,0.982,3.196,0.309,3.919-1.506
		c0.928-2.267,2.683-2.886,4.912-3.063c2.521-0.168,5.003-0.47,7.35-1.558c0.763-0.373,1.766-0.429,2.584-0.283
		c2.104,0.392,4.156,1.577,5.788-1.092c0.562-0.896,1.881-0.366,2.882,0.063c2.322,0.959,4.708,1.8,6.938,2.933
		c2.607,1.262,5.049,2.282,7.963,0.833c1.525-0.744,2.812,0.326,4.055,1.22c3.265,2.328,6.162,5.056,9.609,7.186
		c2.021,1.242,3.933,2.614,6.172,3.452c2.078,0.789,3.72,2.385,5.302,3.954c1.524,1.535,2.784,3.489,5.373,3.543
		c0.688,0.037,1.485,0.916,2.067,1.566c1.179,1.348,2.468,2.42,4.086,3.297c2.721,1.471,3.682,4.533,5.322,6.957
		c1.562,2.302,2.642,4.794,5.012,6.562c2.041,1.479,2.357,4.345,3.302,6.686c0.763,1.908,0.778,4.086,2.317,5.667
		c4.897-1.799,5.692-1.405,6.304,3.896c0.774,7.339,2.364,14.63,2.346,22.06c-0.01,0.294-0.096,0.658,0.062,0.854
		c2.287,2.959,3.021,6.234,2.211,9.872c-0.035,0.206,0.187,0.623,0.373,0.764c3.964,3.042,2.153,7.074,1.565,10.646
		c-0.744,4.831-2.278,9.46-4.062,14.065c-0.354,0.932-1.123,1.938-0.348,2.916c1.979,2.565,0.777,5.06-0.127,7.561
		c-1.873,5.117-3.73,10.28-5.547,15.433c-0.4,1.091-0.949,2.516-0.582,3.425c1.448,3.89-0.879,6.665-2.688,9.391
		c-5.166,7.749-10.377,15.511-16.404,22.645c-3.107,3.739-6.219,7.479-10.066,10.521c-1.768,1.396-2.244,2.896-1.461,5.045
		c0.771,2.099,1.483,4.168,2.764,6.02c10.047,14.673,23.564,24.72,40.313,30.457c5.035,1.753,10.116,3.345,15.188,4.895
		c4.852,1.466,9.936,1.265,14.946,1.81c2.2,0.218,4.709,0.007,6.086,2.021c1.994,2.464,3.114,5.572,3.316,8.862
		c0.104,1.812-1.388,2.839-3.822,2.646c-3.83-0.314-7.625-0.837-11.463-1.344c-10.812-1.438-20.806-5.504-30.967-9.317
		c-7.81-2.917-15.001-7.035-22.589-10.356c-2.959-1.303-6.026-2.477-9.034-3.617c-6.603-2.449-12.05-6.896-18.241-10.099
		c-13.141-6.812-26.325-13.608-39.262-20.726c-7.835-4.317-15.934-7.876-24.455-10.436c-10.93-3.298-22.018-5.818-33.569-5.681
		c-3.047,0.034-5.862,0.679-8.625,1.84c-4.297,1.861-5.094,3.265-4.627,7.928c0.287,2.925,0.824,5.87,1.351,8.771
		c1.556,8.319,0.598,16.516-0.051,24.763c-0.317,4.317-1.309,8.493-2.561,12.604c-3.583,11.596-7.719,22.97-13.541,33.729
		c-9.312,17.135-22.903,29.672-39.811,38.732c-13.312,7.114-27.58,10.537-42.774,9.044c-1.041-0.079-2.07-0.113-3.117-0.043
		c-8.149,0.481-15.901-0.942-23.069-4.976c-2.517-1.435-3.013-2.448-1.552-4.877c0.451-0.765,1.104-1.347,1.599-1.979
		c-0.228-1.243-1.088-1.036-1.744-1.131c-4.644-0.755-5.424-1.589-5.582-6.199c-0.024-0.575,0.127-1.201,0.16-1.746
		c0.207-3.701,0.227-3.803-3.271-4.947c-1.878-0.604-3.025-1.523-3.188-3.708c-0.195-2.608-1.246-5.16-1.729-7.589
		c-0.724-3.567-2.438-7.378-0.349-11.442c1.728-3.329,1.771-7.079-1.725-10.02c-2.189-1.823-2.287-4.268-1.219-6.867
		c1.693-4.096,3.154-8.312,4.787-12.438c0.436-1.148,0.838-2.239,0.582-3.424c-0.354-1.354-0.195-2.611,0.562-3.811
		c0.498-0.775,0.924-1.632,0.555-2.544c-1.403-3.414,0.686-5.686,2.652-7.873c1.463-1.602,2.028-3.127,2.062-5.467
		c0.067-3.516,2.188-6.668,4.253-9.516c1.756-2.415,3.177-4.977,4.989-7.355c1.123-1.45,1.838-3.119,1.233-4.979
		c-0.613-1.904,0.188-3.113,1.621-4.173c1.312-0.973,2.455-2.188,3.809-3.023c2.298-1.411,3.839-3.568,5.677-5.377
		c4.393-4.315,9.218-8.323,15.045-10.592c2.476-0.979,5.258-0.597,7.922-0.61c3.736,0.004,7.386-0.306,10.574-2.614
		c2.198-1.577,4.771-1.42,7.282-1.295c3.88,0.153,7.705,0.132,11.229-1.888c0.497-0.293,1.14-0.581,1.695-0.504
		c4.223,0.489,8.313,0.387,12.569-0.152c2.658-0.354,5.531,0.489,8.326-0.392c0.534-0.158,1.199-0.212,1.736-0.031
		c7.234,1.971,14.766,2.979,21.521,6.598c3.528,1.91,7.147,2.337,11.112,2.126c8.709-0.409,17.397-1.539,26.185-1.048
		c4.889,0.29,9.703,1.139,14.472,1.999c1.435,0.252,2.78,0.871,4.854,0.013c-4.25-3.686-7.474-7.82-11.115-11.59
		c-9.058-9.389-18.202-18.601-25.756-29.309c-4.099-5.771-8.642-11.258-12.778-17.014c-4.354-5.981-8.421-12.147-12.696-18.202
		c-7.613-10.738-14.971-21.602-23.982-31.339c-4.521-4.915-8.666-10.038-14.178-13.881c-3.785-2.609-5.545-2.812-9.236-0.063
		c-5.971,4.396-11.938,8.796-17.018,14.235c-4.785,5.112-10.744,8.244-16.877,11.282c-1.312,0.636-2.689,0.899-3.514-0.556
		c-1.237-2.202-2.771-1.648-4.502-0.939c-3.402,1.45-6.967,2.513-10.605,3.158c-1.851,0.309-3.248,0.336-3.211-2.149
		c0.021-2.045-1.682-1.73-2.965-1.642c-2.521,0.168-4.919,1.075-7.479,0.964c-1.57-0.063-3.104,0.003-3.032-2.202
		c0.028-1.365-0.94-1.368-1.813-1.205c-6.348,1.501-12.689-0.249-19,0.074c-0.572,0.025-1.191,0.064-1.779,0.047
		C1551.677,289.243,1551.186,288.565,1552.21,283.699z M1582.554,289.951c2.564,0.789,4.952-0.311,7.41-0.702
		c1.761-0.279,3.837-0.803,4.696,1.271c1.051,2.55,2.845,2.062,4.768,1.832c1.979-0.201,3.614-1.223,5.402-1.9
		c2.441-0.921,4.914-2.238,7.578-0.46c1.14,0.729,2.254-0.087,3.304-0.642c3.146-1.664,6.149-3.628,8.887-5.849
		c6.692-5.39,13.314-10.854,19.938-16.318c1.602-1.302,3.217-2.56,5.145-3.423c2.271-1.017,4.354-0.861,6.219,0.672
		c3.439,2.76,7.035,5.377,10.244,8.499c3.127,3.002,5.086,6.979,8.26,9.817c5.689,5.101,9.855,11.431,14.356,17.417
		c7.164,9.561,13.664,19.659,20.708,29.308c2.069,2.878,4.139,5.756,6.195,8.588c2.238,3.116,4.916,5.912,7.031,9.115
		c4.155,6.139,8.66,11.979,13.756,17.353c4.382,4.618,8.766,9.229,13.178,13.79c5.797,5.938,11.427,11.979,18.844,16.032
		c1.271,0.688,2.371,1.769,3.455,2.805c0.757,0.746,1.316,1.646,0.219,2.848c-1.928-0.592-3.779-1.445-5.638-2.302
		c-4.714-2.14-9.323-4.262-14.511-5.387c-12.698-2.722-25.264-2.379-37.869,0.259c-0.873,0.163-1.872,0.558-2.583,0.284
		c-3.041-1.086-4.162,0.85-5.584,2.921c-6.541,9.812-7.245,21.47-10.466,32.327c-0.187,0.688,0.099,1.476-0.027,2.189
		c-0.97,5.385,0.305,11.12-2.555,16.192c-0.188,0.346-0.312,0.917-0.146,1.305c1.026,2.801-0.853,4.476-2.353,6.28
		c-1.729,2.02-3.645,3.896-5.312,5.946c-1.428,1.732-2.727,3.726-2.579,6.009c0.352,4.602-1.765,7.608-5.525,9.797
		c-1.784,1.018-3.143,2.486-3.107,4.562c0.03,2.708-1.318,4.371-3.152,6.033c-1.303,1.166-3.299,2.291-3.146,4.094
		c0.229,3.375-1.782,4.604-4.098,6.119c-2.35,1.572-4.577,3.206-7.188,4.373c-1.328,0.59-2.621,1.461-2.142,3.402
		c0.546,2.166-1.036,2.88-2.698,3.326c-6.812,1.885-11.713,7.271-18.085,9.991c-0.521,0.205-0.948,0.722-1.288,1.208
		c-1.883,2.647-4.678,3.527-7.662,3.933c-3.073,0.432-6.188,0.728-9.243,1.054c-1.937,0.188-3.502,0.461-2.986,3.171
		c0.324,1.748-0.909,2.647-2.749,2.663c-0.679,0.007-1.511-0.183-2.021,0.553c8.505,1.352,19.929,1.249,27.3-0.069
		c5.844-1.063,11.396-2.956,16.889-5.369c15.525-6.854,28.266-17.194,38.229-30.835c7.868-10.738,12.694-23.044,16.869-35.592
		c1.694-5.065,3.24-10.14,4.047-15.424c1.868-11.812,1.812-23.588-0.842-35.271c-0.566-2.549-0.324-4.998-0.039-7.461
		c0.201-1.61,0.896-2.692,2.438-3.396c3.809-1.716,7.584-3.373,11.785-3.604c10.955-0.688,21.598,1.965,31.926,4.714
		c9.381,2.497,18.484,6.19,27.037,11.118c9.358,5.363,19.108,10.082,28.672,15.146c5.874,3.104,11.99,5.894,17.541,9.526
		c5.374,3.545,11.037,6.273,16.966,8.585c2.472,0.966,4.954,1.973,7.375,3.097c5.884,2.812,11.659,5.747,17.761,8.151
		c12.288,4.933,24.562,9.479,37.883,10.706c1.6,0.152,3.135,0.91,4.816,0.7c0.934-0.134,1.688-0.357,1.829-1.517
		c0.265-2.699-1.838-5.52-4.646-5.993c-1.435-0.252-2.929-0.536-4.396-0.583c-10.346-0.511-20.087-3.58-29.766-6.908
		c-9.821-3.338-18.139-9.258-26.123-15.709c-7.399-5.948-13.354-12.91-16.979-21.827c-1.634-4.026-1.399-6.184,2.162-8.555
		c3.771-2.481,6.764-5.8,9.522-9.239c6.024-7.473,11.562-15.281,16.84-23.308c0.975-1.454,2.197-3.371,1.906-4.838
		c-0.705-3.671,0.895-6.622,1.924-9.84c1.479-4.661,3.11-9.272,4.863-13.821c0.354-0.933,1.146-2.188,0.12-2.852
		c-2.735-1.854-1.312-3.927-0.474-5.827c2.192-5.021,3.834-10.265,4.949-15.643c0.475-2.323,1.229-4.686-1.455-6.36
		c-0.968-0.635-0.914-1.766-0.896-2.839c0.082-2.5,1.169-5.201-1.759-7.049c-0.479-0.295-0.401-1.676-0.374-2.556
		c0.313-4.317-0.411-8.564-0.816-12.857c-0.396-4.104-0.748-8.221-2.256-12.14c-4.591,1.853-4.881,1.693-6.416-3.139
		c-0.43-1.278-0.712-2.552-1.188-3.819c-0.634-1.801-0.713-4.35-2.272-5.194c-2.995-1.584-3.44-4.555-5.062-6.889
		c-1.146-1.744-2.07-3.702-3.513-5.116c-2.184-2.117-4.483-4.634-7.178-5.53c-2.313-0.767-3.836-1.963-5.36-3.5
		c-1.238-1.231-2.257-3.016-3.992-3.47c-3.006-0.805-5.115-2.845-7.365-4.698c-3.081-2.527-6.314-4.914-9.43-7.383
		c-1.765-1.367-3.449-2.466-5.39-0.339c-0.73,0.802-1.596,0.672-2.418,0.187c-2.745-1.561-5.862-2.088-8.726-3.226
		c-1.873-0.752-3.71-2.195-5.368,0.385c-0.231,0.36-1.302,0.678-1.562,0.464c-3.363-2.492-6.545-1.448-9.853,0.166
		c-0.464,0.235-1.171-0.185-1.729-0.115c-2.553,0.227-5.021,0.573-6.219,3.403c-0.922,2.118-2.74,2.854-4.783,1.86
		c-2.725-1.325-3.812,0.067-4.678,2.218c-0.338,0.828-0.674,1.656-1.01,2.483c-1.709,4.197-2.494,4.333-5.508,1.06
		c-0.146-0.151-0.514-0.091-1.025-0.182c-1.559,4.055-4.556,7.52-4.865,12.174c-0.069,1.233-0.799,2.372-2.172,2.49
		c-2.834,0.261-3.576,2.326-4.18,4.543c-0.971,3.588-1.953,7.132-2.001,10.882c0.002,1.31,0.013,3.297-1.673,3.021
		c-2.209-0.412-2.172,0.694-2.244,2.075c-0.582,9.295-0.959,18.626,0.771,27.864c0.284,1.613,0.784,3.454-0.619,4.602
		c-2.104,1.74-1.763,3.87-1.582,6.099c0.135,1.759,0.66,3.687-1.104,4.939c-1.605,1.108-1.447,2.469-0.966,3.927
		c1.021,3.095,1.411,6.374,3.175,9.196c0.656,1.065,1.016,2.271,0.057,3.281c-1.436,1.543-0.811,3.151-0.018,4.52
		c5.723,10.088,9.754,21.357,19.645,28.652c1.308,0.971,2.263,2.384,1.113,3.744c-1.592,1.831-0.705,2.684,0.682,3.922
		c7.433,6.377,14.892,12.695,24.603,15.48c1.433,0.399,3.25,0.973,3.302,2.608c0.147,3.109,2.553,3.85,4.539,4.812
		c4.647,2.255,9.344,4.497,14.233,6.1c4.586,1.548,8.793,4.271,13.851,4.467c1.364,0.029,1.856,1.192,2.383,2.299
		c2.387,4.919,4.895,9.752,7.908,14.338c2.217,3.369,4.844,6.324,7.36,9.406c0.767,0.938,1.556,1.963,0.705,3.187
		c-0.924,1.298-2.144,0.784-3.168,0.118c-6.627-4.336-14.172-6.697-21.087-10.366c-10.373-5.5-20.417-11.534-29.399-19.054
		c-11.478-9.541-22.463-19.711-33.692-29.564c-6.237-5.473-12.084-11.252-17.47-17.606c-5.854-6.943-10.879-14.376-15.889-21.91
		c-8.527-12.844-17.812-25.122-26.9-37.556c-8.666-11.831-17.646-23.426-28.479-33.399c-2.398-2.196-4.738-4.509-7.275-6.519
		c-1.521-1.198-1.752-2.293-1.438-4.184c0.836-4.855,0.215-9.718-0.353-14.549c-0.522-4.696-1.373-9.344-2.002-14.06
		c-1.092-8.07-3.246-15.969-4.756-23.961c-0.412-2.206-1.258-4.72-3.563-5.296c-2.672-0.66-3.465-2.511-4.267-4.554
		c-1.021-2.607-1.963-5.287-2.76-7.961c-0.57-1.918-1.438-3.21-3.699-2.976c-2.021,0.214-2.86-1.138-3.604-2.662
		c-0.551-1.195-1.146-2.377-1.871-3.521c-0.74-1.186-1.752-1.808-3.315-1.682c-4.159,0.365-4.054,0.236-5.817-3.411
		c-1.916-3.991-4.056-7.914-6.047-11.834c-0.899-1.722-1.903-2.976-4.168-2.105c-1.222,0.462-2.304-0.236-3.295-0.96
		c-2.125-1.598-4.223-3.256-5.798-5.456c-1.729-2.396-3.825-4.537-6.351-6.164c-1.567-1.037-3.225-1.709-4.942-0.472
		c-3.37,2.362-6.047,1.364-8.515-1.54c-1.371-1.679-3.104-2.279-5.112-1.049c-1.429,0.91-2.821,0.792-4.13-0.179
		c-1.364-1.001-2.862-1.138-4.09-0.045c-2.164,1.858-4.178,1.293-6.576,0.405c-4.939-1.926-10.006-3.621-15.075-5.169
		c-2.188-0.658-4.666-1.327-6.302,1.489c-0.938,1.589-2.459,1.363-3.922,0.682c-2.18-0.953-4.516-1.47-6.822-2.047
		c-2.146-0.525-3.811-0.417-4.454,2.152c-0.558,2.204-2.015,2.688-4.069,2.133c-1.153-0.287-2.338-0.516-3.515-0.555
		c-1.071-0.02-2.189,0.459-2.075,1.83c0.243,2.937-1.693,3.271-3.897,3.685c-2.961,0.493-5.908,0.207-8.871,0.359
		c-2.535,0.124-4.731,0.729-5.012,3.87c-0.179,1.848-1.443,2.808-3.025,3.521c-1.373,0.604-2.717,1.148-4.116,1.661
		c-1.103,0.378-1.658,0.785-1.231,2.211c0.791,2.821,0.606,3.022-2.064,3.333c-2.479,0.302-5.013,0.279-7.532,0.446
		c-2.993,0.212-5.012,1.589-4.912,4.033c0.151,5.244-1.875,10.165-2.118,15.382c-0.044,1.323-0.554,2.055-1.954,2.57
		c-2.74,1.059-2.61,1.167-1.605,3.729c2.395,6.082,4.983,12.007,8.393,17.592c1.426,2.341,1.529,4.979-0.113,7.118
		c-1.321,1.753-0.814,2.96,0.168,4.318c0.676,0.962,1.275,1.997,2.071,2.877c1.188,1.392,1.733,2.734,0.478,4.371
		c-0.875,1.136-0.543,2.249,0.232,3.229c4.674,6.082,9.013,12.506,16.396,15.792c-0.136,0.525-0.146,0.967-0.338,1.313
		c-1.705,3.078-1.771,3.341,0.643,5.582c1.826,1.736,3.867,3.215,5.879,4.753c1.379,1.044,2.229,2.102,0.68,3.582
		c-0.791,0.77-0.986,1.409,0.004,2.134c6.348,4.854,12.414,10.084,20.279,12.548c1.237,0.408,2.844,0.414,3.614,1.544
		c1.44,2.239,3.767,2.712,5.963,3.563c1.103,0.446,2.255,0.735,3.032,1.717c1.188,1.54,2.959,1.79,4.729,2.186
		c4.66,0.989,9.396,1.084,14.162,1.121c4.768,0.038,5.125,0.755,3.025,5.115c-0.082,0.219,0.115,0.549,0.217,1.052
		c6.076,0.86,12.18,1.47,18.365-0.082C1581.225,284.669,1581.883,285.25,1582.554,289.951z M1590.993,526.465
		c5.241,1.305,10.28-0.345,15.256,0.555c0.922,0.162,1.731-0.369,1.958-1.406c0.85-3.503,3.631-3.943,6.521-4.175
		c1.326-0.104,2.648-0.062,4.01-0.224c4.582-0.588,9.146-1.221,12.277-5.209c1.123-1.449,2.893-2.022,4.521-2.752
		c1.76-0.768,3.504-1.431,4.608-3.265c0.775-1.3,2.353-1.72,3.765-2.188c1.548-0.512,3.096-1.019,4.628-1.57
		c1.013-0.352,2.025-0.85,1.893-2.116c-0.291-2.776,1.854-3.562,3.633-4.431c2.916-1.447,5.764-2.979,8.387-4.922
		c0.949-0.721,2.178-1.326,1.957-2.716c-0.405-2.5,1.197-3.803,2.714-5.226c2.049-1.921,4.228-3.732,3.817-7.059
		c-0.17-1.55,0.931-2.749,2.15-3.696c0.95-0.721,1.891-1.48,2.879-2.067c2.697-1.531,4.021-3.771,4.006-6.919
		c0.059-3.562,1.479-6.604,3.978-9.144c1.444-1.498,2.847-2.98,4.224-4.557c0.688-0.787,1.857-1.911,1.642-2.479
		c-1.31-4.074,3.304-7,1.932-10.959c1.417-8.281,2.379-16.625,4.556-24.793c1.606-6.012,3.011-12.058,5.983-17.554
		c3.086-5.771,3.136-5.932-2.821-8.668c-1.072-0.508-2.207-0.896-3.281-1.399c-8.489-4.073-17.78-3.346-26.739-4.414
		c-0.409-0.073-0.927-0.019-1.299,0.192c-3.011,1.623-6.021,0.968-9.021,0.017c-1.019-0.327-2.159-0.569-2.961,0.152
		c-3.55,3.24-7.729,2.397-11.836,1.972c-2.259-0.25-4.558-0.147-6.354,1.311c-2.599,2.033-5.678,2.61-8.763,2.849
		c-3.569,0.239-6.999,0.772-10.478,1.471c-5.732,1.124-9.188,5.5-13.25,8.797c-1.797,1.458-3.051,3.771-5.301,5.021
		c-1.287,0.726-2.468,1.656-3.67,2.5c-0.875,0.647-1.625,1.553-1.203,2.642c0.985,2.666-0.455,4.502-1.857,6.473
		c-1.76,2.562-3.577,5.094-5.107,7.78c-1.484,2.674-3.525,5.271-3.716,8.386c-0.103,1.775-0.536,2.925-1.522,4.333
		c-1.861,2.546-5.129,4.778-2.904,8.823c0.234,0.464-0.312,1.4-0.555,2.057c-0.336,0.827-1.111,1.643-0.758,2.506
		c1.104,2.729-0.496,4.854-1.41,7.164c-1.353,3.604-2.604,7.229-4.113,10.785c-0.989,2.382-0.842,4.521,1.354,5.855
		c2.495,1.537,2.604,3.688,2.315,6.15c-0.216,2.057-0.312,4.168-1.037,6.135c-0.483,1.307-0.101,2.601-0.153,3.879
		c-0.134,3.631,2.479,6.54,2.305,10.183c-0.162,2.719,1.026,4.597,3.914,4.998c1.875,0.268,2.394,1.521,2.53,3.129
		c0.074,0.9-0.044,1.81,0.104,2.637c0.455,1.855-0.377,3.946,0.762,5.646c1.332,2.028,3.562,0.882,5.312,1.231
		c3.102,0.632,3.822,2.405,1.896,5.064C1591.996,524.129,1590.987,524.817,1590.993,526.465z"/>
	<path fill="#71B0BA" d="M1639.312,246.222c-3.279-2.711-7.19-4.604-11.365-6.077c-11.578-4.172-23.191-8.142-34.678-12.484
		c-12.875-4.95-24.916-11.652-36.955-18.355c-7.5-4.172-14.857-8.679-22.709-12.066c-9.086-3.944-18.402-7.38-28.09-9.593
		c-8.384-1.92-16.342-5.179-24.516-7.696c-1.441-0.443-2.96-1.301-3.554-2.97c1.101-1.2,2.046-0.463,2.918-0.142
		c7.94,2.878,15.771,6.03,24.007,7.944c7.507,1.744,14.818,3.983,21.969,6.805c8.688,3.433,16.95,7.716,25.104,12.277
		c16.243,9.092,32.325,18.619,50.182,24.319c9.757,3.111,19.118,7.168,28.829,10.294c5.314,1.717,10.064,4.961,14.745,8.129
		c2.679,1.824,5.229,3.878,7.802,5.83c0.689,0.522,1.668,1.202,0.829,2.131c-0.808,0.872-1.573-0.066-2.249-0.543
		c-1.996-1.494-4.038-2.972-6.049-4.508c-1.768-1.367-3.305-1.638-5.607-0.417c-7.021,3.789-12.908,8.792-18.062,14.791
		c-8.062,9.434-18.244,15.812-30.025,19.757c-0.399,0.12-0.854,0.061-1.442,0.042c-0.174-1.89,1.312-2.283,2.426-2.615
		c8.904-2.844,16.527-7.88,23.367-14.088c3.396-3.1,6.395-6.562,9.576-9.886c3.64-3.752,7.844-6.75,12.366-9.312
		C1638.625,247.494,1639.189,247.278,1639.312,246.222z"/>
	<path fill="#71B0BA" d="M1830.409,405.025c-2.58-2.629-3.812-5.95-4.792-9.25c-3.684-12.539-8.979-24.452-13.735-36.524
		c-2.76-6.99-5.267-14.104-8.04-21.141c-4.391-11.163-8.469-22.418-12.293-33.801c-2.431-7.187-3.72-14.614-5.199-22.032
		c-2.051-10.31-3.905-20.625-4.994-31.123c-0.56-5.462-0.971-10.92-0.219-16.384c0.135-1.011,0.418-2.018,0.76-2.993
		c0.13-0.377,0.438-0.808,0.996-0.731c0.746,0.067,0.951,0.589,0.99,1.209c0.03,0.427,0.073,0.898,0.001,1.308
		c-1.645,8.01,0.179,15.912,0.843,23.864c0.851,10.18,3.427,20.137,5.101,30.167c1.628,9.707,5.293,18.76,8.244,28.021
		c4.5,14.14,11.071,27.42,15.571,41.56c2.619,8.147,6.771,15.741,9.66,23.812c0.851,2.366,2.291,2.812,3.338,0.945
		c2.595-4.653,7.354-7.234,10.248-11.541c7.994-11.938,16.422-23.568,20.32-37.688c0.131-0.379,0.479-0.676,0.818-1.167
		c1.396,1.431,0.578,2.934,0.186,4.215c-2.443,7.766-5.312,15.409-10.293,21.987c-2.228,2.942-4.26,6.069-5.839,9.403
		c-1.548,3.274-3.944,5.979-6.338,8.534c-2.849,2.982-5.612,6.087-8.403,9.103c-1.733,1.827-1.949,3.396-1.312,5.533
		c0.85,2.854,1.772,5.637,2.979,8.382C1829.876,400.623,1830.677,402.665,1830.409,405.025z"/>
	<path fill="#71B0BA" d="M1824.604,361.239c14.892-19.425,28.016-38.909,35.854-61.479c1.181,0.379,0.646,1.361,0.593,2.153
		c-0.535,6.031-2.816,11.562-5.82,16.629c-7.922,13.325-14.881,27.283-24.948,39.259
		C1828.305,360.137,1828.42,360.2,1824.604,361.239z"/>
	<path fill="#71B0BA" d="M1852.006,273.164c1.38,2.354,0.807,4.659,0.203,6.878c-1.876,7.06-4.916,13.642-8.751,19.831
		c-4.688,7.558-8.466,15.572-12.646,23.368c-2.416,4.6-4.959,9.094-8.602,12.846c-0.82,0.827-1.628,1.696-2.581,2.416
		c-0.589,0.469-1.356,0.647-1.938-0.147c-0.422-0.604,0.008-1.118,0.418-1.531c9.304-8.688,13.904-20.441,19.861-31.241
		c3.001-5.405,6.162-10.763,8.688-16.463c2.081-4.745,4.176-9.442,4.041-14.789C1850.703,273.84,1850.948,273.527,1852.006,273.164z
		"/>
	<path fill="#71B0BA" d="M1835.016,250.32c1.344,3.045,0.737,5.41,0.043,7.8c-1.308,4.416-2.901,8.676-4.918,12.818
		c-4.787,9.674-8.517,19.809-13.578,29.371c-1.803,3.398-3.73,6.69-5.938,9.872c-0.465,0.721-1.042,1.719-2.048,0.948
		c-0.632-0.49-0.312-1.364,0.123-2.025c0.572-0.851,1.248-1.683,1.761-2.562c8.921-15.513,16.479-31.688,22.632-48.516
		C1833.956,255.73,1833.513,253.096,1835.016,250.32z"/>
	<path fill="#71B0BA" d="M1555.516,150.537c3.021,2.646,4.904,5.722,5.859,8.932c2.568,8.794,6.329,17.185,8.198,26.234
		c1.814,8.873,4.358,17.58,10.366,24.72c0.396,0.512,0.465,1.073,0.06,1.823c-2.281,0-3.19-1.913-4.037-3.457
		c-3.498-6.041-5.817-12.534-7.419-19.384c-2.829-12.113-5.793-24.188-12.191-35.092c-0.379-0.615-0.681-1.302-0.938-2.002
		C1555.309,151.957,1555.455,151.477,1555.516,150.537z"/>
	<path fill="#71B0BA" d="M1588.461,231.711c-1.056,3.953-3.933,6.51-6.808,8.917c-10.991,9.047-23.398,15.942-36.056,22.329
		c-2.108,1.066-4.354,1.831-6.771,1.87c-0.589-0.018-1.233-0.068-1.391-0.751c-0.213-0.711,0.371-1.032,0.866-1.326
		c0.376-0.208,0.808-0.385,1.224-0.46c7.594-1.387,14.104-5.267,20.527-9.119c7.219-4.284,14.213-8.987,20.771-14.335
		C1583.521,236.627,1585.584,233.781,1588.461,231.711z"/>
	<path fill="#71B0BA" d="M1573.23,156.422c2.006,1.685,2.24,3.459,2.557,5.16c2.328,13.039,7.316,25.237,12.548,37.268
		c2.683,6.237,6.546,11.881,10.604,17.369c0.553,0.709,1.088,1.374,1.52,2.167c0.196,0.33,0.146,0.976-0.081,1.188
		c-0.487,0.485-1.144,0.245-1.565-0.212c-0.584-0.651-1.09-1.375-1.597-2.098c-4.918-7.22-9.19-14.733-12.741-22.75
		c-2.728-6.225-4.799-12.691-7.091-19.093c-1.983-5.523-3.013-11.431-4.462-17.111
		C1572.845,157.898,1573.051,157.448,1573.23,156.422z"/>
	<path fill="#71B0BA" d="M1806.775,361.499c-0.232,0.847-0.646,1.261-1.021,1.131c-9.812-2.807-19.378-6.41-28.58-10.757
		c-6.939-3.272-13.689-7.036-19.697-11.896c-0.457-0.397-0.631-0.979,0.019-1.897c7.96,4.57,15.292,10.297,23.918,13.844
		C1789.773,355.399,1798.458,358.006,1806.775,361.499z"/>
	<path fill="#71B0BA" d="M1607.143,245.075c-3.505,4.196-8.602,6.15-12.854,9.311c-4.977,3.664-10.146,7.146-15.039,10.93
		c-4.938,3.798-10.439,6.65-16.033,9.382c-0.629,0.333-1.328,0.59-2.134,0.005c0.154-1.598,1.642-1.991,2.7-2.503
		c9.805-4.713,18.222-11.489,27.016-17.646c3.132-2.194,6.309-4.401,9.514-6.521
		C1602.438,246.718,1604.668,245.569,1607.143,245.075L1607.143,245.075z"/>
	<path fill="#71B0BA" d="M1534.523,151.254c2.23,1.956,3.586,4.222,4.354,6.808c3.794,13.232,8.466,26.157,14.881,38.416
		c0.124,0.254,0.263,0.553,0.343,0.821c0.217,0.565,0.271,1.229-0.257,1.58c-0.558,0.408-1.135,0.096-1.485-0.431
		c-0.508-0.723-1.058-1.432-1.397-2.253c-4.18-9.965-8.522-19.832-11.688-30.146c-1.307-4.223-2.446-8.541-4.838-12.341
		C1533.962,153.119,1533.604,152.401,1534.523,151.254z"/>
	<path fill="#71B0BA" d="M1559.938,224.723c-3.326,1.379-6.147,2.654-9.067,3.766c-7.465,2.806-14.54,6.415-21.577,10.159
		c-4.191,2.22-7.779,5.325-11.682,8.039c-0.842,0.589-1.688,1.181-2.602,1.693c-0.494,0.294-1.267,0.476-1.66-0.038
		c-0.607-0.741-0.002-1.31,0.633-1.791c4.168-3.276,8.404-6.479,13.164-8.916c9.353-4.773,18.672-9.488,28.711-12.769
		C1557.014,224.526,1558.2,223.784,1559.938,224.723z"/>
	<path fill="#71B0BA" d="M1791.027,308.104c-1.559,0.803-2.524-0.171-3.438-0.627c-9.962-4.942-19.336-10.838-27.86-17.958
		c-3.407-2.818-6.684-5.823-9.983-8.771c-0.658-0.579-1.46-1.312-0.593-2.151c0.685-0.642,1.396,0.115,1.939,0.489
		c0.488,0.339,0.947,0.736,1.361,1.147c9.867,10.163,21.363,18.143,33.926,24.644
		C1787.975,305.665,1789.775,306.34,1791.027,308.104z"/>
	<path fill="#71B0BA" d="M1500.747,231.278c4.278-1.273,7.524-2.095,10.684-3.229c10.283-3.596,20.517-7.368,30.785-11.009
		c1.015-0.348,2.572-1.638,3.089-0.386c0.736,1.821-1.456,1.793-2.522,2.112c-11.604,3.403-22.546,8.698-34.067,12.373
		C1506.465,231.906,1504.145,232.742,1500.747,231.278z"/>
	<path fill="#71B0BA" d="M1784.291,292.641c-1.807,0.294-2.732-1.032-3.732-1.946c-9.242-8.557-17.875-17.679-25.046-28.065
		c-0.786-1.172-3.14-2.559-1.27-3.939c1.28-0.914,2.176,1.439,2.979,2.511c4.474,5.899,8.735,11.909,13.726,17.411
		c3.479,3.865,7.233,7.356,11.021,10.938C1782.85,290.402,1784.29,290.845,1784.291,292.641z"/>
	<path fill="#71B0BA" d="M1803.871,272.837c-0.745-6.086,1.415-11.872,1.548-17.782c0.133-5.911,2.696-10.993,4.063-16.496
		C1809.839,250.34,1807.087,261.641,1803.871,272.837z"/>
	<path fill="#71B0BA" d="M1515.241,150.54c2.081,2.099,2.886,4.479,3.754,6.744c1.062,2.744,1.955,5.581,2.745,8.404
		c2.294,8.197,5.637,15.838,11.343,22.293c0.369,0.421,0.72,0.949,1.012,1.445c0.308,0.539,0.257,1.186-0.256,1.58
		c-0.514,0.396-1.173,0.301-1.63-0.098c-0.413-0.411-0.752-0.893-1.089-1.374c-5.089-7.317-8.787-15.337-11.424-23.869
		c-1.27-4.088-2.397-8.215-4.406-12.033C1514.84,152.94,1514.396,152.101,1515.241,150.54z"/>
	<path fill="#71B0BA" d="M1769.316,357.266c5.429,3.724,10.677,5.702,15.974,7.521c6.144,2.057,12.235,4.268,18.606,5.621
		c2.119,0.438,4.543,0.59,6.545,3.244c-2.998-0.126-5.146-0.99-7.271-1.768c-2.225-0.793-4.487-1.382-6.854-1.841
		c-8.188-1.591-15.942-4.327-23.354-8.188C1771.462,361.045,1769.688,360.457,1769.316,357.266z"/>
	<path fill="#71B0BA" d="M1618.204,188.018c1.804,6.062,3.651,12.11,5.412,18.186c1.35,4.692,2.518,9.44,3.729,14.173
		c0.287,1.128,0.454,2.341,0.415,3.517c-0.007,1.117-0.729,2.109-1.92,2.025c-1.396-0.117-0.665-1.257-0.653-2.037
		c0.059-4.044-1.318-7.855-2.226-11.711c-1.545-6.332-3.447-12.561-5.215-18.828
		C1617.277,191.593,1616.729,189.912,1618.204,188.018z"/>
	<path fill="#71B0BA" d="M1598.312,168.95c5.267,18.182,8.61,36.109,14.795,53.29c-1.836,0.354-1.918-0.739-2.188-1.483
		c-3.729-11.066-6.765-22.394-9.56-33.74c-1.075-4.436-2.349-8.861-3.438-13.338C1597.621,172.502,1596.72,171.267,1598.312,168.95z
		"/>
	<path fill="#71B0BA" d="M1788.287,321.39c-2.805,0.688-4.08-0.339-5.325-0.938c-8.664-4.164-17.108-8.733-24.914-14.419
		c-2.112-1.555-2.112-1.555-2.827-4.934C1765.482,309.497,1776.479,315.297,1788.287,321.39z"/>
	<path fill="#71B0BA" d="M1591.746,274.21c2.67-2.931,5.792-4.344,8.459-6.302c6.406-4.721,13.027-9.215,19.546-13.729
		c1.13-0.771,2.085-1.639,2.94-2.671c0.398-0.458,0.886-0.941,1.473-0.438c0.761,0.599,0.411,1.382-0.105,1.924
		c-0.703,0.743-1.52,1.424-2.389,1.925c-8.451,5.186-16.062,11.574-24.117,17.272
		C1595.953,273.346,1594.379,274.251,1591.746,274.21z"/>
	<path fill="#71B0BA" d="M1780.491,331.717c-3.436,1.021-6.036-1.213-8.642-2.621c-7.402-4.008-14.715-8.188-21.369-13.437
		c-1.006-0.77-2.113-1.556-2.155-3.82c4.202,1.9,6.864,5.138,10.344,7.206c3.668,2.209,7.101,4.777,10.904,6.799
		C1773.217,327.817,1776.848,329.745,1780.491,331.717L1780.491,331.717z"/>
	<path fill="#71B0BA" d="M1534.237,209.955c-11.599,7.335-25.007,8.753-37.747,12.401c-0.594-2.154,0.818-2.136,1.667-2.388
		c4.946-1.474,9.965-2.87,15.16-3.35c4.354-0.374,8.396-1.625,12.351-3.337C1528.446,212.018,1531.362,211.054,1534.237,209.955z"/>
	<path fill="#71B0BA" d="M1808.927,289.82c2.841-10.841,6.974-21.242,8.816-32.321
		C1819.327,262.657,1813.193,285.25,1808.927,289.82z"/>
	<path fill="#71B0BA" d="M1546.93,249.169c1.692-2.3,23.168-14.271,26.664-15.07c-2.083,3.435-5.549,4.176-8.138,5.917
		c-2.962,1.949-6.104,3.612-9.292,5.143C1553.162,246.634,1550.318,248.499,1546.93,249.169z"/>
	<path fill="#71B0BA" d="M1637.343,205.855c3.666,8.08,5.392,16.641,6.757,25.308c0.221,1.392,0.377,2.897-1.392,4.782
		C1641.256,225.361,1638.965,215.707,1637.343,205.855z"/>
	<path fill="#71B0BA" d="M1779.83,272.279c-1.069,0.316-1.52-0.375-1.957-0.873c-4.521-5.253-9.048-10.505-12.95-16.283
		c-0.507-0.722-0.938-1.516-1.321-2.322c-0.576-1.284-2.005-3.142-0.521-3.87c1.942-0.97,1.948,1.65,2.517,2.745
		c2.963,6.202,7.778,11.126,11.69,16.608C1778.166,269.62,1779.439,270.647,1779.83,272.279z"/>
	<path fill="#71B0BA" d="M1510.521,202.652c-0.658,1.215-1.938,1.159-2.957,1.317c-6.231,1.078-12.511,1.828-18.861,2.169
		c-0.147-0.005-0.279,0.034-0.43,0.029c-0.996-0.091-2.487,0.111-2.445-1.212c0.029-1.367,1.488-1.025,2.475-0.979
		c6.672,0.247,13.184-1.354,19.785-1.669C1508.898,202.261,1509.771,201.612,1510.521,202.652z"/>
	<path fill="#71B0BA" d="M1513.632,182.462c-7.253-5.459-9.539-13.949-13.562-21.923c2.939,1.744,3.306,1.977,7.283,10.787
		C1509.112,175.267,1512.625,178.104,1513.632,182.462z"/>
	<path fill="#71B0BA" d="M1829.257,299.441c-0.134,2.321-4.782,14.091-6.786,17.307c-1.086,1.729-1.086,1.729-3.392,2.948
		C1819.335,317.777,1827.78,300.997,1829.257,299.441z"/>
	<path fill="#71B0BA" d="M1808.139,382.54c-2.299,0.589-3.826,0.022-5.354-0.396c-3.691-0.986-7.384-1.977-11.062-2.918
		c-1.998-0.521-3.936-1.157-5.586-2.463c-0.443-0.353-0.853-0.907-0.449-1.517c0.4-0.604,0.984-0.438,1.521-0.112
		c4.906,2.955,10.505,3.668,15.854,5.181C1804.65,380.764,1806.521,380.692,1808.139,382.54z"/>
	<path fill="#71B0BA" d="M1780.46,331.775c2.265-0.384,3.873,1.271,5.828,1.808c4.549,1.267,9.082,2.635,13.646,3.942
		c0.961,0.296,2.033,0.314,2.641,1.203c-0.465,1.546-1.439,0.866-2.217,0.707c-5.818-1.131-11.271-3.633-16.942-5.243
		c-1.37-0.368-2.312-1.252-2.935-2.523C1780.491,331.717,1780.46,331.775,1780.46,331.775z"/>
	<path fill="#71B0BA" d="M1498.436,177.378c-2.771-1.165-4.19-3.653-6.281-5.458c-1.444-1.267-2.846-2.548-4.29-3.816
		c-0.658-0.579-1.699-1.143-1.065-2.11c0.808-1.209,1.984-0.346,2.688,0.22c1.562,1.332,2.979,2.848,4.467,4.251
		C1495.99,172.428,1497.523,174.641,1498.436,177.378z"/>
	<path fill="#71B0BA" d="M1607.198,245.107c0.579-0.658,1.032-1.425,2.448-1.556
		C1608.979,244.722,1607.987,244.823,1607.198,245.107C1607.143,245.075,1607.198,245.107,1607.198,245.107z"/>
	<path fill="#71B0BA" d="M1701.296,393.479c-5.024,4.312-9.374,9.098-13.078,14.423c-0.509,0.73-1.09,1.392-1.598,2.126
		c-8.162,13.007-15.487,26.542-24.287,39.205c-1.837,2.634-1.369,5.987-2.086,8.966c-0.424,1.68-0.218,3.51-1.892,5.222
		c-1.576-3.171,0.866-5.888,0.054-8.944c-5.298,6.333-10.5,12.49-15.646,18.683c-9.063,10.945-18.486,21.516-28.47,31.669
		c-3.94,4.036-8.479,7.376-13.198,10.432c-0.482,0.338-1.009,0.688-1.686,0.211c-0.439-1.471,0.812-1.987,1.688-2.64
		c13.902-9.863,24.412-23.134,35.551-35.766c6.396-7.193,12.295-14.771,18.392-22.168c7.123-8.671,13.069-18.203,18.827-27.875
		c5.943-10.02,11.562-20.328,19.625-28.939C1695.688,395.829,1698.152,394.172,1701.296,393.479z"/>
	<path fill="#71B0BA" d="M1631.704,476.256c-3.822,2.155-7.937,2.848-12.177,2.943c-9.25,0.229-18.557,2.709-27.762-0.183
		C1605.166,479.206,1618.391,477.988,1631.704,476.256z"/>
	<path fill="#71B0BA" d="M1657.896,438.569c-13.168,1.732-26.136-0.423-39.109-2.286
		C1631.839,436.281,1644.832,438.041,1657.896,438.569z"/>
	<path fill="#71B0BA" d="M1609.771,455.224c6.237,0.423,12.51,1.273,18.734,1.167c6.082-0.109,12.135-1.135,18.764-1.851
		C1642.568,458.804,1620.011,459.308,1609.771,455.224z"/>
	<path fill="#71B0BA" d="M1617.189,491.398c-9.293,3.83-18.996,3.178-28.701,2.522
		C1598.025,492.879,1607.648,492.927,1617.189,491.398z"/>
	<path fill="#71B0BA" d="M1614.705,467.73c8.188-0.206,16.077-2.555,24.34-3.655c-0.246,2.109-1.6,2.127-2.679,2.254
		C1629.165,467.404,1622.062,469.616,1614.705,467.73z"/>
	<path fill="#71B0BA" d="M1669.571,422.041c-4.485,1.237-18.32-2.213-22.339-5.434
		C1654.635,418.48,1662.132,420.034,1669.571,422.041z"/>
	<path fill="#71B0BA" d="M1633.811,487.567c-1.444,7.367-2.06,14.927-5.434,21.852c-1.634-2.716,0.526-4.912,0.93-7.312
		c0.435-2.456,1.015-4.911,1.648-7.334C1631.612,492.248,1631.946,489.625,1633.811,487.567z"/>
	<path fill="#71B0BA" d="M1659.612,402.927c5.276,2.896,10.858,4.53,17.112,4.515
		C1673.587,410.752,1663.854,408.215,1659.612,402.927z"/>
	<path fill="#71B0BA" d="M1672.258,390.477c4.836,1.084,9.646,2.08,14.438,3.177c0.832,0.188,1.847,0.664,1.266,1.807
		c-0.393,0.798-1.253,0.521-1.92,0.232c-4.226-1.801-8.683-2.755-13.069-3.972C1672.516,391.663,1672.152,391.43,1672.258,390.477z"
		/>
	<path fill="#71B0BA" d="M1650.532,476.426c-1.524-4.304,0.802-7.908,1.838-11.76
		C1653.119,468.814,1652.331,472.688,1650.532,476.426z"/>
</g>
<g>
	<path fill="#71B0BA" d="M-57.513,1161.039c-1.527-3.871-4.232-6.791-5.225-10.572c-0.764-2.973-2.115-5.836-0.248-8.951
		c0.498-0.797-0.052-2.307-0.241-3.444c-1.199-8.054-2.166-16.095-2.351-24.259c-0.063-3.722,0.407-7.354,1.077-11.004
		c0.295-1.705,0.733-3.225,3.027-2.979c1.398,0.154,1.708-0.928,1.889-1.996c0.222-1.337,0.417-2.639,0.576-3.971
		c0.331-2.898,0.915-5.516,4.01-6.851c1.563-0.685,1.587-2.435,1.808-3.838c0.897-5.775,3.213-11.075,5.094-16.499
		c0.696-2.035,1.235-4.389,4.317-4.204c0.93,0.062,1.377-0.966,1.77-1.79c0.799-1.58,1.563-3.188,2.396-4.742
		c0.749-1.379,1.886-2.426,3.57-1.963c2.197,0.649,3.38-0.664,4.415-2.166c1.8-2.681,3.664-5.371,5.251-8.234
		c2.166-3.898,4.75-7.501,7.478-10.983c1.166-1.511,2.393-1.872,3.632-0.388c1.351,1.642,2.615,1.377,4.302,0.617
		c3.88-1.826,8.01-3.01,11.451-5.76c1.768-1.426,3.821-1.325,5.775,0.038c2.233,1.538,4.034,3.441,5.347,5.845
		c0.93,1.706,2.014,2.94,4.121,1.189c1.515-1.274,3.019-0.602,4.283,0.779c2.244,2.526,4.534,4.359,8.461,3.125
		c2.643-0.803,4.63,1.382,6.184,3.502c1.59,2.149,3.112,4.305,4.701,6.455c0.665,0.875,1.295,1.35,2.603,1.182
		c4.274-0.568,5.441-0.003,7.166,3.852c0.765,1.757,1.503,2.75,3.58,1.893c1.692-0.694,2.73,0.312,3.6,1.725
		c1.515,2.455,2.287,5.131,2.708,7.935c0.245,1.433,0.604,2.592,2.328,2.718c3.748,0.264,5.417,2.969,6.19,6.074
		c1.334,5.171,3.372,10.093,4.253,15.366c0.276,1.827,0.804,3.499,2.919,3.957c0.135,0.055,0.242,0.146,0.381,0.202
		c3.49,1.205,1.792,5.564,4.369,7.272c2.962,1.979,3.37,4.649,2.266,7.802c-0.723,2.135,0.027,3.695,1.968,4.857
		c3.045,1.805,3.857,4.577,3.438,8.007c-0.317,2.665-0.87,5.251-1.657,7.819c-0.523,1.693-0.986,3.377-1.073,5.196
		c-0.087,1.821-0.513,3.536,2.133,4.021c1.474,0.279,1.521,1.728,0.991,2.924c-0.754,1.742-1.673,3.463-2.597,5.121
		c-1.915,3.318-3.894,6.642-5.876,9.966c-0.987,1.661-1.564,3.125,0.113,4.739c2.18,2.103,2.039,4.49,0.373,6.801
		c-1.663,2.309-2.478,4.552-0.967,7.366c0.742,1.425-0.134,2.882-1.096,4.075c-1.412,1.731-2.691,3.514-4.141,5.212
		c-1.78,2.088-2.966,4.193-2.465,7.188c0.412,2.307-0.985,4.234-2.538,5.906c-5.835,6.271-11.845,12.453-18.289,18.142
		c-3.977,3.514-7.983,7.063-12.067,10.49c-2.599,2.185-5.195,4.368-8.01,6.309c-4.126,2.899-6.155,6.855-6.883,11.792
		c-1.793,12.351-5.544,24.125-9.693,35.869c-4.12,11.707-8.613,23.279-13.071,34.882c-2.985,7.721-5.8,15.467-9.497,22.952
		c-2.043,4.187-3.632,8.699-5.255,13.183c-4.227,11.616-6.105,23.709-8.147,35.844c-2.147,12.838-3.596,25.788-5.479,38.667
		c-1.332,9.014-0.627,18.295-0.165,27.492c0.34,6.769,0.974,13.547,3.267,20.396c1.355-1.23,1.65-2.87,2.406-4.183
		c2.146-3.732,3.775-7.723,6.342-11.159c1.312-1.754,1.4-3.572,0.925-5.813c-1.914-9.577-3.538-19.214-5.187-28.814
		c-0.301-1.725-0.281-3.542-0.354-5.316c-0.026-0.757-0.181-1.864,0.229-2.129c3.116-2.293,1.501-5.199,1.122-7.904
		c-1.226-9.239,0.032-18.312,1.823-27.363c0.239-1.137,0.274-2.759,1.694-2.771c2.342-0.021,2.425-1.479,2.789-3.124
		c2.088-8.611,6.572-16.155,10.75-23.778c1.412-2.581,3.131-5.03,4.578-7.585c1.015-1.767,2.188-3.208,4.392-3.283
		c1.384-0.044,2.024-1.087,2.854-1.909c1.895-1.867,3.723-3.791,5.656-5.63c1.687-1.617,3.231-3.356,6.159-2.631
		c1.413,0.35,2.612-1.197,3.8-2.017c1.126-0.752,2.316-1.995,3.542-1.5c2.723,1.039,4.074-0.623,5.808-2.077
		c7.785-6.686,16.838-11.492,25.667-16.614c0.756-0.456,1.858-1.105,2.415-0.325c1.637,2.312,3.396,0.821,5.111,0.389
		c2.713-0.744,5.407-1.686,8.13-2.297c2.109-0.463,4.395-1.204,6.123,1.066c0.812,1.06,1.922,0.542,2.847,0.105
		c4.016-1.771,8.496-1.004,12.609-2.386c1.543-0.519,2.604,0.388,2.477,2.112c-0.085,1.027-0.302,2.004-0.531,3.274
		c2.139,0.787,4.125-0.391,6.104-0.353c2.282,0.048,4.117,0.335,4.279,3.225c0.127,2.001,1.479,2.85,3.396,2.469
		c2.406-0.454,3.881,0.681,5.242,2.456c1.512,2.023,3.115,3.942,5.305,5.319c0.729,0.438,1.321,1.248,1.644,2.015
		c0.815,1.979,0.938,4.345,4.064,4.263c1.058-0.017,1.331,1.379,1.515,2.452c0.459,2.471,1.051,4.93,1.312,7.417
		c0.359,2.874,0.832,5.478,3.633,7.135c1.454,0.875,1.257,2.537,1.182,4.065c-0.178,4.006-0.891,7.922-0.803,11.973
		c0.058,2.372-0.055,4.722,0.461,7.057c0.469,2.173,0.022,4.419-0.434,6.6c-0.459,2.114-1.413,4.234-0.051,6.436
		c0.344,0.598,0.039,1.745-0.189,2.587c-0.49,1.723-0.688,3.388-0.544,5.222c0.245,3.084-1.801,5.556-2.942,8.251
		c-1.082,2.562-2.586,4.824-2.78,7.774c-0.131,2.518-2.363,4.342-3.814,6.407c-1.186,1.678-3.005,2.876-3.494,5.027
		c4.174,3.131,4.274,4.013,0.159,7.409c-5.736,4.642-10.99,9.941-17.234,13.968c-0.252,0.151-0.604,0.277-0.684,0.517
		c-1.238,3.528-3.588,5.925-7.081,7.225c-0.192,0.083-0.421,0.496-0.438,0.729c-0.396,4.98-4.765,5.655-8.082,7.105
		c-4.459,2.003-9.178,3.233-14.012,4.242c-0.975,0.21-2.237,0.112-2.636,1.295c-1.076,3.057-3.823,3.404-6.414,4.006
		c-5.312,1.212-10.655,2.462-15.967,3.74c-1.133,0.258-2.627,0.572-3.19,1.375c-2.476,3.331-6.07,2.888-9.342,2.853
		c-9.312-0.12-18.659-0.271-27.925-1.447c-4.827-0.573-9.658-1.149-14.303-2.725c-2.133-0.724-3.651-0.307-5.028,1.519
		c-1.341,1.789-2.69,3.512-3.548,5.594c-6.847,16.412-7.924,33.22-3.628,50.395c1.269,5.179,2.696,10.309,4.155,15.407
		c1.408,4.868,4.343,9.025,6.611,13.526c1.014,1.965,2.556,3.955,1.614,6.206c-0.982,3.014-2.981,5.645-5.633,7.604
		c-1.464,1.074-3.137,0.38-4.299-1.769c-1.819-3.385-3.445-6.853-5.107-10.349c-4.674-9.854-6.699-20.452-9.026-31.054
		c-1.801-8.14-2.257-16.414-3.598-24.588c-0.516-3.191-1.2-6.403-1.879-9.548c-1.536-6.873-0.769-13.862-1.448-20.8
		c-1.433-14.731-2.901-29.492-3.966-44.219c-0.639-8.923-2.059-17.654-4.546-26.197c-3.178-10.965-7.094-21.641-13.494-31.259
		c-1.686-2.538-3.758-4.55-6.235-6.236c-3.899-2.593-5.51-2.498-9.169,0.43c-2.298,1.832-4.477,3.885-6.625,5.905
		c-6.135,5.83-13.534,9.484-20.807,13.427c-3.795,2.082-7.838,3.522-11.97,4.708c-11.679,3.301-23.473,6.018-35.667,6.984
		c-19.444,1.506-37.356-3.078-54.156-12.337c-13.211-7.301-23.844-17.411-30.856-30.973c-0.5-0.917-1.031-1.799-1.66-2.64
		c-4.837-6.576-7.859-13.855-8.374-22.063c-0.166-2.893,0.415-3.86,3.248-3.955c0.887-0.038,1.73,0.194,2.53,0.265
		c0.919-0.867,0.278-1.477,0-2.078c-1.893-4.308-1.617-5.416,2.166-8.057c0.469-0.333,1.077-0.547,1.552-0.815
		c3.218-1.839,3.314-1.878,2.372-5.437c-0.515-1.903-0.367-3.367,1.378-4.691c2.083-1.582,3.652-3.853,5.427-5.579
		c2.6-2.548,4.865-6.06,9.412-6.517c3.733-0.361,6.904-2.364,7.469-6.897c0.339-2.829,2.337-4.24,5.1-4.758
		c4.358-0.808,8.69-1.874,13.041-2.749c1.2-0.259,2.334-0.515,3.189-1.374c0.944-1.033,2.085-1.584,3.503-1.601
		c0.921-0.004,1.872-0.112,2.436-0.918c2.102-3.035,5.144-2.518,8.049-2.057c2.14,0.355,3.727,0,5.708-1.244
		c2.987-1.856,6.786-1.791,10.298-1.607c2.982,0.159,5.904-0.042,8.886,0.186c1.828,0.153,3.617-0.154,4.848-1.674
		c1.264-1.551,2.715-1.535,4.383-0.909c1.53,0.572,3.171,0.87,4.609,1.551c2.434,1.161,5.083,1.28,7.6,1.839
		c6.011,1.338,11.999,3.207,17.072,6.863c2.168,1.544,3.36,4.087,4.821,6.314c2.029,3.138,4.274,6.031,7.945,7.451
		c2.52,0.986,3.787,3.23,5.048,5.406c1.982,3.34,4.081,6.537,7.692,8.396c0.517,0.258,1.107,0.64,1.345,1.148
		c1.886,3.81,4.198,7.186,6.965,10.464c1.743,2.038,2.598,4.907,4.858,6.773c0.423,0.362,0.83,0.892,0.971,1.44
		c2.281,7.143,5.532,14.01,6.17,21.647c0.316,4,1.927,7.269,4.261,10.481c5.081,7.085,10.755,13.761,15.123,21.401
		c2.416,4.26,4.323,8.762,6.194,13.23c0.569,1.341,0.782,2.807,2.63,4.081c0.781-5.571,2.497-10.525,3.679-15.632
		c2.951-12.707,5.707-25.392,10.583-37.555c2.612-6.578,4.746-13.375,7.325-19.978c2.65-6.907,5.612-13.674,8.367-20.555
		c4.87-12.229,9.983-24.312,13.252-37.171c1.665-6.468,3.709-12.731,3.936-19.447c0.13-4.595-0.656-6.183-4.972-7.784
		c-6.937-2.619-13.874-5.233-21.201-6.537c-6.892-1.234-12.762-4.531-18.647-8.025c-1.248-0.755-2.217-1.767-1.445-3.25
		c1.175-2.236-0.125-3.223-1.661-4.288c-3.067-2.066-5.898-4.479-8.418-7.182c-1.266-1.385-2.049-2.543,0.056-3.863
		c1.728-1.095,0.537-2.353-0.234-3.382c-1.513-2.023-3.578-3.542-4.877-5.75c-0.801-1.352-1.691-2.604,0.199-3.742
		c1.16-0.719,0.636-1.533,0.024-2.178c-4.712-4.51-6.693-10.783-10.397-15.902c-0.332-0.467-0.702-0.965-1.007-1.468
		C-62.455,1163.607-62.153,1162.826-57.513,1161.039z M-46.253,1189.901c0.732,2.581,2.955,3.985,4.62,5.836
		c1.192,1.325,2.761,2.782,1.488,4.632c-1.568,2.269-0.183,3.509,1.056,4.997c1.246,1.552,2.992,2.368,4.533,3.5
		c2.101,1.548,4.551,2.905,4.508,6.108c0.008,1.354,1.299,1.844,2.336,2.423c3.107,1.734,6.389,3.187,9.742,4.275
		c8.163,2.684,16.351,5.269,24.538,7.854c1.964,0.636,3.898,1.307,5.671,2.455c2.089,1.353,3.091,3.186,2.818,5.584
		c-0.444,4.387-0.685,8.828-1.56,13.219c-0.817,4.257-3.089,8.064-3.744,12.271c-1.186,7.549-4.23,14.487-6.806,21.521
		c-4.125,11.213-9.063,22.16-13.328,33.319c-1.289,3.302-2.578,6.604-3.836,9.87c-1.397,3.573-2.287,7.341-3.824,10.857
		c-2.891,6.826-5.341,13.783-7.078,20.982c-1.491,6.188-2.976,12.376-4.403,18.559c-1.83,8.095-3.835,16.104-3.203,24.533
		c0.114,1.441-0.194,2.951-0.474,4.425c-0.214,1.041-0.665,1.999-2.271,1.732c-0.552-1.939-0.843-3.958-1.135-5.983
		c-0.769-5.119-1.495-10.141-3.373-15.105c-4.624-12.136-11.746-22.493-20.816-31.636c-0.612-0.645-1.486-1.268-1.644-2.013
		c-0.743-3.143-2.977-3.031-5.488-3.098c-11.791-0.151-21.957,5.6-32.819,8.803c-0.678,0.218-1.185,0.886-1.852,1.168
		c-5.046,2.116-9.166,6.305-14.977,6.665c-0.393,0.029-0.939,0.236-1.174,0.587c-1.792,2.385-4.219,1.719-6.549,1.441
		c-2.635-0.352-5.251-0.938-7.879-1.223c-2.23-0.256-4.609-0.262-6.445,1.104c-3.67,2.798-7.345,2.657-11.227,0.692
		c-1.824-0.943-3.796-1.285-5.519-0.126c-2.256,1.499-4.385,1.271-6.777,0.637c-1.688-0.459-3.717-1.521-5.146-0.413
		c-2.708,2.027-4.833,1.009-7.364-0.11c-2.598-1.116-5.18-2.097-7.58-3.653c-1.218-0.793-2.652-1.404-4.02,0.054
		c-1.521,1.637-2.98,0.697-4.259-0.454c-5.287-4.69-12.473-5.873-18.221-9.741c-0.456-0.325-1.122-0.402-1.714-0.423
		c-3.246-0.141-5.504-2.007-7.468-4.291c-2.034-2.344-3.976-4.796-5.912-7.183c-1.211-1.522-2.292-2.688-4.285-0.781
		c-1.291,1.224-2.716,0.678-3.73-0.858c-0.375-0.565-0.668-1.366-1.563-1.395c3.492,7.871,9.792,17.401,14.908,22.869
		c4.071,4.325,8.679,7.954,13.692,11.251c14.197,9.299,29.803,14.365,46.668,15.306c13.291,0.761,26.242-1.884,39.042-5.206
		c5.172-1.333,10.271-2.796,15.144-4.994c10.928-4.857,20.779-11.31,29.138-19.892c1.831-1.862,4.018-2.991,6.24-4.092
		c1.46-0.707,2.747-0.712,4.175,0.199c3.511,2.262,6.956,4.528,9.434,7.929c6.537,8.817,10.1,19.191,13.411,29.354
		c3.008,9.229,4.86,18.878,5.378,28.734c0.59,10.771,1.934,21.519,2.888,32.298c0.59,6.617,1.577,13.267,1.548,19.9
		c-0.052,6.438,0.739,12.674,2.025,18.906c0.534,2.6,1.04,5.23,1.413,7.873c0.84,6.467,1.52,12.909,2.821,19.337
		c2.545,12.995,5.407,25.767,11.623,37.612c0.742,1.425,0.941,3.125,2.033,4.422c0.619,0.711,1.218,1.222,2.268,0.71
		c2.408-1.246,3.631-4.545,2.502-7.158c-0.569-1.341-1.144-2.749-1.902-4.006c-5.199-8.959-7.923-18.803-10.395-28.734
		c-2.542-10.058-2.099-20.257-1.028-30.466c0.966-9.444,3.568-18.229,9.079-26.12c2.49-3.562,4.428-4.538,8.354-2.84
		c4.133,1.814,8.546,2.521,12.933,2.965c9.547,0.99,19.112,1.39,28.718,1.452c1.75,0.027,4.024,0.01,5.097-1.032
		c2.696-2.588,6.043-2.852,9.303-3.738c4.716-1.294,9.473-2.434,14.243-3.437c0.976-0.211,2.459-0.229,2.458-1.451
		c0.068-3.304,2.582-3.236,4.632-3.566c5.405-0.892,10.699-2.367,15.818-4.356c2.208-0.865,4.601-1.518,4.546-4.681
		c0.006-1.157,0.984-1.728,1.895-2.297c2.143-1.291,5-1.848,4.958-5.31c-0.013-0.562,1.188-1.249,1.941-1.704
		c3.793-2.086,6.962-5.004,10.344-7.679c3.229-2.565,6.492-5.1,8.96-8.497c-4.052-2.844-4.075-3.175-0.855-7.091
		c0.838-1.056,1.754-1.985,2.559-3.074c1.166-1.512,3.262-2.964,3.122-4.731c-0.3-3.376,1.95-5.365,3.027-7.995
		c0.84-1.911,1.98-3.751,2.382-5.73c0.589-2.983,1.45-6.282,0.736-9.031c-0.615-2.358-0.439-4.286,0.021-6.401
		c0.359-1.709,1.304-3.534,0.74-5.237c-0.959-2.961-0.396-5.84-0.063-8.736c0.444-3.96,0.688-7.972,1.065-11.929
		c0.187-2.224,0.192-4.235-2.647-4.707c-1.07-0.176-1.432-0.973-1.473-1.927c-0.183-3.152-1.437-6.055-2.039-9.077
		c-0.388-1.98-0.176-4.307-3.243-4.294c-0.428,0.001-1.276-0.724-1.238-1.059c0.262-4.178-2.345-6.279-5.499-8.177
		c-0.449-0.262-0.481-1.083-0.844-1.514c-1.579-2.019-3.212-3.901-6.238-3.367c-2.279,0.378-3.886-0.747-4.163-3.002
		c-0.37-3.007-2.13-3.163-4.405-2.719c-0.879,0.167-1.756,0.335-2.633,0.504c-4.451,0.849-4.993,0.264-3.886-4.046
		c0.048-0.204-0.203-0.48-0.405-0.959c-4.25,0.897-8.788,0.268-12.861,2.539c-1.072,0.612-2.425,0.62-3.271-0.468
		c-1.76-2.236-3.896-1.735-6.085-1.036c-3.539,1.138-7.047,2.241-10.22,4.24c-1.099,0.715-2.76,1.805-3.445,0.24
		c-0.855-2.078-1.764-1.445-2.962-0.755c-8.116,4.568-16.15,9.327-22.961,15.805c-1.198,1.115-2.472,2.537-4.198,1.983
		c-2.604-0.818-4.207,0.626-5.979,1.99c-1.402,1.069-2.734,2.559-4.745,1.761c-1.803-0.744-2.858,0.128-3.82,1.325
		c-2.041,2.54-4.581,4.651-5.989,7.667c-0.537,1.13-1.353,2.087-2.723,1.832c-2.076-0.365-3.085,1.034-3.802,2.443
		c-5.353,10.29-12.616,19.803-13.356,32.07c-0.104,1.625-0.77,3.195-2.537,2.971c-2.402-0.34-2.635,0.868-2.92,2.705
		c-1.308,9.706-2.552,19.401,0.393,29.065c0.444,1.419,0.952,3.256-0.393,4.189c-2.528,1.814-1.842,4.235-1.568,6.426
		c0.637,5.126,1.31,10.286,2.625,15.261c1.195,4.69,1.199,9.702,3.785,14.053c0.718,1.16,0.01,2.206-0.633,3.25
		c-2.829,4.678-5.521,9.411-7.729,14.435c-1.622,3.693-2.672,7.505-3.89,11.293c-0.371,1.153-0.801,2.373-2.291,2.325
		c-1.591-0.069-1.824-1.372-1.822-2.595c0.034-7.919-2.089-15.534-2.772-23.333c-1.027-11.695-1.428-23.406-0.004-35.033
		c1.763-14.821,4.321-29.571,6.48-44.354c1.2-8.211,2.869-16.261,5.271-24.236c2.642-8.688,6.146-16.949,9.742-25.251
		c6.139-14.142,11.392-28.611,16.881-43.001c5.214-13.707,10.059-27.549,12.534-42.064c0.538-3.207,1.206-6.429,1.513-9.65
		c0.179-1.928,0.971-2.718,2.729-3.483c4.528-1.939,8.271-5.106,12.017-8.21c3.656-2.992,7.094-6.234,10.709-9.328
		c6.178-5.306,11.634-11.41,17.519-17.023c1.627-1.547,3.276-3.623,2.506-5.872c-0.899-2.601,0.222-4.272,1.5-6.057
		c1.633-2.274,3.369-4.523,5.179-6.646c1.3-1.522,1.911-2.953,0.485-4.723c-1.278-1.579-0.601-3.02,0.273-4.473
		c0.703-1.112,1.371-2.255,1.937-3.485c0.593-1.267,0.564-2.454-0.392-3.697c-2.569-3.291-2.403-3.273-0.303-6.736
		c2.307-3.779,4.435-7.709,6.642-11.512c0.955-1.691,1.461-3.216-0.501-4.643c-1.052-0.773-1.055-2.062-0.986-3.287
		c0.185-2.652,0.435-5.314,1.424-7.833c1.071-2.754,1.727-5.678,1.718-8.682c0.018-1.88-0.32-3.636-2.292-4.404
		c-3.815-1.543-4.434-4.332-3.339-7.982c0.663-2.063,0.224-3.844-1.901-4.86c-1.54-0.704-2.199-1.937-2.096-3.562
		c0.098-1.689-0.603-3.021-2.188-3.457c-2.736-0.805-3.357-2.802-3.917-5.297c-1.07-5.193-2.404-10.366-3.862-15.462
		c-0.639-2.193-1.425-4.638-4.678-4.478c-1.843,0.077-2.481-1.322-2.706-2.92c-0.386-2.348-1.223-4.59-1.993-6.839
		c-0.727-2.087-1.723-3.425-4.229-2.567c-2.152,0.731-3.351-0.229-4.003-2.254c-0.387-1.124-0.839-2.242-1.446-3.251
		c-0.565-0.909-1.576-1.587-2.665-0.746c-2.332,1.802-3.665,0.358-5.212-1.266c-2.024-2.216-3.388-4.845-5.126-7.249
		c-1.483-2.06-3.186-3.573-5.975-2.1c-1.647,0.855-3.141,0.316-4.6-0.623c-1.254-0.824-2.441-1.656-3.633-2.551
		c-0.917-0.72-1.561-0.965-2.525,0.169c-1.937,2.198-2.206,2.153-3.92,0.081c-1.602-1.916-2.96-4.055-4.471-6.078
		c-1.807-2.396-4.06-3.341-6.057-1.928c-4.318,2.979-9.55,3.956-14.06,6.59c-1.134,0.683-2.025,0.653-3.22-0.242
		c-2.379-1.723-2.398-1.555-4.002,0.682c-3.801,5.317-7.364,10.713-10.196,16.611c-1.188,2.47-3.346,3.992-6.034,3.777
		c-2.19-0.155-2.927,0.927-3.532,2.489c-0.439,1.091-0.982,2.157-1.287,3.304c-0.522,1.754-1.352,2.941-3.408,2.777
		c-1.429-0.115-2.183,0.769-2.583,1.952c-2.562,7.23-5.592,14.365-4.333,22.349c-0.514,0.172-0.891,0.402-1.286,0.431
		c-3.51,0.243-3.766,0.331-4.334,3.575c-0.463,2.477-0.594,4.994-0.791,7.52c-0.126,1.725-0.552,3.013-2.636,2.518
		c-1.076-0.244-1.719-0.061-1.788,1.164c-0.62,7.967-1.709,15.902,0.502,23.843c0.331,1.261,1.199,2.611,0.67,3.872
		c-1.095,2.428-0.227,4.637,0.254,6.942c0.226,1.167,0.61,2.292,0.209,3.478c-0.646,1.835,0.107,3.457,0.737,5.157
		c1.706,4.448,4.202,8.475,6.763,12.493c2.561,4.021,2.154,4.711-2.646,5.321c-0.229,0.05-0.398,0.396-0.765,0.755
		c2.583,5.566,5.392,11.02,10.059,15.365C-42.544,1185.912-42.674,1186.781-46.253,1189.901z M-240.125,1325.637
		c1.756,5.107,5.881,8.438,7.833,13.103c0.366,0.862,1.252,1.252,2.245,0.878c3.402-1.192,5.284,0.902,7.051,3.201
		c0.809,1.057,1.493,2.188,2.369,3.243c2.986,3.525,5.999,7.011,11.049,7.469c1.827,0.154,3.271,1.327,4.768,2.297
		c1.602,1.059,3.106,2.161,5.247,2.091c1.512-0.057,2.723,1.038,3.884,1.969c1.271,1.021,2.539,2.043,3.835,3.029
		c0.846,0.658,1.815,1.236,2.806,0.437c2.171-1.755,3.998-0.383,5.694,0.638c2.8,1.66,5.634,3.217,8.692,4.36
		c1.121,0.404,2.297,1.106,3.344,0.165c1.877-1.7,3.842-1.063,5.861-0.565c2.726,0.675,5.431,1.518,8-0.636
		c1.208-0.986,2.813-0.715,4.271-0.207c1.121,0.405,2.271,0.781,3.301,1.292c2.752,1.43,5.352,1.321,7.984-0.402
		c3.021-1.889,6.346-2.353,9.836-1.637c2.043,0.397,4.05,0.768,6.121,1.065c1.035,0.15,2.614,0.52,2.973,0.029
		c2.707-3.314,7.671-1.035,10.247-4.34c7.72-3.315,15.244-7.047,23.282-9.664c5.918-1.922,11.755-4.032,17.984-4.527
		c6.521-0.55,6.683-0.596,5.739-7.082c-0.157-1.177-0.449-2.34-0.61-3.515c-1.2-9.34-6.864-16.74-10.841-24.839
		c-0.161-0.383-0.489-0.787-0.868-0.985c-3-1.644-4.087-4.526-4.921-7.561c-0.28-1.032-0.697-2.122-1.739-2.401
		c-4.649-1.217-6.216-5.182-8.093-8.859c-1.019-2.031-2.355-3.904-4.556-4.619c-3.12-1.075-5.279-3.345-7.157-5.804
		c-2.143-2.865-4.455-5.452-6.934-7.991c-4.062-4.199-9.613-4.719-14.589-6.334c-2.201-0.715-4.823-0.509-7.096-1.717
		c-1.309-0.686-2.732-1.17-4.094-1.72c-1.019-0.382-2.187-0.519-2.871,0.428c-1.701,2.276-4.025,2.067-6.441,1.962
		c-3.107-0.082-6.22-0.23-9.307-0.054c-3.051,0.209-6.34-0.091-9.058,1.444c-1.545,0.879-2.746,1.141-4.464,1.079
		c-3.149-0.177-6.799-1.704-8.983,2.362c-0.262,0.449-1.345,0.5-2.028,0.653c-0.876,0.168-1.982-0.039-2.515,0.728
		c-1.69,2.41-4.343,2.224-6.778,2.713c-3.761,0.826-7.483,1.748-11.288,2.416c-2.537,0.465-4.252,1.752-4.177,4.32
		c0.067,2.93-1.678,4.191-3.901,5.289c-1.843,0.938-3.667,2.004-5.712,2.467c-1.359,0.305-2.237,1.33-3.338,1.98
		c-3.119,1.863-4.139,5.639-7.291,7.473c-2.37,1.344-3.299,3.362-2.065,6.004c0.795,1.719,0.026,2.835-1.249,3.825
		c-0.715,0.552-1.542,0.947-2.156,1.521c-1.31,1.392-3.516,1.83-4.324,3.711c-0.977,2.221,1.198,3.469,1.856,5.127
		c1.157,2.946,0.061,4.517-3.218,4.346C-237.619,1325.207-238.745,1324.735-240.125,1325.637z"/>
	<path fill="#71B0BA" d="M21.314,1213.741c0.492-4.227-0.048-8.538-1.082-12.843c-2.798-11.984-5.783-23.889-8.389-35.889
		c-2.85-13.496-3.775-27.246-4.699-40.994c-0.579-8.562-0.8-17.188-2.229-25.618c-1.633-9.771-3.817-19.456-7.229-28.789
		c-2.95-8.079-4.544-16.53-6.878-24.758c-0.412-1.45-0.519-3.191,0.559-4.598c1.605,0.271,1.502,1.465,1.707,2.371
		c1.904,8.229,3.519,16.514,6.393,24.466c2.62,7.248,4.719,14.602,6.24,22.136c1.846,9.158,2.745,18.421,3.354,27.744
		c1.207,18.575,1.961,37.252,6.891,55.337c2.697,9.879,4.385,19.941,7.044,29.79c1.45,5.394,1.312,11.144,1.199,16.794
		c-0.073,3.24-0.409,6.498-0.647,9.719c-0.063,0.862-0.102,2.053-1.338,1.854c-1.171-0.203-0.8-1.356-0.768-2.183
		c0.168-2.487,0.297-5.005,0.492-7.527c0.186-2.227-0.423-3.664-2.7-4.933c-6.998-3.829-14.398-6.049-22.235-7.11
		c-12.303-1.633-23.192-6.707-32.911-14.447c-0.318-0.27-0.516-0.684-0.82-1.188c1.491-1.174,2.629-0.141,3.513,0.613
		c7.23,5.925,15.603,9.582,24.533,11.944c4.448,1.163,8.984,1.796,13.504,2.657c5.128,1.014,9.931,2.91,14.54,5.312
		C19.873,1213.856,20.362,1214.213,21.314,1213.741z"/>
	<path fill="#71B0BA" d="M-7.991,1460.476c0.803-3.596,2.92-6.436,5.155-9.053c8.518-9.912,15.634-20.835,23.177-31.394
		c4.364-6.118,8.971-12.092,13.365-18.246c6.979-9.757,14.205-19.301,21.677-28.701c4.708-5.949,10.239-11.071,15.659-16.348
		c7.536-7.329,15.183-14.496,23.399-21.12c4.278-3.44,8.635-6.755,13.629-9.096c0.922-0.438,1.921-0.747,2.925-0.991
		c0.387-0.096,0.916-0.071,1.155,0.438c0.349,0.663,0.022,1.118-0.476,1.488c-0.343,0.258-0.714,0.55-1.098,0.713
		c-7.616,2.978-13.255,8.806-19.566,13.688c-8.079,6.251-15.033,13.829-22.539,20.689c-7.26,6.646-12.861,14.646-19.028,22.16
		c-9.417,11.467-16.986,24.205-26.403,35.673c-5.412,6.629-9.525,14.244-14.727,21.059c-1.522,2.001-1.112,3.452,1.022,3.315
		c5.316-0.354,10.071,2.235,15.259,2.321c14.365,0.214,28.709,0.959,42.678-3.449c0.389-0.097,0.827,0.033,1.424,0.052
		c-0.441,1.949-2.146,2.08-3.436,2.448c-7.845,2.174-15.819,3.925-24.049,3.323c-3.681-0.269-7.41-0.273-11.066,0.216
		c-3.59,0.481-7.163-0.058-10.608-0.677c-4.052-0.768-8.16-1.398-12.209-2.1c-2.477-0.461-3.909,0.211-5.356,1.909
		c-1.933,2.266-3.766,4.554-5.413,7.06C-4.586,1457.633-5.865,1459.416-7.991,1460.476z"/>
	<path fill="#71B0BA" d="M25.592,1431.786c24.4,1.929,47.889,2.343,71.092-3.356c0.324,1.197-0.791,1.282-1.484,1.669
		c-5.352,2.831-11.233,3.926-17.119,4.161c-15.491,0.602-30.988,2.354-46.514,0.421
		C28.531,1434.292,28.541,1434.423,25.592,1431.786z"/>
	<path fill="#71B0BA" d="M114.404,1406.87c-1.225,2.438-3.471,3.212-5.661,3.912c-6.944,2.266-14.122,3.296-21.4,3.444
		c-8.893,0.177-17.673,1.366-26.487,2.1c-5.174,0.475-10.328,0.786-15.458-0.229c-1.141-0.238-2.309-0.443-3.432-0.852
		c-0.714-0.239-1.281-0.786-0.931-1.707c0.278-0.683,0.942-0.602,1.513-0.482c12.352,3.081,24.716,0.548,37.019-0.328
		c6.168-0.422,12.383-0.684,18.54-1.664c5.114-0.835,10.194-1.633,14.608-4.654C113.127,1406.145,113.524,1406.18,114.404,1406.87z"
		/>
	<path fill="#71B0BA" d="M124.331,1380.188c-1.825,2.784-4.139,3.562-6.522,4.279c-4.416,1.305-8.857,2.284-13.431,2.846
		c-10.722,1.245-21.255,3.629-32.031,4.583c-3.832,0.335-7.644,0.509-11.514,0.386c-0.857,0.002-2.009,0.061-1.91-1.202
		c0.068-0.797,0.976-1.004,1.767-0.998c1.025,0.018,2.091,0.132,3.108,0.083c17.87-0.953,35.554-3.408,53.021-7.4
		C119.214,1382.241,121.183,1380.437,124.331,1380.188z"/>
	<path fill="#71B0BA" d="M56.023,1091.378c-0.577,3.975-2.134,7.228-4.308,9.774c-5.982,6.939-10.978,14.659-17.554,21.15
		c-6.459,6.349-12.381,13.22-15.104,22.145c-0.215,0.61-0.648,0.975-1.498,1.042c-1.241-1.914-0.13-3.718,0.705-5.269
		c3.166-6.221,7.353-11.699,12.229-16.77c8.625-8.963,17.146-18.018,22.814-29.318c0.31-0.652,0.723-1.279,1.17-1.875
		C54.719,1091.977,55.202,1091.838,56.023,1091.378z"/>
	<path fill="#71B0BA" d="M5.83,1163.178c-3.891,1.265-7.602,0.241-11.186-0.861c-13.57-4.303-26.104-10.963-38.349-18.109
		c-2.042-1.189-3.905-2.658-5.252-4.664c-0.305-0.504-0.614-1.072-0.126-1.576c0.481-0.565,1.068-0.25,1.584,0.006
		c0.379,0.202,0.762,0.469,1.052,0.776c5.294,5.617,12.092,8.97,18.818,12.265c7.521,3.727,15.272,7.037,23.327,9.632
		C-0.982,1161.707,2.528,1161.89,5.83,1163.178z"/>
	<path fill="#71B0BA" d="M60.721,1109.443c-0.323,2.6-1.684,3.762-2.939,4.952c-9.675,9.046-17.196,19.867-24.446,30.802
		c-3.774,5.644-6.409,11.955-8.806,18.346c-0.295,0.85-0.562,1.66-0.992,2.454c-0.17,0.345-0.739,0.653-1.041,0.579
		c-0.672-0.146-0.827-0.827-0.674-1.43c0.229-0.844,0.562-1.662,0.892-2.48c3.384-8.055,7.363-15.727,12.159-23.066
		c3.74-5.676,8.039-10.931,12.164-16.336c3.556-4.669,7.953-8.746,11.931-13.052C59.273,1109.923,59.762,1109.852,60.721,1109.443z"
		/>
	<path fill="#71B0BA" d="M15.677,1416.968c-0.837,0.265-1.409,0.144-1.505-0.242c-2.982-9.761-5.162-19.747-6.521-29.833
		c-1.028-7.604-1.542-15.314-0.731-23c0.085-0.6,0.478-1.062,1.603-1.017c0.494,9.165-0.322,18.433,1.394,27.601
		C11.546,1399.383,14.083,1408.088,15.677,1416.968z"/>
	<path fill="#71B0BA" d="M4.778,1186.123c-5.428-0.658-9.839-3.872-14.805-5.721c-5.781-2.183-11.516-4.627-17.352-6.674
		c-5.873-2.077-11.259-5.143-16.594-8.35c-0.622-0.348-1.217-0.794-1.165-1.789c1.425-0.739,2.564,0.295,3.569,0.904
		c9.289,5.664,19.553,9.041,29.502,13.071c3.545,1.435,7.125,2.899,10.647,4.436C0.84,1183.068,3.017,1184.315,4.778,1186.123
		L4.778,1186.123z"/>
	<path fill="#71B0BA" d="M44.002,1074.152c-0.428,2.936-1.592,5.307-3.344,7.357c-9.04,10.381-17.344,21.332-24.141,33.384
		c-0.146,0.242-0.321,0.521-0.503,0.733c-0.356,0.49-0.884,0.896-1.465,0.645c-0.646-0.246-0.698-0.9-0.447-1.48
		c0.331-0.819,0.627-1.666,1.131-2.398c6.088-8.928,12.006-17.939,18.938-26.206c2.833-3.394,5.837-6.698,7.725-10.772
		C42.132,1074.696,42.54,1074.005,44.002,1074.152z"/>
	<path fill="#71B0BA" d="M-3.823,1135.442c-2.966-2.041-5.57-3.715-8.092-5.56c-6.415-4.738-13.292-8.712-20.262-12.58
		c-4.143-2.31-8.7-3.631-13.1-5.43c-0.952-0.386-1.909-0.773-2.836-1.262c-0.515-0.255-1.088-0.805-0.871-1.414
		c0.291-0.912,1.098-0.714,1.847-0.443c5.016,1.716,10.008,3.528,14.642,6.196c9.093,5.252,18.118,10.507,26.332,17.146
		C-5.247,1132.881-3.979,1133.474-3.823,1135.442z"/>
	<path fill="#71B0BA" d="M51.916,1374.708c-1.521-0.871-1.229-2.211-1.344-3.227c-1.272-11.047-1.424-22.12-0.087-33.146
		c0.511-4.393,1.251-8.776,1.929-13.148c0.129-0.867,0.308-1.938,1.482-1.668c0.912,0.226,0.663,1.234,0.646,1.894
		c-0.019,0.595-0.103,1.195-0.222,1.767c-3.161,13.808-3.604,27.795-2.226,41.873C52.301,1370.82,52.714,1372.698,51.916,1374.708z"
		/>
	<path fill="#71B0BA" d="M-41.52,1089.34c3.396,2.898,5.851,5.175,8.521,7.209c8.611,6.673,17.343,13.208,25.983,19.844
		c0.844,0.662,2.774,1.268,2.005,2.382c-1.128,1.608-2.297-0.246-3.145-0.968c-9.168-7.887-19.563-14.188-28.914-21.855
		C-38.937,1094.48-40.9,1092.988-41.52,1089.34z"/>
	<path fill="#71B0BA" d="M61.226,1360.645c-1.229-1.356-0.62-2.854-0.397-4.19c2.153-12.41,5.111-24.616,9.926-36.282
		c0.556-1.298,0.439-4.027,2.614-3.208c1.464,0.577-0.023,2.608-0.486,3.865c-2.517,6.963-5.241,13.808-7.144,20.987
		c-1.351,5.022-2.237,10.071-3.184,15.197C62.321,1358.217,62.733,1359.667,61.226,1360.645z"/>
	<path fill="#71B0BA" d="M88.495,1366.302c4.701-3.936,10.731-5.271,15.763-8.374c5.032-3.104,10.691-3.717,16.053-5.563
		C110.619,1359.072,99.638,1362.91,88.495,1366.302z"/>
	<path fill="#71B0BA" d="M34.113,1057.584c-0.629,2.889-2.188,4.858-3.617,6.819c-1.725,2.383-3.619,4.676-5.559,6.874
		c-5.63,6.384-10.224,13.346-12.536,21.645c-0.152,0.539-0.405,1.121-0.662,1.635c-0.285,0.552-0.855,0.861-1.465,0.645
		c-0.612-0.215-0.891-0.82-0.805-1.42c0.12-0.57,0.341-1.117,0.561-1.661c3.372-8.251,8.09-15.716,13.815-22.569
		c2.739-3.289,5.589-6.48,7.7-10.243C31.88,1058.553,32.343,1057.725,34.113,1057.584z"/>
	<path fill="#71B0BA" d="M-1.147,1383.232c-0.172,6.581,1.023,12.061,2.378,17.495c1.616,6.273,3.074,12.588,5.404,18.67
		c0.785,2.017,1.976,4.134,0.838,7.257c-1.525-2.584-1.968-4.856-2.472-7.062c-0.545-2.298-1.281-4.517-2.184-6.753
		c-3.119-7.736-5.041-15.731-5.833-24.051C-3.151,1387.088-3.623,1385.279-1.147,1383.232z"/>
	<path fill="#71B0BA" d="M58.672,1164.369c-4.105,4.811-8.176,9.65-12.316,14.434c-3.203,3.684-6.552,7.247-9.864,10.838
		c-0.79,0.855-1.717,1.654-2.725,2.262c-0.941,0.602-2.166,0.536-2.744-0.51c-0.66-1.234,0.693-1.241,1.354-1.656
		c3.425-2.15,5.874-5.379,8.616-8.237c4.473-4.741,8.664-9.726,12.962-14.618C55.168,1165.535,56.28,1164.16,58.672,1164.369z"/>
	<path fill="#71B0BA" d="M63.852,1137.305c-12.392,14.31-25.616,26.867-36.669,41.402c-1.295-1.348-0.423-2.012,0.055-2.643
		c7.257-9.149,15.111-17.858,23.111-26.375c3.138-3.315,6.158-6.791,9.322-10.141C60.496,1138.656,61.042,1137.229,63.852,1137.305z
		"/>
	<path fill="#71B0BA" d="M39.277,1379.636c-2.104-1.979-1.936-3.608-2.11-4.979c-1.219-9.535-1.978-19.106-1.453-28.749
		c0.156-2.618,0.156-2.618,2.603-5.056C36.851,1354.031,37.965,1366.413,39.277,1379.636z"/>
	<path fill="#71B0BA" d="M-28.044,1189.052c3.912,0.646,6.795,2.497,9.889,3.671c7.446,2.807,14.819,5.918,22.153,8.933
		c1.262,0.528,2.509,0.858,3.84,1.015c0.602,0.085,1.271,0.23,1.169,0.997c-0.089,0.964-0.937,1.097-1.672,0.958
		c-1.006-0.186-2.021-0.5-2.914-0.957c-8.949-4.271-18.45-7.183-27.612-10.842C-25.031,1192.112-26.647,1191.283-28.044,1189.052z"
		/>
	<path fill="#71B0BA" d="M26.371,1378.712c-2.727-2.327-2.266-5.725-2.502-8.678c-0.663-8.391-1.134-16.801-0.349-25.239
		c0.099-1.263,0.155-2.62,2.033-3.887c0.69,4.56-0.577,8.555-0.421,12.6c0.143,4.279-0.146,8.557,0.227,12.848
		C25.685,1370.486,26.042,1374.582,26.371,1378.712L26.371,1378.712z"/>
	<path fill="#71B0BA" d="M-5.41,1105.844c-12.464-5.742-20.948-16.223-30.939-24.929c1.484-1.67,2.238-0.476,2.911,0.1
		c3.927,3.349,7.829,6.801,11.058,10.899c2.682,3.449,5.931,6.16,9.519,8.549C-10.292,1102.106-7.896,1104.029-5.41,1105.844z"/>
	<path fill="#71B0BA" d="M76.994,1379.782c10.643-3.514,21.618-5.703,31.917-10.184
		C105.444,1373.734,83.15,1380.877,76.994,1379.782z"/>
	<path fill="#71B0BA" d="M-31.411,1137.824c2.851,0.17,24.577,11.678,27.149,14.178c-4.016,0.12-6.522-2.385-9.392-3.61
		c-3.246-1.425-6.352-3.157-9.37-4.999C-25.893,1141.676-29.005,1140.304-31.411,1137.824z"/>
	<path fill="#71B0BA" d="M54.116,1190.131c-4.786,7.471-11.031,13.576-17.562,19.436c-1.048,0.943-2.226,1.893-4.769,1.434
		C39.876,1204.024,46.731,1196.851,54.116,1190.131z"/>
	<path fill="#71B0BA" d="M75.885,1345.825c-0.847-0.726-0.512-1.479-0.332-2.117c1.948-6.651,3.894-13.307,6.619-19.724
		c0.33-0.818,0.762-1.612,1.229-2.372c0.764-1.182,1.546-3.392,2.965-2.542c1.87,1.103-0.325,2.532-0.935,3.605
		c-3.593,5.859-5.104,12.578-7.577,18.844C77.211,1342.982,77.042,1344.609,75.885,1345.825z"/>
	<path fill="#71B0BA" d="M-12.182,1081.971c-1.378,0.109-2.027-0.996-2.714-1.765c-4.294-4.643-8.339-9.504-12.08-14.647
		c-0.075-0.126-0.18-0.215-0.258-0.344c-0.465-0.886-1.446-2.027-0.313-2.712c1.163-0.719,1.669,0.691,2.167,1.544
		c3.422,5.733,8.308,10.326,12.163,15.694C-12.737,1080.396-11.717,1080.775-12.182,1081.971z"/>
	<path fill="#71B0BA" d="M6.452,1073.598c0.636-9.055,6.516-15.592,11.019-23.305c0.136,3.416,0.139,3.85-5.09,11.979
		C10.031,1065.893,9.56,1070.383,6.452,1073.598z"/>
	<path fill="#71B0BA" d="M79.98,1402.075c-2.021,1.15-14.426,3.651-18.215,3.72c-2.041,0.029-2.041,0.029-4.318-1.242
		C59.197,1403.724,77.871,1401.683,79.98,1402.075z"/>
	<path fill="#71B0BA" d="M-1.237,1429.557c-1.745-1.608-2.101-3.198-2.581-4.708c-1.181-3.634-2.358-7.271-3.568-10.869
		c-0.649-1.96-1.17-3.932-0.972-6.027c0.055-0.563,0.297-1.208,1.027-1.201c0.726,0.007,0.904,0.587,0.922,1.215
		c0.189,5.724,2.637,10.81,4.277,16.121C-1.644,1425.663-0.567,1427.194-1.237,1429.557z"/>
	<path fill="#71B0BA" d="M26.304,1378.718c1.554,1.691,1.04,3.94,1.653,5.873c1.411,4.506,2.729,9.055,4.114,13.595
		c0.274,0.968,0.842,1.877,0.427,2.87c-1.55,0.451-1.51-0.736-1.799-1.476c-2.216-5.497-3.083-11.434-4.816-17.068
		c-0.437-1.35-0.207-2.621,0.521-3.835C26.371,1378.712,26.304,1378.718,26.304,1378.718z"/>
	<path fill="#71B0BA" d="M2.452,1058.082c-0.53-2.959,0.785-5.504,1.163-8.24c0.277-1.901,0.59-3.773,0.868-5.676
		c0.128-0.867,0.035-2.047,1.19-2.041c1.454,0.02,1.37,1.477,1.278,2.375c-0.269,2.035-0.77,4.049-1.138,6.061
		C5.275,1053.337,4.251,1055.827,2.452,1058.082z"/>
	<path fill="#71B0BA" d="M4.782,1186.188c0.866,0.128,1.757,0.091,2.638,1.207C6.073,1187.472,5.449,1186.695,4.782,1186.188
		C4.778,1186.123,4.782,1186.188,4.782,1186.188z"/>
	<path fill="#71B0BA" d="M-68.534,1345.854c-6.351-1.871-12.733-2.917-19.217-3.128c-0.89-0.03-1.76-0.158-2.653-0.185
		c-15.354,0.227-30.696,1.442-46.108,0.946c-3.209-0.108-5.769,2.108-8.658,3.127c-1.64,0.558-3.063,1.727-5.411,1.253
		c1.804-3.048,5.412-2.476,7.535-4.82c-8.196-1.001-16.192-2.017-24.187-2.966c-14.115-1.651-28.11-3.809-42.061-6.663
		c-5.53-1.11-10.802-3.103-15.933-5.4c-0.546-0.221-1.126-0.472-1.094-1.299c0.995-1.169,2.109-0.4,3.133-0.021
		c15.839,6.301,32.691,7.901,49.35,10.376c9.515,1.454,19.083,2.282,28.605,3.374c11.151,1.261,22.384,1.065,33.632,0.636
		c11.641-0.463,23.347-1.356,34.958,0.726C-73.557,1342.426-70.826,1343.593-68.534,1345.854z"/>
	<path fill="#71B0BA" d="M-175.848,1332.486c-3.888-2.035-6.707-5.111-9.094-8.617c-5.223-7.638-12.367-14.098-14.948-23.395
		C-192.759,1311.822-184.544,1322.257-175.848,1332.486z"/>
	<path fill="#71B0BA" d="M-129.978,1333.964c-8.617-10.106-13.862-22.16-19.355-34.061
		C-142.232,1310.854-136.641,1322.715-129.978,1333.964z"/>
	<path fill="#71B0BA" d="M-170.13,1302.641c3.038,5.465,5.736,11.19,9.211,16.355c3.4,5.044,7.553,9.565,11.759,14.738
		C-155.294,1332.109-167.988,1313.455-170.13,1302.641z"/>
	<path fill="#71B0BA" d="M-196.45,1328.543c-8.269-5.714-13-14.211-17.729-22.711
		C-208.117,1313.268-202.922,1321.369-196.45,1328.543z"/>
	<path fill="#71B0BA" d="M-177.941,1313.584c4.626,6.759,10.889,12.102,16.307,18.436c-1.904,0.941-2.655-0.186-3.349-1.021
		C-169.802,1325.54-175.521,1320.783-177.941,1313.584z"/>
	<path fill="#71B0BA" d="M-109.758,1334.77c-3.478-3.09-8.109-16.576-7.592-21.7C-114.895,1320.3-112.121,1327.436-109.758,1334.77z
		"/>
	<path fill="#71B0BA" d="M-184.194,1340.406c-6.967,2.796-13.646,6.392-21.292,7.327c1.39-2.849,4.408-2.23,6.641-3.197
		c2.297-0.972,4.673-1.82,7.051-2.606C-189.317,1341.107-186.935,1339.961-184.194,1340.406z"/>
	<path fill="#71B0BA" d="M-99.136,1316.016c0.44,6.003,2.105,11.576,5.521,16.815
		C-98.101,1331.999-101.266,1322.451-99.136,1316.016z"/>
	<path fill="#71B0BA" d="M-81.81,1319.854c1.721,4.647,3.501,9.226,5.188,13.844c0.295,0.8,0.447,1.911-0.828,2.045
		c-0.883,0.104-1.118-0.769-1.239-1.485c-0.788-4.524-2.411-8.784-3.776-13.127C-82.666,1320.717-82.667,1320.284-81.81,1319.854z"
		/>
	<path fill="#71B0BA" d="M-165.75,1348.377c2.782-3.62,7.072-3.629,10.868-4.854
		C-157.956,1346.407-161.634,1347.854-165.75,1348.377z"/>
</g>
</svg>
