<?xml version="1.0" encoding="utf-8"?>
<!-- Generator: Adobe Illustrator 15.1.0, SVG Export Plug-In . SVG Version: 6.00 Build 0)  -->
<!DOCTYPE svg PUBLIC "-//W3C//DTD SVG 1.1//EN" "http://www.w3.org/Graphics/SVG/1.1/DTD/svg11.dtd">
<svg version="1.1" id="Calque_1" xmlns="http://www.w3.org/2000/svg" xmlns:xlink="http://www.w3.org/1999/xlink" x="0px" y="0px"
	 width="1900px" height="1600px" viewBox="0 0 1900 1600" enable-background="new 0 0 1900 1600" xml:space="preserve">
<g>
	<path fill="#71B0BA" d="M278.479,780.975c2.884-5.497,4.543-11.53,5.574-17.628c0.798-4.759,1.521-10.666,0.494-15.415
		c-0.731-3.38-1.843-6.621-3.309-9.75c-0.697-1.514-0.919-3.334-1.482-4.926c3.907-3.958,3.744-11.298,3.038-16.376
		c-0.987-6.977-3.242-14.933-8.72-19.797c-0.02-0.079-0.04-0.157-0.071-0.246c-1.485-3.738-1.332-7.483-2.108-11.353
		c-0.805-4.006-1.887-8.123-3.352-11.946c-2.024-5.281-6.515-8.577-10.651-12.167c-9.365-8.134-18.317-28.709-34.014-23.91
		c-0.353,0.109-0.578,0.308-0.703,0.54c-3.41,0.653-6.896,4.344-8.993,6.399c-6.806,6.681-12.541,14.553-18.308,22.124
		c-4.358,5.721-9.052,11.071-13.787,16.43c4.53-6.867,8.789-13.949,13.226-20.599c4.5-6.739,9.429-13.187,13.866-19.967
		c3.253-4.985,7.205-11.151,6.845-17.37c-0.125-2.061-1.224-4.104-2.957-5.24c-1.191-0.778-2.409-1.182-3.8-1.425
		c-1.064-0.181-3.583,0.441-4.332-0.129c-0.245-0.184-0.498-0.186-0.702-0.085c-1.721-2.404-3.045-6.088-5.496-7.758
		c-3.748-2.544-8.38-3.602-11.951-6.336c-3-2.296-3.556-4.462-7.702-5c-1.425-0.189-2.945,0.035-4.37,0.119
		c-2.937,0.171-5.475-1.227-8.029-2.463c-3.126-1.517-5.966-2.421-9.452-2.444c-2.988-0.018-9.205,3.345-11.451,1.078
		c-1.376-1.399-3.062-0.607-4.754-0.066c-2.328,0.738-4.698,2.469-7.32,1.467c-1.938-0.742-3.665-1.261-5.75-1.612
		c-7.9-1.341-13.943-0.768-21.293,2.688c-4.639,2.177-8.764,4.073-13.956,4.351c-3.214,0.174-6.125,0.358-9.194,1.385
		c-5.04,1.68-9.443,6.292-13.37,9.646c-3.767,3.22-8.159,6.899-5.893,12.302c0.209,0.49,0.724,0.619,1.099,0.444
		c0.55,5.994,3.388,11.659,6.924,16.917c6.752,10.036,15.484,18.958,23.52,27.949c9.73,10.88,19.174,21.952,26.575,34.586
		c2.925,4.989,5.726,10.204,7.472,15.74c1.147,3.635,1.242,7.367,0.861,11.083c-0.833,2.243-2.063,4.396-3.042,6.173
		c-3.505,6.421-7.957,12.354-12.434,18.127c-11.302,14.576-24.134,28.019-37.098,41.121c-15.597,15.76-31.699,30.963-47.136,46.916
		c-8.869,9.169-17.803,18.286-27.063,27.069c-9.07,8.596-18.829,16.341-28.269,24.492c-0.541-0.031-1.075,0.251-1.164,0.918
		c-0.004,0.027-0.005,0.061-0.01,0.09c-0.229,0.199-0.462,0.396-0.689,0.596c-0.469,0.406,0.092,1.039,0.594,0.904
		c0.02,3.388,1.824,5.782,6.062,4.828c4.707-1.062,9.881-5.511,13.649-8.51c19.087-15.201,34.952-34.312,51.973-51.668
		c18.544-18.904,37.29-37.576,55.226-57.068c8.692-9.445,17.183-19.068,25.394-28.931c2.986-3.584,5.748-7.4,9.149-10.612
		c2.549-2.422,6.551-4.235,10.245-5.532c7.958-0.469,16.399,2.805,23.227,5.962c13.189,6.097,25.282,14.557,37.413,22.474
		c11.843,7.723,23.946,15.654,37.289,20.541c5.176,1.902,10.412,3.086,15.919,3.182c2.44,0.038,4.862-0.324,7.218-0.901
		c0.493-0.122,0.942-0.271,1.356-0.437c0.207,0.09,0.436,0.119,0.651,0.062C273.981,790.712,276.354,785.022,278.479,780.975z
		 M238.671,783.589c-13.295-6.254-25.461-14.779-37.744-22.768c-16.1-10.479-43.173-31.078-62.711-18.584
		c-2.372,0.987-4.595,2.411-6.748,4.723c-7.488,8.048-14.1,17.011-21.354,25.28c-16.135,18.396-33.197,35.952-50.208,53.529
		c-16.817,17.377-33.3,35.097-50.614,51.983c-6.405,6.246-12.882,12.709-20.215,17.867c-2.508,1.764-11.785,7.754-12.212,1.598
		c0.003-0.007-0.001-0.016-0.005-0.025c10.131-6.203,19.003-14.23,27.73-22.275c10.381-9.562,20.183-19.716,29.992-29.849
		c15.95-16.474,32.672-32.126,48.741-48.477c13.385-13.623,26.407-27.822,37.798-43.174c4.415-5.944,14.512-18.191,11.943-26.83
		c-0.081-4.074-1.125-8.158-2.955-12.303c-5.445-12.328-13.513-23.416-22.078-33.729c-9.059-10.917-18.827-21.223-27.826-32.193
		c-7-8.538-12.76-17.463-13.022-28.538c1.814-3.259,5.195-5.667,8.755-7.49c4.581-2.347,7.226-5.695,11.736-6.963
		c0.61,2.961,2.935,6.164,4.257,8.64c3.078,5.795,6.245,11.478,8.613,17.617c4.202,10.924,6.255,22.612,10.329,33.611
		c6.994,18.898,20.934,36.571,23.133,56.985c0.004,0.016,0.024,0.017,0.03,0.001c-1.441-19.652-12.258-36.308-19.487-54.209
		c-4.349-10.765-6.713-22.526-9.904-33.677c-1.56-5.451-4.13-10.592-6.752-15.593c-1.4-2.665-2.871-5.302-4.304-7.953
		c-0.88-1.634-2.588-3.922-3.072-5.9c0.332-0.019,0.673-0.041,1.027-0.042c6.186,0.004,10.912-1.445,16.141-3.666
		c0.136,10.184,6.55,19.521,8.393,29.463c2.371,12.807,6.144,25.424,10.085,37.817c0.079,0.231,0.409,0.118,0.354-0.109
		c-2.624-11.761-6.551-23.192-8.995-35.004c-1.073-5.189-1.601-10.068-3.357-15.117c-2.04-5.862-4.266-11.857-3.97-18.154
		c0,0,0,0,0-0.003c0.319-0.144,0.638-0.289,0.965-0.437c7.83-3.578,16.155-4.077,24.156-0.791c1.394,0.572,3.75-0.538,4.993-0.99
		c1.318-0.471,3.106-1.721,4.057-0.289c0.324,0.477,0.67,0.94,1.244,1.095c2.02,0.542,4.983-0.658,6.902-1.126
		c5.545-1.355,9.554-0.544,14.512,1.905c2.55,1.263,4.961,2.085,7.814,2.096c1.769,0.009,3.303-0.19,5.103,0.058
		c2.249,0.313,4.398,3.694,6.228,5.112c0.3,0.24,0.62,0.464,0.947,0.682c-4.561,8.93-7.433,17.743-10.422,27.266
		c-3.388,10.794-7.237,21.416-10.958,32.094c-3.165,9.078-5.402,18.411-8.689,27.469c-3.489,9.593-7.929,18.161-13.429,26.721
		c-0.034,0.062,0.059,0.112,0.106,0.067c6.201-6.113,9.771-15.126,12.966-23.049c3.784-9.372,6.777-18.911,11.171-28.034
		c4.487-9.319,8.175-19.15,11.371-28.983c1.728-5.298,3.161-10.709,4.289-16.167c1.154-5.598,3.856-10.767,6.377-15.857
		c1.684,0.807,3.444,1.521,5.016,2.274c3.784,1.823,5.275,5.553,8.358,8.09c0.289,0.236,0.663,0.187,0.923,0.004
		c1.406,1.293,4.785,1.133,6.592,1.994c2.865,1.36,2.819,4.328,2.271,7.023c-1.253,6.158-5.492,11.909-8.955,16.998
		c-4.416,6.48-8.776,12.938-12.996,19.555c-6.51,10.23-13.837,20.311-19.945,30.836c-3.974,4.92-7.767,9.964-11.679,14.956
		c-5.442,6.943-11.593,13.756-16.562,21.011c-0.197,0.287,0.135,0.588,0.405,0.363c5.673-4.845,9.89-11.512,14.441-17.372
		c5.03-6.465,10.442-12.605,15.708-18.876c7.056-8.404,14.925-16.078,21.6-24.787c5.346-6.951,10.661-13.933,16.488-20.49
		c2.126-2.39,7.545-9.535,12.01-10.989c0.201,0.164,0.443,0.276,0.734,0.292c7.841,0.45,12.709,4.402,17.784,10.072
		c2.562,2.87,5.147,5.469,7.826,7.974c-18.1,9.851-33.403,24.206-49.944,36.296c-7.923,5.788-15.974,11.41-24.691,15.928
		c-7.949,4.112-17.439,10.865-22.778,18.137c-0.125,0.177,0.069,0.471,0.274,0.319c7.778-5.88,14.891-12.158,23.167-17.417
		c8.252-5.24,16.622-10.387,24.638-16.016c8.271-5.808,16.782-11.283,25.037-17.159c8.736-6.216,17.228-12.722,26.592-17.98
		c1.613,1.452,3.268,2.891,4.993,4.354c2.178,1.841,4.27,3.453,6.046,5.325c-7.3,1.649-14.58,6.091-20.836,9.794
		c-9.049,5.359-17.615,11.518-26.499,17.158c-9.203,5.841-18.931,10.846-28.211,16.578c-9.418,5.817-19.047,10.877-29.065,15.58
		c-0.055,0.026-0.009,0.099,0.044,0.091c9.622-2.265,18.084-7.723,26.387-12.87c8.934-5.538,17.99-10.462,27.183-15.512
		c8.684-4.775,16.737-10.643,25.047-16.023c4.385-2.837,8.877-5.501,13.505-7.916c2.469-1.29,5.013-2.406,7.584-3.458
		c1.466-0.603,3.802-1.958,5.623-2.561c1.345,1.58,2.456,3.373,3.197,5.637c1.151,3.528,2.021,7.679,2.052,11.36
		c0.037,3.785-0.45,6.941,1.107,10.503c0.286,0.635,0.78,0.991,1.318,1.134c3.376,4.209,6.118,9.142,7.828,14.269
		c-3.326,0.125-6.598-0.031-10.019,0.354c-5.037,0.568-10.063,1.249-15.096,1.926c-9.52,1.29-19.022,2.812-28.43,4.762
		c-9.854,2.042-19.49,4.991-29.22,7.582c-9.611,2.564-19.546,5.199-28.699,9.137c-0.138,0.055-0.077,0.246,0.068,0.215
		c9.135-2.207,18.103-5.239,27.191-7.661c9.804-2.611,19.738-4.225,29.682-6.14c9.816-1.893,19.661-3.621,29.555-5.051
		c5.024-0.728,10.062-1.309,15.106-1.846c3.332-0.359,6.959-1.423,10.188-1.631c0.071-0.004,0.118-0.024,0.18-0.045
		c1.647,5.835,0.971,11.122-1.53,16.17c-0.099-0.014-0.193,0.018-0.272,0.107c-0.383,0.417-0.629,0.917-0.756,1.479
		c-0.236-0.138-0.502-0.23-0.822-0.254c-14.414-0.869-28.624,2.852-43.016,2.381c-15.83-0.522-31.512,2.908-47.066,5.284
		c-0.311,0.046-0.293,0.54,0.025,0.489c15.728-2.353,30.947-5.602,46.884-3.68c14.438,1.734,28.88-1.997,43.353-1.082
		c0.265,0.016,0.494-0.021,0.69-0.099c0.306,1.695,0.927,3.422,1.221,4.661c1.361,5.783,3.578,11.059,3.406,17.123
		c-0.193,6.704-1.921,13.444-4.444,19.629c-1.275,3.106-2.767,5.944-5.099,8.399c-0.417,0.444-0.85,0.867-1.275,1.28
		C261.577,793.024,248.328,788.141,238.671,783.589z"/>
	<path fill="#71B0BA" d="M257.981,689.62c0.058-0.051,0-0.156-0.069-0.107c-15.148,11.145-35.141,13.41-51.463,22.374
		c-17.25,9.471-33.583,18.831-53.122,22.647c-0.176,0.032-0.11,0.292,0.05,0.291c18.277-0.374,35.62-11.479,50.999-20.267
		C221.721,704.649,242.106,702.111,257.981,689.62z"/>
	<path fill="#71B0BA" d="M274.427,769.899c-2.369-1.644-4.903-2.176-7.67-3.04c-4.976-1.541-9.878-3.276-14.793-4.995
		c-8.208-2.878-16.398-5.792-24.823-7.994c-13.996-3.664-29.436-0.794-42.528-8.127c-0.013-0.008-0.022,0.01-0.007,0.02
		c11.664,7.375,26.497,5.657,39.407,9.131c9.146,2.465,18.074,5.704,26.987,8.896c3.833,1.372,7.67,2.722,11.524,4.03
		c3.732,1.268,7.649,3.09,11.63,2.853C274.512,770.656,274.767,770.132,274.427,769.899z"/>
	<path fill="#71B0BA" d="M195.963,633.016c0.036-0.073-0.07-0.127-0.115-0.056c-7.168,11.963-13.177,24.443-19.341,36.95
		c-6.153,12.492-13.101,24.484-19.699,36.729c-0.194,0.369,0.358,0.752,0.613,0.416c8.01-10.526,13.832-22.79,19.681-34.603
		C183.561,659.387,189.637,646.14,195.963,633.016z"/>
	<path fill="#71B0BA" d="M143.556,710.115c-0.034-0.077-0.155-0.06-0.146,0.025c0.083,0.925,0.171,1.772,0.028,2.701
		c-0.131,0.835-0.361,1.706-0.607,2.518c-0.063,0.208,0.25,0.301,0.344,0.124C144.041,713.897,144.224,711.825,143.556,710.115z"/>
	<path fill="#71B0BA" d="M160.42,653.781c2.321-7.455,5.183-14.738,7.603-22.164c2.112-6.472,4.48-13.665,3.949-20.557
		c-0.029-0.448-0.688-0.511-0.781-0.062c-1.425,6.866-2.547,13.593-4.653,20.312c-2.335,7.453-5.2,14.729-7.596,22.167
		c-5.292,16.415-9.088,33.448-13.297,50.16c-0.038,0.155,0.197,0.209,0.245,0.05C150.388,687.022,155.287,670.265,160.42,653.781z"
		/>
	<path fill="#71B0BA" d="M143.703,654.787c0-0.137-0.231-0.155-0.243-0.016c-1.606,14.378-6.024,28.449-6.08,42.974
		c-0.006,0.291,0.437,0.261,0.445-0.022C138.189,683.214,143.438,669.275,143.703,654.787z"/>
	<path fill="#71B0BA" d="M141.371,613.319c-0.073-0.344-0.627-0.297-0.672,0.034c-1.543,10.886,1.611,22.48,3.142,33.201
		c0.012,0.068,0.114,0.062,0.108-0.007C142.798,635.631,143.449,624.108,141.371,613.319z"/>
	<path fill="#71B0BA" d="M128.772,683.959c-0.021-0.125-0.227-0.112-0.237,0.009c-0.104,1.191,0.089,2.305,0.586,3.389
		c0.045,0.097,0.2,0.054,0.16-0.051C128.946,686.208,128.986,685.071,128.772,683.959z"/>
</g>
<g>
	<path fill="#71B0BA" d="M1543.123,816.505c-4.079-0.824-8-0.142-11.713-1.366c-2.91-0.976-6.047-1.401-7.646-4.661
		c-0.399-0.851-1.962-1.211-3.021-1.672c-7.41-3.375-14.682-6.937-21.634-11.223c-3.158-1.971-5.95-4.342-8.648-6.889
		c-1.272-1.174-2.308-2.37-0.852-4.16c0.889-1.09,0.151-1.938-0.648-2.671c-1.001-0.914-1.987-1.786-3.019-2.643
		c-2.252-1.854-4.129-3.768-3.567-7.091c0.276-1.684-1.18-2.656-2.237-3.603c-4.361-3.894-7.546-8.72-11.075-13.249
		c-1.33-1.691-3.009-3.423-1.178-5.91c0.555-0.746-0.062-1.68-0.539-2.458c-0.892-1.53-1.827-3.046-2.677-4.59
		c-0.749-1.378-1.009-2.902,0.295-4.065c1.74-1.49,1.281-3.197,0.584-4.882c-1.271-2.969-2.514-5.996-4.053-8.886
		c-2.094-3.938-3.711-8.066-5.149-12.249c-0.633-1.799-0.27-3.026,1.65-3.257c2.112-0.242,2.578-1.447,2.858-3.275
		c0.579-4.249,1.831-8.358,1.398-12.743c-0.236-2.258,0.967-3.927,3.174-4.825c2.506-1.037,5.082-1.513,7.812-1.307
		c1.938,0.149,3.565-0.09,3.24-2.81c-0.246-1.964,1.137-2.861,2.986-3.17c3.341-0.509,6.124-1.433,7.223-5.401
		c0.763-2.654,3.677-3.132,6.301-3.284c2.669-0.164,5.306-0.269,7.975-0.432c1.093-0.082,1.836-0.353,2.406-1.541
		c1.849-3.897,2.958-4.569,7.13-3.918c1.89,0.313,3.126,0.234,3.536-1.975c0.338-1.798,1.747-2.122,3.406-2.082
		c2.883,0.064,5.549,0.871,8.13,2.043c1.335,0.574,2.503,0.904,3.547-0.475c2.26-3.002,5.438-2.929,8.465-1.889
		c5.065,1.693,10.303,2.66,15.207,4.79c1.682,0.761,3.373,1.228,4.908-0.297c0.121-0.084,0.255-0.124,0.377-0.21
		c2.912-2.274,5.644,1.523,8.48,0.29c3.269-1.409,5.734-0.299,7.779,2.343c1.4,1.767,3.115,1.986,5.148,0.991
		c3.17-1.574,5.938-0.747,8.589,1.471c2.063,1.715,3.93,3.585,5.659,5.643c1.134,1.36,2.297,2.664,3.777,3.727
		c1.481,1.064,2.689,2.354,4.534,0.397c1.036-1.084,2.277-0.337,2.992,0.759c1.052,1.58,1.997,3.288,2.885,4.964
		c1.743,3.412,3.455,6.881,5.166,10.351c0.857,1.733,1.771,3.013,4.039,2.484c2.95-0.685,4.877,0.732,5.909,3.385
		c1.032,2.652,2.472,4.555,5.656,4.819c1.599,0.153,2.344,1.68,2.825,3.137c0.682,2.127,1.484,4.169,2.121,6.308
		c0.783,2.63,1.905,4.77,4.691,5.979c2.162,0.908,3.017,3.13,3.577,5.341c2.086,8.308,4.005,16.713,5.275,25.215
		c0.785,5.248,1.585,10.541,2.238,15.832c0.419,3.369,0.84,6.737,0.936,10.154c0.189,5.039,2.405,8.893,6.152,12.19
		c9.388,8.222,17.228,17.776,24.824,27.645c7.583,9.825,14.85,19.89,22.16,29.942c4.857,6.705,9.824,13.281,14.094,20.454
		c2.401,3.992,5.324,7.78,8.203,11.581c7.449,9.865,16.573,18.019,25.646,26.333c9.604,8.786,19.68,17.045,29.464,25.631
		c6.84,6.021,15.009,10.479,22.979,15.093c5.865,3.398,11.898,6.552,18.89,8.353c-0.294-1.805-1.509-2.947-2.201-4.294
		c-1.965-3.831-4.425-7.369-5.913-11.39c-0.758-2.056-2.237-3.119-4.375-3.938c-9.079-3.604-18.047-7.484-27.001-11.323
		c-1.611-0.685-3.124-1.69-4.654-2.594c-0.649-0.389-1.663-0.863-1.662-1.349c-0.228-3.863-3.546-4.088-6.024-5.242
		c-8.42-3.997-15.347-9.988-21.967-16.414c-0.826-0.82-2.166-1.731-1.405-2.929c1.256-1.976,0.078-2.839-1.104-4.039
		c-6.09-6.437-9.983-14.303-14.105-21.955c-1.4-2.589-2.518-5.364-3.876-7.968c-0.929-1.812-1.502-3.581-0.367-5.471
		c0.716-1.184,0.192-2.29-0.049-3.432c-0.534-2.607-1.156-5.187-1.646-7.809c-0.442-2.295-1.059-4.537,1.14-6.599
		c1.063-0.996,0.416-2.842,0.376-4.285c-0.017-1.354-0.415-3.03,0.668-3.789c2.352-1.719,1.695-3.757,1.415-6.003
		c-1.375-10.169-0.484-20.38,0.021-30.575c0.028-0.882,0.083-2.161,1.041-2.203c2.829-0.116,2.536-2.404,3.106-4.078
		c0.852-2.681,1.529-5.454,2.497-8.072c0.758-2.022,1.378-4.341,4.225-4.557c1.329-0.104,1.5-1.319,1.636-2.331
		c0.7-4.333,3.78-7.676,4.858-11.879c0.404-1.576,1.742-1.974,3.119-0.929c0.818,0.63,1.517,1.343,2.459,2.227
		c1.825-1.366,1.915-3.674,3.026-5.315c1.282-1.888,2.519-3.273,5.033-1.837c1.748,0.983,3.198,0.309,3.919-1.506
		c0.928-2.266,2.683-2.885,4.912-3.063c2.521-0.168,5.003-0.47,7.35-1.558c0.763-0.373,1.764-0.428,2.584-0.283
		c2.106,0.392,4.156,1.577,5.788-1.092c0.56-0.895,1.881-0.366,2.882,0.064c2.322,0.959,4.708,1.8,6.937,2.932
		c2.609,1.262,5.049,2.283,7.964,0.833c1.526-0.744,2.813,0.327,4.053,1.22c3.264,2.328,6.162,5.056,9.61,7.186
		c2.021,1.242,3.932,2.614,6.172,3.452c2.078,0.789,3.719,2.385,5.301,3.954c1.525,1.535,2.784,3.489,5.373,3.543
		c0.69,0.037,1.486,0.916,2.068,1.566c1.178,1.348,2.467,2.42,4.086,3.297c2.72,1.471,3.681,4.533,5.322,6.957
		c1.561,2.302,2.641,4.794,5.013,6.562c2.041,1.479,2.358,4.345,3.3,6.685c0.763,1.909,0.779,4.086,2.318,5.667
		c4.899-1.798,5.694-1.405,6.303,3.897c0.776,7.339,2.365,14.63,2.346,22.059c-0.01,0.294-0.096,0.659,0.06,0.855
		c2.287,2.959,3.021,6.234,2.212,9.872c-0.037,0.206,0.185,0.623,0.372,0.764c3.963,3.042,2.154,7.074,1.567,10.645
		c-0.744,4.831-2.279,9.46-4.062,14.067c-0.354,0.93-1.124,1.936-0.347,2.916c1.979,2.565,0.778,5.058-0.126,7.559
		c-1.874,5.118-3.732,10.281-5.547,15.433c-0.403,1.091-0.95,2.515-0.582,3.425c1.448,3.888-0.879,6.665-2.688,9.389
		c-5.166,7.749-10.377,15.511-16.404,22.645c-3.108,3.739-6.218,7.479-10.067,10.518c-1.767,1.398-2.243,2.899-1.46,5.045
		c0.772,2.099,1.483,4.168,2.762,6.02c10.047,14.673,23.566,24.719,40.315,30.457c5.035,1.753,10.117,3.344,15.188,4.892
		c4.852,1.466,9.936,1.265,14.949,1.81c2.2,0.218,4.709,0.007,6.085,2.022c1.994,2.463,3.115,5.574,3.317,8.864
		c0.104,1.812-1.387,2.839-3.822,2.643c-3.831-0.314-7.625-0.837-11.463-1.343c-10.813-1.439-20.805-5.502-30.967-9.318
		c-7.808-2.917-15.001-7.035-22.588-10.356c-2.96-1.303-6.027-2.477-9.035-3.619c-6.6-2.45-12.049-6.894-18.241-10.097
		c-13.141-6.812-26.325-13.611-39.262-20.726c-7.835-4.317-15.931-7.876-24.455-10.433c-10.93-3.298-22.017-5.82-33.57-5.681
		c-3.046,0.034-5.864,0.679-8.624,1.84c-4.298,1.861-5.094,3.264-4.627,7.928c0.287,2.923,0.824,5.87,1.349,8.769
		c1.555,8.32,0.597,16.516-0.052,24.763c-0.317,4.317-1.306,8.493-2.558,12.602c-3.583,11.596-7.718,22.97-13.541,33.729
		c-9.312,17.135-22.904,29.672-39.811,38.732c-13.312,7.115-27.579,10.537-42.774,9.044c-1.041-0.079-2.07-0.113-3.117-0.043
		c-8.152,0.484-15.904-0.942-23.071-4.973c-2.515-1.435-3.011-2.451-1.55-4.877c0.451-0.765,1.104-1.347,1.596-1.979
		c-0.225-1.243-1.086-1.036-1.744-1.131c-4.641-0.755-5.423-1.589-5.582-6.199c-0.024-0.575,0.128-1.201,0.16-1.746
		c0.208-3.701,0.227-3.803-3.27-4.947c-1.878-0.606-3.025-1.526-3.189-3.708c-0.195-2.611-1.245-5.161-1.727-7.589
		c-0.723-3.569-2.438-7.378-0.349-11.445c1.727-3.329,1.774-7.079-1.722-10.017c-2.191-1.823-2.288-4.268-1.219-6.867
		c1.693-4.096,3.154-8.314,4.787-12.44c0.436-1.148,0.838-2.239,0.582-3.424c-0.354-1.352-0.195-2.611,0.564-3.808
		c0.497-0.777,0.922-1.632,0.554-2.544c-1.404-3.414,0.685-5.686,2.653-7.873c1.463-1.602,2.029-3.127,2.061-5.467
		c0.07-3.515,2.187-6.668,4.253-9.515c1.756-2.416,3.176-4.975,4.99-7.356c1.122-1.45,1.838-3.119,1.235-4.979
		c-0.615-1.904,0.188-3.113,1.621-4.17c1.312-0.973,2.455-2.188,3.807-3.026c2.297-1.411,3.838-3.568,5.676-5.377
		c4.393-4.315,9.218-8.323,15.045-10.592c2.475-0.979,5.258-0.595,7.922-0.61c3.736,0.004,7.384-0.306,10.575-2.614
		c2.198-1.577,4.769-1.42,7.282-1.295c3.88,0.153,7.706,0.132,11.229-1.888c0.497-0.293,1.139-0.581,1.695-0.504
		c4.223,0.489,8.315,0.387,12.571-0.152c2.659-0.354,5.532,0.489,8.326-0.392c0.535-0.158,1.2-0.212,1.737-0.031
		c7.235,1.971,14.766,2.979,21.52,6.598c3.53,1.91,7.15,2.337,11.114,2.126c8.709-0.41,17.398-1.539,26.183-1.048
		c4.889,0.29,9.703,1.138,14.472,1.999c1.434,0.252,2.781,0.871,4.854,0.012c-4.25-3.685-7.471-7.821-11.115-11.589
		c-9.055-9.389-18.202-18.601-25.756-29.309c-4.096-5.769-8.64-11.258-12.778-17.014c-4.354-5.981-8.421-12.147-12.696-18.202
		c-7.614-10.738-14.971-21.6-23.984-31.339c-4.521-4.915-8.666-10.038-14.176-13.88c-3.785-2.61-5.545-2.813-9.238-0.064
		c-5.969,4.396-11.939,8.796-17.017,14.235c-4.785,5.113-10.743,8.245-16.876,11.283c-1.314,0.635-2.691,0.899-3.514-0.556
		c-1.237-2.202-2.771-1.648-4.502-0.939c-3.402,1.45-6.966,2.512-10.606,3.158c-1.85,0.308-3.248,0.336-3.211-2.15
		c0.021-2.045-1.681-1.73-2.964-1.641c-2.521,0.168-4.919,1.075-7.478,0.964c-1.571-0.065-3.104,0.003-3.033-2.202
		c0.029-1.366-0.941-1.369-1.814-1.206c-6.347,1.501-12.691-0.249-18.999,0.075c-0.575,0.025-1.194,0.064-1.782,0.047
		C1542.59,822.049,1542.097,821.371,1543.123,816.505z M1573.467,822.757c2.564,0.789,4.952-0.311,7.41-0.702
		c1.759-0.28,3.837-0.803,4.696,1.271c1.051,2.55,2.845,2.063,4.768,1.832c1.978-0.201,3.614-1.222,5.402-1.9
		c2.443-0.921,4.914-2.238,7.578-0.46c1.14,0.729,2.254-0.087,3.304-0.642c3.144-1.664,6.151-3.628,8.887-5.848
		c6.692-5.39,13.314-10.854,19.938-16.319c1.602-1.301,3.217-2.559,5.145-3.423c2.27-1.016,4.354-0.861,6.217,0.672
		c3.441,2.76,7.036,5.377,10.245,8.499c3.126,3.002,5.085,6.979,8.26,9.818c5.69,5.1,9.856,11.43,14.357,17.417
		c7.164,9.56,13.664,19.659,20.708,29.307c2.069,2.878,4.138,5.755,6.195,8.588c2.239,3.116,4.916,5.912,7.033,9.115
		c4.156,6.138,8.66,11.979,13.754,17.352c4.382,4.618,8.766,9.231,13.178,13.79c5.797,5.94,11.427,11.98,18.844,16.033
		c1.271,0.688,2.371,1.768,3.455,2.804c0.757,0.746,1.316,1.647,0.217,2.848c-1.926-0.592-3.779-1.446-5.636-2.302
		c-4.714-2.139-9.324-4.261-14.511-5.386c-12.698-2.722-25.262-2.379-37.869,0.258c-0.873,0.163-1.872,0.558-2.583,0.284
		c-3.041-1.085-4.162,0.85-5.584,2.921c-6.541,9.812-7.245,21.47-10.466,32.327c-0.184,0.687,0.099,1.475-0.027,2.191
		c-0.97,5.384,0.303,11.12-2.555,16.192c-0.188,0.346-0.311,0.917-0.146,1.305c1.027,2.8-0.852,4.475-2.352,6.28
		c-1.727,2.019-3.643,3.897-5.312,5.948c-1.426,1.733-2.725,3.724-2.579,6.007c0.351,4.602-1.763,7.61-5.526,9.797
		c-1.784,1.017-3.142,2.488-3.107,4.564c0.03,2.708-1.318,4.371-3.152,6.033c-1.304,1.166-3.299,2.291-3.149,4.094
		c0.229,3.375-1.782,4.605-4.098,6.119c-2.347,1.573-4.577,3.206-7.188,4.373c-1.329,0.59-2.622,1.461-2.142,3.403
		c0.546,2.166-1.036,2.88-2.698,3.327c-6.814,1.884-11.713,7.272-18.085,9.992c-0.521,0.205-0.948,0.72-1.288,1.208
		c-1.883,2.648-4.678,3.527-7.663,3.931c-3.075,0.431-6.188,0.727-9.245,1.054c-1.934,0.186-3.502,0.46-2.986,3.17
		c0.325,1.748-0.909,2.648-2.749,2.663c-0.678,0.007-1.51-0.182-2.02,0.553c8.504,1.35,19.927,1.249,27.298-0.071
		c5.845-1.063,11.396-2.956,16.889-5.369c15.525-6.854,28.266-17.195,38.228-30.835c7.869-10.738,12.695-23.044,16.87-35.592
		c1.694-5.065,3.24-10.138,4.046-15.422c1.869-11.813,1.811-23.588-0.841-35.27c-0.566-2.549-0.324-4.998-0.039-7.461
		c0.201-1.611,0.897-2.693,2.437-3.395c3.808-1.716,7.584-3.373,11.785-3.604c10.956-0.689,21.597,1.965,31.925,4.714
		c9.381,2.497,18.486,6.191,27.038,11.118c9.359,5.365,19.11,10.082,28.671,15.146c5.874,3.104,11.992,5.892,17.541,9.527
		c5.374,3.545,11.037,6.274,16.966,8.585c2.471,0.965,4.954,1.972,7.375,3.096c5.884,2.811,11.659,5.747,17.761,8.152
		c12.288,4.932,24.561,9.48,37.881,10.706c1.599,0.154,3.136,0.91,4.818,0.7c0.932-0.132,1.689-0.357,1.829-1.515
		c0.264-2.699-1.838-5.519-4.647-5.993c-1.432-0.252-2.926-0.536-4.395-0.583c-10.344-0.511-20.087-3.58-29.765-6.91
		c-9.822-3.336-18.137-9.256-26.123-15.709c-7.4-5.948-13.354-12.91-16.979-21.827c-1.634-4.027-1.402-6.182,2.162-8.553
		c3.772-2.483,6.764-5.8,9.524-9.24c6.025-7.472,11.561-15.281,16.839-23.307c0.974-1.454,2.198-3.371,1.908-4.838
		c-0.706-3.671,0.892-6.622,1.924-9.84c1.476-4.661,3.11-9.272,4.862-13.821c0.354-0.932,1.146-2.187,0.121-2.851
		c-2.735-1.854-1.313-3.927-0.474-5.827c2.193-5.021,3.835-10.265,4.949-15.643c0.475-2.323,1.229-4.685-1.455-6.36
		c-0.966-0.635-0.914-1.766-0.895-2.839c0.082-2.5,1.169-5.201-1.759-7.049c-0.477-0.295-0.401-1.676-0.374-2.556
		c0.316-4.317-0.411-8.564-0.817-12.857c-0.396-4.104-0.748-8.221-2.255-12.14c-4.591,1.853-4.881,1.694-6.416-3.138
		c-0.43-1.279-0.712-2.552-1.186-3.82c-0.634-1.801-0.713-4.349-2.274-5.194c-2.995-1.584-3.442-4.555-5.06-6.889
		c-1.148-1.744-2.072-3.702-3.512-5.116c-2.184-2.117-4.485-4.634-7.178-5.53c-2.315-0.767-3.836-1.963-5.361-3.5
		c-1.239-1.232-2.256-3.016-3.992-3.47c-3.007-0.805-5.117-2.845-7.367-4.698c-3.081-2.528-6.315-4.914-9.428-7.383
		c-1.765-1.367-3.451-2.466-5.389-0.339c-0.732,0.802-1.596,0.672-2.419,0.187c-2.746-1.561-5.862-2.088-8.725-3.226
		c-1.873-0.752-3.71-2.195-5.368,0.385c-0.233,0.36-1.302,0.677-1.561,0.464c-3.364-2.493-6.545-1.449-9.851,0.166
		c-0.464,0.235-1.171-0.185-1.731-0.116c-2.553,0.227-5.021,0.574-6.218,3.404c-0.922,2.118-2.741,2.854-4.783,1.86
		c-2.725-1.325-3.814,0.067-4.678,2.218c-0.338,0.828-0.674,1.656-1.009,2.483c-1.709,4.197-2.494,4.333-5.508,1.06
		c-0.144-0.152-0.512-0.091-1.025-0.182c-1.559,4.055-4.556,7.52-4.867,12.174c-0.07,1.233-0.799,2.372-2.171,2.49
		c-2.834,0.261-3.577,2.326-4.179,4.543c-0.97,3.588-1.954,7.132-2.001,10.882c0.002,1.31,0.011,3.297-1.673,3.021
		c-2.209-0.412-2.171,0.695-2.244,2.076c-0.582,9.295-0.959,18.626,0.772,27.864c0.286,1.613,0.786,3.454-0.619,4.601
		c-2.103,1.741-1.761,3.871-1.582,6.099c0.134,1.758,0.66,3.686-1.103,4.94c-1.608,1.108-1.447,2.468-0.966,3.926
		c1.018,3.095,1.411,6.374,3.175,9.197c0.656,1.066,1.014,2.27,0.054,3.281c-1.433,1.543-0.808,3.152-0.016,4.519
		c5.722,10.088,9.755,21.358,19.643,28.653c1.307,0.97,2.263,2.384,1.114,3.744c-1.59,1.831-0.705,2.683,0.681,3.922
		c7.432,6.377,14.892,12.696,24.602,15.482c1.431,0.4,3.25,0.972,3.3,2.609c0.149,3.109,2.553,3.849,4.539,4.812
		c4.65,2.255,9.345,4.497,14.236,6.099c4.585,1.547,8.793,4.272,13.849,4.466c1.366,0.03,1.858,1.193,2.383,2.299
		c2.386,4.919,4.893,9.752,7.908,14.338c2.217,3.369,4.843,6.324,7.362,9.406c0.765,0.938,1.554,1.963,0.705,3.186
		c-0.924,1.297-2.144,0.785-3.168,0.119c-6.627-4.336-14.172-6.699-21.087-10.367c-10.373-5.501-20.417-11.535-29.399-19.053
		c-11.477-9.541-22.463-19.711-33.694-29.565c-6.238-5.472-12.084-11.252-17.469-17.607c-5.853-6.944-10.879-14.376-15.888-21.91
		c-8.529-12.844-17.812-25.122-26.901-37.556c-8.666-11.831-17.646-23.425-28.478-33.399c-2.4-2.196-4.738-4.509-7.277-6.519
		c-1.521-1.198-1.751-2.293-1.438-4.183c0.835-4.856,0.213-9.718-0.353-14.549c-0.523-4.696-1.373-9.344-2.001-14.06
		c-1.091-8.07-3.247-15.968-4.755-23.961c-0.413-2.206-1.258-4.719-3.565-5.295c-2.672-0.661-3.465-2.511-4.267-4.554
		c-1.019-2.608-1.961-5.287-2.759-7.961c-0.571-1.918-1.438-3.21-3.699-2.976c-2.022,0.214-2.861-1.137-3.606-2.662
		c-0.55-1.195-1.145-2.377-1.872-3.52c-0.74-1.186-1.751-1.808-3.315-1.682c-4.16,0.365-4.054,0.236-5.818-3.411
		c-1.917-3.991-4.056-7.914-6.047-11.834c-0.9-1.722-1.904-2.976-4.168-2.107c-1.222,0.461-2.303-0.237-3.295-0.96
		c-2.125-1.598-4.222-3.256-5.797-5.456c-1.731-2.396-3.827-4.538-6.35-6.165c-1.569-1.037-3.225-1.709-4.943-0.471
		c-3.371,2.362-6.048,1.364-8.514-1.54c-1.371-1.679-3.104-2.28-5.114-1.049c-1.428,0.91-2.821,0.792-4.129-0.179
		c-1.364-1.001-2.862-1.137-4.089-0.045c-2.165,1.859-4.177,1.293-6.576,0.406c-4.941-1.926-10.006-3.622-15.076-5.169
		c-2.188-0.659-4.666-1.328-6.302,1.489c-0.937,1.589-2.458,1.363-3.922,0.681c-2.178-0.953-4.515-1.469-6.821-2.046
		c-2.146-0.526-3.811-0.417-4.455,2.152c-0.557,2.204-2.015,2.685-4.071,2.133c-1.153-0.287-2.337-0.516-3.513-0.555
		c-1.073-0.019-2.191,0.459-2.076,1.83c0.244,2.937-1.694,3.271-3.899,3.685c-2.96,0.493-5.907,0.207-8.87,0.359
		c-2.535,0.124-4.732,0.73-5.012,3.87c-0.179,1.848-1.444,2.808-3.026,3.521c-1.373,0.603-2.716,1.148-4.116,1.661
		c-1.102,0.378-1.66,0.785-1.233,2.211c0.791,2.821,0.608,3.022-2.065,3.333c-2.481,0.302-5.012,0.279-7.533,0.446
		c-2.994,0.212-5.011,1.589-4.913,4.033c0.153,5.244-1.875,10.165-2.118,15.382c-0.044,1.323-0.553,2.055-1.954,2.57
		c-2.741,1.059-2.611,1.167-1.606,3.729c2.393,6.082,4.983,12.007,8.391,17.592c1.426,2.341,1.53,4.979-0.113,7.118
		c-1.322,1.753-0.816,2.96,0.168,4.318c0.675,0.962,1.275,1.997,2.071,2.877c1.19,1.392,1.735,2.735,0.477,4.371
		c-0.875,1.136-0.543,2.249,0.233,3.23c4.674,6.082,9.012,12.506,16.396,15.792c-0.135,0.525-0.148,0.967-0.337,1.313
		c-1.705,3.078-1.771,3.341,0.642,5.582c1.826,1.737,3.868,3.215,5.878,4.753c1.379,1.044,2.228,2.102,0.679,3.582
		c-0.79,0.77-0.987,1.41,0.004,2.134c6.347,4.855,12.415,10.084,20.28,12.548c1.237,0.408,2.843,0.414,3.615,1.544
		c1.441,2.239,3.766,2.712,5.962,3.563c1.102,0.447,2.255,0.736,3.034,1.717c1.186,1.54,2.958,1.79,4.727,2.186
		c4.66,0.989,9.396,1.084,14.161,1.121c4.767,0.038,5.126,0.755,3.027,5.115c-0.081,0.219,0.116,0.549,0.216,1.052
		c6.078,0.86,12.18,1.47,18.367-0.082C1572.138,817.476,1572.796,818.056,1573.467,822.757z M1581.906,1059.271
		c5.242,1.304,10.282-0.344,15.256,0.554c0.922,0.163,1.732-0.37,1.958-1.407c0.85-3.503,3.631-3.943,6.521-4.174
		c1.327-0.104,2.65-0.062,4.01-0.223c4.581-0.587,9.147-1.22,12.278-5.209c1.123-1.449,2.892-2.023,4.52-2.751
		c1.76-0.768,3.504-1.431,4.609-3.265c0.777-1.299,2.352-1.719,3.764-2.187c1.548-0.511,3.096-1.018,4.628-1.571
		c1.013-0.35,2.027-0.848,1.892-2.117c-0.291-2.777,1.854-3.561,3.633-4.429c2.915-1.449,5.762-2.978,8.385-4.922
		c0.951-0.72,2.178-1.327,1.957-2.716c-0.405-2.5,1.198-3.802,2.714-5.225c2.049-1.92,4.227-3.733,3.819-7.057
		c-0.17-1.55,0.929-2.749,2.151-3.697c0.95-0.72,1.889-1.482,2.878-2.069c2.698-1.531,4.021-3.769,4.006-6.918
		c0.057-3.561,1.479-6.603,3.976-9.142c1.446-1.498,2.847-2.982,4.224-4.557c0.688-0.787,1.857-1.911,1.64-2.478
		c-1.309-4.074,3.303-7,1.931-10.958c1.417-8.282,2.379-16.626,4.555-24.794c1.607-6.01,3.009-12.056,5.984-17.552
		c3.086-5.771,3.135-5.931-2.823-8.668c-1.071-0.508-2.207-0.896-3.28-1.4c-8.49-4.073-17.782-3.345-26.74-4.414
		c-0.41-0.073-0.926-0.018-1.299,0.193c-3.011,1.623-6.021,0.967-9.021,0.016c-1.019-0.327-2.159-0.57-2.961,0.153
		c-3.55,3.24-7.73,2.398-11.836,1.971c-2.259-0.25-4.557-0.148-6.355,1.31c-2.598,2.034-5.677,2.611-8.762,2.849
		c-3.569,0.239-6.999,0.772-10.478,1.47c-5.732,1.124-9.186,5.5-13.249,8.797c-1.798,1.458-3.051,3.77-5.3,5.021
		c-1.288,0.724-2.467,1.656-3.671,2.5c-0.874,0.648-1.625,1.551-1.203,2.64c0.987,2.666-0.455,4.502-1.858,6.472
		c-1.759,2.562-3.577,5.094-5.107,7.781c-1.485,2.674-3.526,5.271-3.716,8.385c-0.102,1.776-0.536,2.925-1.523,4.333
		c-1.863,2.546-5.129,4.779-2.906,8.824c0.236,0.464-0.312,1.401-0.552,2.056c-0.336,0.827-1.113,1.641-0.759,2.506
		c1.103,2.729-0.495,4.854-1.409,7.164c-1.353,3.605-2.604,7.229-4.116,10.785c-0.989,2.382-0.839,4.521,1.355,5.856
		c2.495,1.537,2.602,3.689,2.315,6.152c-0.214,2.055-0.312,4.168-1.036,6.133c-0.484,1.307-0.099,2.601-0.154,3.879
		c-0.133,3.631,2.48,6.54,2.303,10.183c-0.162,2.718,1.028,4.596,3.914,4.998c1.875,0.267,2.394,1.519,2.532,3.128
		c0.074,0.901-0.044,1.809,0.105,2.637c0.455,1.856-0.378,3.946,0.76,5.646c1.332,2.029,3.562,0.882,5.314,1.233
		c3.101,0.63,3.823,2.405,1.896,5.064C1582.909,1056.935,1581.9,1057.623,1581.906,1059.271z"/>
	<path fill="#71B0BA" d="M1630.227,779.028c-3.281-2.711-7.192-4.604-11.367-6.077c-11.578-4.172-23.191-8.141-34.676-12.484
		c-12.876-4.95-24.916-11.653-36.955-18.356c-7.501-4.172-14.859-8.678-22.71-12.066c-9.085-3.944-18.403-7.38-28.089-9.593
		c-8.383-1.92-16.341-5.179-24.515-7.696c-1.443-0.443-2.96-1.301-3.554-2.97c1.101-1.2,2.046-0.463,2.918-0.141
		c7.941,2.877,15.771,6.03,24.007,7.944c7.507,1.744,14.819,3.983,21.969,6.805c8.688,3.432,16.95,7.715,25.102,12.277
		c16.245,9.092,32.327,18.619,50.182,24.319c9.757,3.112,19.118,7.168,28.829,10.294c5.315,1.717,10.065,4.961,14.745,8.129
		c2.679,1.824,5.229,3.878,7.802,5.83c0.69,0.523,1.668,1.202,0.829,2.131c-0.807,0.872-1.573-0.066-2.249-0.543
		c-1.996-1.494-4.038-2.972-6.049-4.508c-1.766-1.367-3.303-1.637-5.607-0.417c-7.023,3.789-12.909,8.792-18.064,14.791
		c-8.061,9.434-18.244,15.812-30.025,19.757c-0.401,0.12-0.855,0.061-1.444,0.042c-0.174-1.89,1.311-2.283,2.425-2.615
		c8.906-2.844,16.529-7.88,23.368-14.088c3.397-3.1,6.394-6.562,9.577-9.886c3.638-3.752,7.842-6.75,12.367-9.311
		C1629.538,780.3,1630.104,780.084,1630.227,779.028z"/>
	<path fill="#71B0BA" d="M1821.322,937.831c-2.58-2.629-3.81-5.95-4.792-9.25c-3.683-12.539-8.978-24.452-13.735-36.524
		c-2.76-6.991-5.267-14.105-8.04-21.141c-4.391-11.163-8.469-22.418-12.293-33.801c-2.431-7.186-3.72-14.614-5.2-22.032
		c-2.05-10.31-3.907-20.625-4.994-31.123c-0.559-5.462-0.97-10.92-0.219-16.384c0.135-1.011,0.419-2.017,0.76-2.993
		c0.129-0.377,0.439-0.808,0.996-0.732c0.746,0.068,0.951,0.589,0.991,1.209c0.03,0.427,0.073,0.899,0.001,1.308
		c-1.644,8.01,0.178,15.912,0.842,23.864c0.849,10.18,3.425,20.137,5.099,30.167c1.628,9.707,5.293,18.759,8.244,28.02
		c4.5,14.14,11.073,27.42,15.573,41.559c2.619,8.148,6.772,15.742,9.66,23.812c0.85,2.367,2.291,2.811,3.338,0.946
		c2.594-4.654,7.355-7.235,10.248-11.541c7.994-11.938,16.421-23.569,20.321-37.687c0.131-0.379,0.478-0.676,0.818-1.167
		c1.396,1.43,0.58,2.933,0.186,4.215c-2.445,7.765-5.312,15.409-10.293,21.987c-2.228,2.943-4.26,6.07-5.839,9.404
		c-1.548,3.275-3.946,5.979-6.338,8.534c-2.848,2.983-5.612,6.087-8.404,9.102c-1.735,1.827-1.95,3.395-1.313,5.534
		c0.85,2.853,1.774,5.636,2.98,8.381C1820.789,933.429,1821.59,935.471,1821.322,937.831z"/>
	<path fill="#71B0BA" d="M1815.518,894.045c14.889-19.425,28.013-38.909,35.853-61.478c1.18,0.379,0.647,1.362,0.593,2.154
		c-0.535,6.031-2.818,11.562-5.822,16.629c-7.921,13.325-14.879,27.283-24.949,39.258
		C1819.218,892.943,1819.333,893.006,1815.518,894.045z"/>
	<path fill="#71B0BA" d="M1842.919,805.97c1.38,2.354,0.806,4.659,0.203,6.878c-1.876,7.059-4.916,13.641-8.751,19.831
		c-4.688,7.557-8.466,15.572-12.646,23.368c-2.417,4.6-4.959,9.094-8.6,12.846c-0.821,0.827-1.628,1.696-2.581,2.416
		c-0.589,0.468-1.359,0.647-1.936-0.149c-0.423-0.604,0.006-1.118,0.417-1.531c9.302-8.688,13.905-20.441,19.862-31.241
		c3.001-5.406,6.162-10.763,8.687-16.463c2.081-4.745,4.176-9.443,4.041-14.789C1841.616,806.647,1841.861,806.333,1842.919,805.97z
		"/>
	<path fill="#71B0BA" d="M1825.929,783.126c1.343,3.045,0.737,5.41,0.042,7.8c-1.307,4.416-2.902,8.676-4.918,12.818
		c-4.787,9.674-8.516,19.809-13.578,29.371c-1.802,3.399-3.732,6.691-5.94,9.872c-0.465,0.72-1.042,1.718-2.048,0.949
		c-0.632-0.491-0.31-1.365,0.123-2.027c0.574-0.849,1.248-1.681,1.761-2.562c8.921-15.513,16.479-31.689,22.632-48.516
		C1824.869,788.536,1824.426,785.902,1825.929,783.126z"/>
	<path fill="#71B0BA" d="M1546.428,683.343c3.02,2.645,4.905,5.721,5.86,8.931c2.57,8.794,6.329,17.185,8.199,26.235
		c1.816,8.873,4.358,17.58,10.366,24.719c0.396,0.512,0.465,1.074,0.059,1.824c-2.281,0-3.191-1.913-4.037-3.457
		c-3.498-6.041-5.817-12.534-7.419-19.384c-2.829-12.113-5.793-24.187-12.192-35.092c-0.379-0.615-0.68-1.302-0.938-2.002
		C1546.221,684.763,1546.368,684.283,1546.428,683.343z"/>
	<path fill="#71B0BA" d="M1579.374,764.518c-1.056,3.953-3.933,6.509-6.808,8.917c-10.991,9.046-23.398,15.942-36.055,22.329
		c-2.109,1.066-4.355,1.831-6.77,1.87c-0.589-0.018-1.233-0.069-1.389-0.751c-0.213-0.711,0.372-1.032,0.867-1.326
		c0.376-0.208,0.807-0.385,1.222-0.46c7.593-1.387,14.105-5.267,20.529-9.119c7.217-4.285,14.212-8.988,20.77-14.335
		C1574.433,769.434,1576.497,766.587,1579.374,764.518z"/>
	<path fill="#71B0BA" d="M1564.145,689.229c2.006,1.684,2.241,3.458,2.555,5.16c2.328,13.039,7.318,25.237,12.548,37.267
		c2.681,6.238,6.546,11.881,10.605,17.369c0.552,0.709,1.089,1.374,1.519,2.167c0.196,0.33,0.146,0.976-0.081,1.189
		c-0.487,0.485-1.142,0.245-1.567-0.212c-0.583-0.651-1.089-1.375-1.595-2.098c-4.918-7.22-9.191-14.733-12.742-22.75
		c-2.727-6.224-4.798-12.691-7.09-19.093c-1.984-5.523-3.013-11.43-4.462-17.111
		C1563.758,690.704,1563.964,690.254,1564.145,689.229z"/>
	<path fill="#71B0BA" d="M1797.69,894.305c-0.234,0.846-0.645,1.26-1.022,1.131c-9.812-2.807-19.378-6.411-28.58-10.757
		c-6.942-3.273-13.691-7.036-19.699-11.896c-0.458-0.398-0.631-0.978,0.018-1.898c7.96,4.57,15.292,10.297,23.918,13.844
		C1780.687,888.205,1789.371,890.812,1797.69,894.305z"/>
	<path fill="#71B0BA" d="M1598.055,777.881c-3.504,4.196-8.601,6.15-12.854,9.31c-4.975,3.664-10.147,7.145-15.039,10.93
		c-4.936,3.798-10.442,6.651-16.033,9.382c-0.629,0.333-1.33,0.59-2.134,0.005c0.154-1.598,1.639-1.991,2.7-2.503
		c9.805-4.713,18.222-11.489,27.016-17.647c3.132-2.194,6.307-4.401,9.512-6.521
		C1593.351,779.524,1595.581,778.375,1598.055,777.881L1598.055,777.881z"/>
	<path fill="#71B0BA" d="M1525.437,684.061c2.232,1.956,3.586,4.221,4.356,6.807c3.794,13.233,8.466,26.157,14.881,38.416
		c0.124,0.254,0.262,0.553,0.342,0.821c0.217,0.566,0.271,1.23-0.256,1.581c-0.558,0.408-1.135,0.095-1.487-0.431
		c-0.507-0.723-1.057-1.432-1.398-2.253c-4.18-9.965-8.523-19.832-11.69-30.146c-1.306-4.223-2.447-8.541-4.838-12.341
		C1524.875,685.925,1524.516,685.207,1525.437,684.061z"/>
	<path fill="#71B0BA" d="M1550.849,757.529c-3.326,1.379-6.148,2.655-9.068,3.766c-7.464,2.806-14.54,6.415-21.577,10.159
		c-4.193,2.22-7.779,5.325-11.68,8.039c-0.842,0.589-1.687,1.181-2.601,1.694c-0.495,0.294-1.267,0.475-1.661-0.039
		c-0.608-0.741-0.001-1.309,0.632-1.791c4.168-3.276,8.406-6.48,13.165-8.916c9.351-4.773,18.672-9.488,28.71-12.768
		C1547.927,757.332,1549.113,756.59,1550.849,757.529z"/>
	<path fill="#71B0BA" d="M1781.941,840.91c-1.557,0.802-2.525-0.171-3.437-0.627c-9.962-4.943-19.336-10.839-27.862-17.958
		c-3.408-2.818-6.682-5.823-9.984-8.771c-0.658-0.579-1.46-1.312-0.592-2.152c0.684-0.641,1.396,0.116,1.941,0.49
		c0.488,0.339,0.947,0.736,1.361,1.147c9.868,10.163,21.364,18.143,33.926,24.644
		C1778.888,838.471,1780.689,839.147,1781.941,840.91z"/>
	<path fill="#71B0BA" d="M1491.66,764.084c4.279-1.273,7.526-2.095,10.684-3.228c10.283-3.596,20.515-7.369,30.785-11.009
		c1.014-0.348,2.572-1.638,3.089-0.386c0.736,1.821-1.456,1.793-2.524,2.112c-11.603,3.404-22.546,8.699-34.068,12.373
		C1497.378,764.712,1495.057,765.548,1491.66,764.084z"/>
	<path fill="#71B0BA" d="M1775.204,825.447c-1.806,0.294-2.733-1.032-3.732-1.946c-9.243-8.557-17.876-17.679-25.046-28.065
		c-0.786-1.172-3.14-2.559-1.27-3.94c1.281-0.914,2.176,1.439,2.979,2.511c4.473,5.899,8.735,11.909,13.724,17.411
		c3.479,3.865,7.235,7.357,11.02,10.938C1773.762,823.208,1775.203,823.651,1775.204,825.447z"/>
	<path fill="#71B0BA" d="M1794.784,805.644c-0.745-6.086,1.415-11.873,1.548-17.783c0.133-5.911,2.696-10.993,4.065-16.496
		C1800.752,783.147,1798,794.447,1794.784,805.644z"/>
	<path fill="#71B0BA" d="M1506.154,683.346c2.081,2.098,2.886,4.479,3.754,6.744c1.061,2.744,1.955,5.581,2.745,8.404
		c2.294,8.197,5.637,15.838,11.343,22.293c0.369,0.421,0.72,0.949,1.012,1.445c0.307,0.539,0.256,1.186-0.256,1.581
		c-0.514,0.395-1.173,0.3-1.63-0.098c-0.413-0.411-0.752-0.893-1.089-1.374c-5.089-7.318-8.787-15.337-11.424-23.869
		c-1.267-4.088-2.397-8.215-4.406-12.033C1505.753,685.746,1505.309,684.907,1506.154,683.346z"/>
	<path fill="#71B0BA" d="M1760.231,890.072c5.427,3.723,10.675,5.702,15.972,7.521c6.143,2.056,12.236,4.267,18.607,5.621
		c2.12,0.438,4.543,0.59,6.546,3.244c-2.999-0.126-5.147-0.99-7.271-1.767c-2.225-0.793-4.488-1.381-6.857-1.84
		c-8.188-1.591-15.942-4.327-23.352-8.188C1762.375,893.852,1760.6,893.263,1760.231,890.072z"/>
	<path fill="#71B0BA" d="M1609.117,720.824c1.804,6.062,3.653,12.111,5.412,18.186c1.35,4.692,2.518,9.44,3.732,14.173
		c0.287,1.128,0.454,2.34,0.415,3.516c-0.007,1.118-0.73,2.11-1.92,2.026c-1.395-0.117-0.665-1.257-0.654-2.037
		c0.057-4.044-1.32-7.856-2.225-11.711c-1.545-6.332-3.447-12.561-5.215-18.828C1608.191,724.399,1607.643,722.718,1609.117,720.824
		z"/>
	<path fill="#71B0BA" d="M1589.224,701.756c5.267,18.182,8.613,36.109,14.795,53.29c-1.836,0.353-1.918-0.739-2.188-1.483
		c-3.73-11.067-6.764-22.394-9.559-33.741c-1.076-4.435-2.347-8.861-3.437-13.338
		C1588.534,705.309,1587.633,704.073,1589.224,701.756z"/>
	<path fill="#71B0BA" d="M1779.2,854.196c-2.803,0.688-4.08-0.339-5.325-0.938c-8.664-4.164-17.109-8.734-24.914-14.419
		c-2.113-1.555-2.113-1.555-2.827-4.934C1756.396,842.303,1767.391,848.104,1779.2,854.196z"/>
	<path fill="#71B0BA" d="M1582.659,807.017c2.67-2.931,5.792-4.344,8.459-6.302c6.408-4.721,13.028-9.215,19.546-13.729
		c1.13-0.772,2.085-1.638,2.942-2.671c0.399-0.458,0.884-0.941,1.471-0.438c0.761,0.599,0.411,1.382-0.106,1.924
		c-0.703,0.743-1.519,1.424-2.388,1.925c-8.452,5.185-16.061,11.574-24.118,17.272
		C1586.866,806.152,1585.292,807.058,1582.659,807.017z"/>
	<path fill="#71B0BA" d="M1771.404,864.523c-3.433,1.021-6.036-1.212-8.641-2.621c-7.403-4.007-14.713-8.188-21.369-13.436
		c-1.005-0.769-2.114-1.555-2.156-3.821c4.203,1.901,6.866,5.138,10.344,7.207c3.668,2.209,7.1,4.777,10.904,6.798
		C1764.13,860.623,1767.761,862.551,1771.404,864.523L1771.404,864.523z"/>
	<path fill="#71B0BA" d="M1525.151,742.761c-11.598,7.335-25.006,8.753-37.748,12.401c-0.593-2.154,0.819-2.136,1.667-2.388
		c4.947-1.473,9.965-2.87,15.161-3.349c4.353-0.374,8.396-1.625,12.35-3.337C1519.36,744.824,1522.275,743.86,1525.151,742.761z"/>
	<path fill="#71B0BA" d="M1799.84,822.626c2.84-10.841,6.972-21.242,8.816-32.321C1810.24,795.463,1804.107,818.056,1799.84,822.626
		z"/>
	<path fill="#71B0BA" d="M1537.843,781.976c1.692-2.3,23.167-14.272,26.664-15.071c-2.083,3.435-5.549,4.176-8.138,5.917
		c-2.962,1.949-6.106,3.613-9.292,5.143C1544.075,779.44,1541.233,781.305,1537.843,781.976z"/>
	<path fill="#71B0BA" d="M1628.256,738.661c3.666,8.08,5.39,16.641,6.757,25.308c0.22,1.391,0.377,2.897-1.392,4.782
		C1632.169,758.167,1629.878,748.513,1628.256,738.661z"/>
	<path fill="#71B0BA" d="M1770.743,805.085c-1.069,0.316-1.518-0.375-1.957-0.873c-4.522-5.253-9.048-10.505-12.95-16.283
		c-0.507-0.722-0.938-1.516-1.323-2.323c-0.575-1.284-2.003-3.141-0.521-3.87c1.944-0.969,1.949,1.651,2.517,2.745
		c2.962,6.203,7.778,11.126,11.69,16.609C1769.079,802.426,1770.354,803.453,1770.743,805.085z"/>
	<path fill="#71B0BA" d="M1501.433,735.458c-0.658,1.215-1.937,1.159-2.957,1.317c-6.231,1.078-12.508,1.829-18.861,2.169
		c-0.147-0.005-0.279,0.035-0.429,0.03c-0.997-0.091-2.488,0.111-2.446-1.212c0.029-1.368,1.489-1.026,2.475-0.979
		c6.672,0.247,13.183-1.354,19.785-1.669C1499.812,735.067,1500.686,734.418,1501.433,735.458z"/>
	<path fill="#71B0BA" d="M1504.545,715.269c-7.253-5.459-9.539-13.95-13.562-21.923c2.942,1.744,3.306,1.976,7.284,10.787
		C1500.025,708.073,1503.538,710.91,1504.545,715.269z"/>
	<path fill="#71B0BA" d="M1820.17,832.247c-0.134,2.321-4.783,14.091-6.786,17.307c-1.086,1.729-1.086,1.729-3.392,2.948
		C1810.248,850.583,1818.693,833.803,1820.17,832.247z"/>
	<path fill="#71B0BA" d="M1799.052,915.346c-2.299,0.589-3.827,0.023-5.357-0.395c-3.691-0.987-7.383-1.976-11.059-2.918
		c-1.998-0.522-3.936-1.158-5.586-2.463c-0.444-0.352-0.853-0.908-0.45-1.516c0.401-0.604,0.985-0.438,1.519-0.113
		c4.907,2.956,10.505,3.668,15.856,5.18C1795.564,913.57,1797.435,913.498,1799.052,915.346z"/>
	<path fill="#71B0BA" d="M1771.373,864.581c2.264-0.383,3.873,1.271,5.828,1.808c4.549,1.266,9.082,2.634,13.644,3.942
		c0.962,0.296,2.035,0.316,2.64,1.204c-0.463,1.545-1.439,0.866-2.215,0.707c-5.82-1.131-11.271-3.633-16.944-5.244
		c-1.37-0.368-2.312-1.252-2.934-2.523C1771.404,864.523,1771.373,864.581,1771.373,864.581z"/>
	<path fill="#71B0BA" d="M1489.348,710.185c-2.772-1.165-4.192-3.654-6.283-5.458c-1.444-1.267-2.844-2.548-4.29-3.817
		c-0.658-0.579-1.699-1.142-1.065-2.11c0.806-1.209,1.984-0.346,2.686,0.22c1.562,1.332,2.982,2.847,4.467,4.251
		C1486.903,705.234,1488.437,707.447,1489.348,710.185z"/>
	<path fill="#71B0BA" d="M1598.111,777.913c0.581-0.658,1.033-1.425,2.45-1.556C1599.891,777.528,1598.901,777.629,1598.111,777.913
		C1598.055,777.881,1598.111,777.913,1598.111,777.913z"/>
	<path fill="#71B0BA" d="M1692.209,926.285c-5.025,4.311-9.374,9.097-13.078,14.422c-0.509,0.733-1.09,1.392-1.598,2.126
		c-8.162,13.007-15.487,26.542-24.287,39.205c-1.837,2.634-1.369,5.989-2.086,8.966c-0.423,1.68-0.217,3.51-1.891,5.222
		c-1.576-3.171,0.868-5.888,0.053-8.945c-5.297,6.333-10.5,12.491-15.643,18.681c-9.066,10.947-18.488,21.516-28.47,31.669
		c-3.942,4.036-8.479,7.376-13.198,10.432c-0.483,0.337-1.009,0.688-1.686,0.211c-0.439-1.471,0.814-1.99,1.689-2.64
		c13.902-9.863,24.412-23.134,35.548-35.765c6.397-7.194,12.295-14.772,18.392-22.167c7.123-8.671,13.069-18.205,18.827-27.876
		c5.946-10.018,11.562-20.329,19.626-28.94C1686.6,928.635,1689.066,926.978,1692.209,926.285z"/>
	<path fill="#71B0BA" d="M1622.617,1009.062c-3.822,2.156-7.936,2.848-12.176,2.944c-9.249,0.23-18.555,2.709-27.761-0.181
		C1596.079,1012.012,1609.303,1010.794,1622.617,1009.062z"/>
	<path fill="#71B0BA" d="M1648.811,971.375c-13.169,1.734-26.135-0.422-39.111-2.286
		C1622.752,969.087,1635.745,970.847,1648.811,971.375z"/>
	<path fill="#71B0BA" d="M1600.684,988.03c6.239,0.423,12.51,1.274,18.736,1.167c6.082-0.111,12.134-1.135,18.763-1.85
		C1633.482,991.61,1610.924,992.114,1600.684,988.03z"/>
	<path fill="#71B0BA" d="M1608.103,1024.204c-9.292,3.831-18.996,3.178-28.701,2.525
		C1588.94,1025.686,1598.562,1025.733,1608.103,1024.204z"/>
	<path fill="#71B0BA" d="M1605.618,1000.536c8.188-0.206,16.077-2.553,24.34-3.655c-0.246,2.111-1.599,2.127-2.679,2.254
		C1620.078,1000.21,1612.975,1002.422,1605.618,1000.536z"/>
	<path fill="#71B0BA" d="M1660.485,954.847c-4.486,1.237-18.321-2.213-22.338-5.434
		C1645.548,951.286,1653.045,952.84,1660.485,954.847z"/>
	<path fill="#71B0BA" d="M1624.722,1020.373c-1.445,7.369-2.058,14.927-5.432,21.852c-1.634-2.716,0.527-4.913,0.929-7.313
		c0.434-2.456,1.013-4.911,1.649-7.333C1622.525,1025.054,1622.859,1022.431,1624.722,1020.373z"/>
	<path fill="#71B0BA" d="M1650.525,935.733c5.277,2.894,10.859,4.531,17.114,4.513
		C1664.5,943.559,1654.768,941.021,1650.525,935.733z"/>
	<path fill="#71B0BA" d="M1663.171,923.283c4.836,1.084,9.646,2.08,14.436,3.176c0.833,0.188,1.847,0.664,1.266,1.807
		c-0.393,0.797-1.253,0.519-1.92,0.232c-4.224-1.8-8.681-2.754-13.07-3.971C1663.428,924.469,1663.067,924.236,1663.171,923.283z"/>
	<path fill="#71B0BA" d="M1641.445,1009.232c-1.524-4.303,0.802-7.908,1.838-11.759
		C1644.032,1001.62,1643.244,1005.494,1641.445,1009.232z"/>
</g>
</svg>
