<?xml version="1.0" encoding="utf-8"?>
<!-- Generator: Adobe Illustrator 15.1.0, SVG Export Plug-In . SVG Version: 6.00 Build 0)  -->
<!DOCTYPE svg PUBLIC "-//W3C//DTD SVG 1.1//EN" "http://www.w3.org/Graphics/SVG/1.1/DTD/svg11.dtd">
<svg version="1.1" id="Calque_1" xmlns="http://www.w3.org/2000/svg" xmlns:xlink="http://www.w3.org/1999/xlink" x="0px" y="0px"
	 width="1900px" height="898.618px" viewBox="0 0 1900 898.618" enable-background="new 0 0 1900 898.618" xml:space="preserve">
<rect fill="#71B0BA" width="1900" height="898.618"/>
<g>
	<path fill="#FFFFFF" d="M1089.09,584.661c-0.149-0.697-1.176-1.086-1.744-0.641c-30.069,23.559-71.947,34.929-93.629,68.254
		c-8.324,12.797-10.983,28.432-11.588,43.596c-2.46-11.961-5.096-23.889-7.735-35.779c-8.739-39.358-16.194-78.858-23.722-118.462
		c25.548,3.045,47.924-13.3,63.858-31.944c17.295-20.243,20.283-49.106,40.656-67.237c0.791-0.705,0.513-2.237-0.438-2.664
		c-17.857-8.062-36.292-8.231-52.981-2.201c-0.179-0.123-0.446-0.121-0.625,0.132c-0.027,0.039-0.054,0.081-0.079,0.122
		c-11.799,4.398-22.696,11.906-31.867,21.941c-12.223,13.379-21.111,31.241-24.236,49.74c-3.653-22.368-6.545-44.767-8.222-67.374
		c35.943-12.661,60.29-53.009,52.821-90.574c-5.017-25.239-19.788-47.264-27.129-71.771c-2.76-9.221-2.794-17.004-2.221-26.358
		c0.285-4.683,0.903-9.636-0.235-14.189c-0.229-0.923-1.497-1.144-2.109-0.48c-9.839,10.71-22.752,17.449-35.073,24.852
		c-12.011,7.214-21.817,16.064-29.927,27.521c-14.366,20.282-20.846,46.253-20.376,70.902c0.367,19.385,4.623,39.531,14.904,56.164
		c4.714,7.632,11.161,14.114,18.996,18.507c7.477,4.189,15.496,5.152,23.743,5.023c0.192,4.413,0.431,8.828,0.771,13.236
		c3.163,41.344,11.351,81.713,18.829,122.429c2.228,12.131,4.638,24.216,7.138,36.277c-3.127-6.234-6.701-12.225-10.796-17.82
		c-10.388-14.199-24.636-24.146-39.867-32.564c-16.62-9.19-35.273-16.036-54.284-17.609c-19.546-1.622-38.543,7.121-55.5,15.829
		c-1.359,0.699-1.059,2.69,0.115,3.366c36.047,20.647,50.294,63.651,84.379,86.676c14.651,9.897,31.372,12.511,48.734,10.559
		c11.961-1.346,26.117-5.59,34.344-15.006c3.475,15.939,7.002,31.873,10.427,47.852c6.863,32.028,11.253,63.954,12.995,96.397
		c-12.443-28.061-40.087-48.484-69.132-57.39c-27.98-8.582-70.676-12.966-89.63,14.893c-0.478,0.703-0.223,1.831,0.39,2.367
		c26.941,23.599,43.263,59.486,77.029,74.906c23.287,10.638,69.457,11.541,81.642-16.005c0.142,0.049,0.277,0.078,0.414,0.098
		c0.045,2.112,0.089,4.227,0.109,6.347c0.002,0.147,0.001,0.293,0.002,0.441c-0.204,2.42-0.367,4.846-0.462,7.299
		c-0.191,5.079-0.2,10.172-0.142,15.269c-0.267,4.09-0.514,8.189-0.724,12.286c-0.732,14.303-4.282,28.203-4.876,42.467
		c-1.25,6.067-2.362,12.137-2.331,18.412c0.009,0.955,0.402,1.638,0.977,2.066c0,0.158-0.014,0.316-0.014,0.473
		c0.005,2.396,3.355,3.579,4.829,1.901c0.126,1.014,0.226,2.034,0.275,3.068c0.166,3.326,5.257,3.996,5.922,0.601
		c1.565-7.983,2.287-16.185,2.55-24.44c1.881-8.148,2.4-16.952,3.142-24.422c1.565-15.835,1.203-31.815,0.052-47.662
		c-0.542-7.416-1.249-14.845-2.065-22.273c-0.29-8.477-0.727-16.928-1.292-25.33c-1.256-18.694-3.839-37.25-7.107-55.7
		c5.429-4.126,13.838-3.719,20.422-3.591c8.436,0.164,16.892,1.216,25.323,0.571c18.793-1.434,38.195-14.206,50.027-28.251
		C1107.482,660.399,1096.33,618.261,1089.09,584.661z M987.641,529.272c-11.471,7.506-24.051,10.139-37.49,9.577
		c-0.239-1.259-0.473-2.516-0.709-3.774c0.9-1.86,1.832-3.709,2.814-5.535c-0.079,0.277-0.162,0.556-0.231,0.843
		c-0.094,0.401,0.472,0.613,0.671,0.255c8.66-15.65,24.338-21.579,39.991-28.562c10.395-4.635,24.847-6.734,32.227-16.1
		c-2.339,4.919-4.817,9.766-7.687,14.381C1010.048,511.903,998.934,521.879,987.641,529.272z M1029.082,437.137
		c7.168,0.327,14.407,1.819,21.527,4.61c-9.458-0.695-19.175,3.838-27.414,7.929c-0.942,0.468-1.874,0.977-2.805,1.482
		c0.65-1.756,1.215-3.565,2.039-5.228C1024.03,442.697,1026.344,439.567,1029.082,437.137z M1019.977,455.019
		c8.728-4.727,18.245-9.558,28.293-10.483c-9.617,10.584-15.17,23.701-21.116,36.644c-0.199-0.069-0.435-0.024-0.573,0.221
		c-4.288,7.56-13.157,11.545-20.922,14.473c-7.352,2.773-14.494,5.582-21.674,8.782c-8.422,3.753-19.348,8.013-26.154,15.283
		c9.935-15.957,22.459-30.673,34.989-44.139C1000.967,467.047,1009.471,460.707,1019.977,455.019z M970.967,463.644
		c7.561-8.815,16.652-15.697,26.594-20.252c-5.839,10.274-9.098,21.835-11.157,33.579c-0.027,0.175,0.229,0.296,0.31,0.116
		c4.949-11.04,5.864-23.663,11.953-34.192c9.112-3.995,18.908-6.037,28.873-5.818c-2.265,1.615-3.979,3.629-5.611,6.11
		c-1.643,2.494-3.494,6.057-3.916,9.316c-8.298,4.849-15.938,11.062-22.48,17.982c-17.869,18.898-35.367,39.423-46.352,63.18
		c-0.475-2.554-0.94-5.109-1.396-7.666C947.646,503.37,955.76,481.377,970.967,463.644z M982.002,337.266
		c7.549,21.327,7.649,41.921-2.627,62.322c-8.91,17.692-24.508,32.009-42.616,39.975c-0.062-0.134-0.14-0.263-0.244-0.37
		c-0.242-3.51-0.448-7.028-0.629-10.552c7.403-6.143,16.343-9.444,23.708-15.925c9.551-8.406,13.836-21.726,18.82-32.986
		c0.181-0.406-0.419-0.739-0.607-0.332c-5.584,11.976-11.033,26.12-21.73,34.486c-5.636,4.405-14.574,6.908-20.329,11.93
		c-0.167-3.611-0.316-7.226-0.414-10.852c-0.36-13.15-0.359-26.363-1.312-39.486c-0.072-1.001-0.166-2.004-0.262-3.008
		c0.812-4.418,1.87-8.718,3.701-13.106c2.625-6.286,6.272-12.146,9.96-17.85c7.427-11.487,15.91-22.489,18.957-36.073
		c0.066-0.295-0.338-0.37-0.438-0.107c-5.307,13.894-14.154,25.717-22.153,38.101c-4.208,6.508-8.458,14.071-10.809,21.962
		c-0.544-4.574-1.081-9.186-1.242-13.762c0.032-2.087,0.046-4.178,0.054-6.269c0.139-2.34,0.43-4.663,0.924-6.96
		c0.125-0.581-0.52-0.877-0.909-0.648c0.015-13.925,0.195-27.843,3.259-41.288c2.489-10.918,7.848-20.892,13.134-30.662
		c2.727-5.044,6.489-10.694,9.04-16.493c0.004,0.973-0.005,1.935-0.061,2.867c-0.376,6.48-1.243,12.79,0.016,19.21
		C961.746,294.624,974.166,315.134,982.002,337.266z M888.035,412.99c-9.275-16.44-12.535-36.461-12.702-55.112
		c-0.226-25.059,7.927-50.391,23.221-70.269c14.67-19.07,38.064-26.246,55.515-41.629c-0.815,1.929-1.581,3.881-2.448,5.739
		c-2.258,4.841-4.673,9.613-7.035,14.404c-4.734,9.599-9.197,19.39-11.931,29.768c-2.94,11.165-2.205,22.984-2.455,34.415
		c-0.127,5.805-0.291,11.662-0.345,17.525c-1.797,14.837-0.428,29.952-0.374,44.903c0.018,5.031,0.018,10.062,0.031,15.093
		c-6.267-14.366-19.546-26.152-26.6-39.821c-10.141-19.653-16.864-49.718-6.41-70.509c0.036-0.074-0.076-0.136-0.113-0.062
		c-9.779,20.216-6.357,42.195,1.3,62.704c3.838,10.273,9.595,19.174,16.091,27.947c6.149,8.301,11.427,16.34,15.751,25.456
		c0.027,5.141,0.083,10.276,0.19,15.411c-5.812-2.199-11.354-3.994-16.689-7.506c-6.729-4.43-12.479-10.301-16.961-16.967
		c-0.228-0.336-0.753-0.012-0.537,0.34c6.785,10.996,20.179,25.122,34.219,25.758c0.062,2.731,0.143,5.463,0.244,8.195
		c-8.144-0.199-15.718-1.238-23.228-5.467C898.591,428.699,892.574,421.039,888.035,412.99z M850.156,549.742
		c18.864,0.797,37.575,8.537,53.983,17.378c15.264,8.227,28.955,18.432,39.236,32.522c7.051,9.668,11.972,20.428,16.504,31.385
		c-5.8-4.647-14.104-6.624-21.307-9.383c-1.034-0.397-2.045-0.823-3.048-1.265c-9.398-11.106-7.543-26.674-11.245-40.152
		c-0.077-0.287-0.484-0.143-0.429,0.135c1.553,8.112,1.84,16.421,3.391,24.541c0.836,4.394,2.216,10.31,5.414,14.13
		c-15.531-7.656-27.834-20.421-41.062-31.32c-12.228-10.081-27.61-16.225-42.634-20.767c-13.022-3.936-28.076-6.802-42.112-6.217
		C820.474,554.326,835,549.103,850.156,549.742z M801.465,563.327c0.094-0.047,0.194-0.093,0.289-0.141
		c32.132,0.866,64.351,5.553,89.771,27.188c2.992,2.546,5.927,5.116,8.858,7.67c-7.51-3.669-18.886,1.297-25.508,3.945
		c-9.68,3.872-22.658,9.525-32.141,4.412C830.68,590.353,818.69,574.317,801.465,563.327z M923.289,659.172
		c-12.321,0.715-23.364-1.703-33.543-6.781c20.792,2.106,39.239-13.119,55.86-23.66c0.321-0.208,0.083-0.779-0.29-0.625
		c-9.216,3.766-16.712,10.475-25.078,15.695c-10.023,6.253-20.506,7.514-31.962,7.837c-5.156-2.723-10.09-6.121-14.855-10.166
		c-11.372-9.654-20.449-21.452-29.389-33.342c5.926,2.44,12.89,1.218,19.876-1.182c12.586-4.33,26.276-12.719,39.232-5.887
		c0.234,0.124,0.43-0.001,0.512-0.186c8.674,7.482,17.462,14.643,27.7,20.362c4.631,2.59,10.304,4.338,15.731,6.461
		c-0.33,1.13,0.299,2.583,1.828,2.531c0.841-0.029,1.376-0.496,1.622-1.097c4.362,1.946,8.355,4.343,11.265,7.868
		c0.489,2.265,0.984,4.528,1.476,6.79C953.486,654.617,937.43,658.355,923.289,659.172z M1093.094,620.811
		c-0.045-0.25-0.304-0.468-0.619-0.411c-5.242,0.945-10.436,3.561-15.355,5.583c-3.661,1.504-7.398,2.904-10.87,4.805
		c10.667-11.947,18.622-25.695,21.11-42.707C1089.34,598.648,1091.624,609.722,1093.094,620.811z M995.728,653.361
		c8.494-13.913,22.538-24.077,36.466-32.676c-2.897,5.413-5.756,10.576-7.922,16.365c-2.374,6.347-3.562,13.141-5.076,19.724
		c-0.016,0.075,0.1,0.104,0.118,0.028c2.987-12.27,7.771-25.087,13.435-36.389c0.014-0.029,0.004-0.051,0.004-0.077
		c2.362-1.451,4.72-2.863,7.043-4.238c15.674-9.271,31.931-17.53,46.572-28.415c-4.854,31.864-28.933,51.968-53.514,70.347
		c-17.178,12.844-41.47,28.262-48.307,49.952c-0.179-0.923-0.359-1.846-0.538-2.77C983.754,687.072,985.976,669.337,995.728,653.361
		z M977.361,798.463c-2.244-3.587-3.915-7.221-5.126-11.826c-1.448-5.529-2.593-11.147-3.899-16.723
		c8.588,9.685,15.332,20.973,19.602,33.489c0.014,0.495,0.028,0.987,0.043,1.48C984.435,802.759,980.897,800.611,977.361,798.463z
		 M967.539,769.035c1.362,6.519,1.773,13.263,3.396,19.771c0.528,2.119,1.259,4.7,2.306,7.163
		c-6.942-4.192-13.926-8.319-21.081-12.135c-0.301-0.159-0.608-0.312-0.909-0.471c-3.515-5.115-6.252-10.206-8.348-16.715
		c-2.337-7.264-4.216-14.711-7.318-21.693C947.688,750.991,958.576,759.154,967.539,769.035z M917.374,737.76
		c5.615,1.671,11.067,3.767,16.306,6.259c3.906,8.452,5.685,17.665,8.639,26.463c1.106,3.283,2.503,7.115,4.438,10.559
		c-11.741-5.912-23.813-10.926-36.064-15.759c-23.747-9.369-51.072-20.716-77.149-16.542
		C851.93,724.5,892.058,730.23,917.374,737.76z M834.118,750.479c13.496-0.118,26.532,0.751,39.688,4.231
		c6.91,1.826,13.685,4.135,20.373,6.674c-11.962,4.342-34.805,16.388-44.756,5.285c-0.114-0.135-0.227-0.271-0.34-0.408
		c-0.253-0.307-0.506-0.614-0.741-0.951c-0.051-0.076-0.116-0.11-0.184-0.129C843.72,759.996,839.108,755.015,834.118,750.479z
		 M947.495,827.971c-16.248,1.665-32.609-1.47-46.866-9.466c-20.326-11.404-33.811-30.776-48.563-48.67
		c12.018,8.02,31.504-3.643,43.507-7.91c6.065,2.332,12.067,4.84,18.039,7.354c8.341,3.509,16.429,7.203,24.342,11.346
		c-5.756-0.696-12.652,1.371-17.177,2.711c-12.833,3.799-29.045,11.898-41.781,3.918c-0.408-0.258-0.792,0.438-0.359,0.663
		c10.064,5.263,20.266,3.761,30.841,0.967c5.903-1.558,11.639-3.659,17.589-5.043c6.907-1.606,11.929-0.703,18.337,1.859
		c0.373,0.149,0.844-0.219,0.574-0.618c-0.028-0.042-0.066-0.075-0.098-0.119c1.438,0.824,2.873,1.672,4.302,2.538
		c11.084,6.719,22.031,13.669,33.237,20.188c-7.982-2.8-17.923,0.537-25.468,3.01c-12.076,3.955-25.447,9.708-37.771,3.485
		c-0.38-0.192-0.691,0.384-0.314,0.583c9.243,4.895,18.64,3.709,28.373,0.999c5.752-1.599,11.374-3.62,17.157-5.137
		c6.785-1.784,12.709-1.673,19.608-1.325c0.269,0.013,0.413-0.212,0.423-0.444c0.086,0.048,0.17,0.101,0.256,0.149
		C977.47,821.572,961.915,826.498,947.495,827.971z M1075.01,693.125c-14.15,13.753-34.683,21.137-54.182,20.235
		c-9.588-0.443-23.37-2.667-32.621,2.088c3.534-11.52,11.565-22.665,18.913-31.097c9.954-11.421,21.391-21.103,33.343-30.341
		c8.692-6.717,17.055-13.768,24.286-21.576c0.023-0.002,0.043,0.013,0.069,0.006c5.043-1.373,9.875-3.571,14.763-5.418
		c4.442-1.68,9.32-3.122,13.296-5.755c0.173-0.119,0.234-0.274,0.221-0.424c1.518,11.444,2.146,22.903,0.674,33.842
		c-12.732,10.04-29.818,7.574-45.023,10.222c-17.38,3.023-31.599,12.701-44.043,24.718c-0.311,0.301,0.168,0.728,0.486,0.452
		c15.149-13.231,31.38-22.734,51.718-24.529c10.813-0.957,27.34-0.32,36.451-8.153
		C1091.16,670.438,1085.774,682.665,1075.01,693.125z"/>
	<path fill="#FFFFFF" d="M931.005,302.266c-2.546-13.25-7.572-25.234-1-38.28c0.231-0.459-0.417-0.975-0.751-0.541
		c-7.95,10.318-3.808,28.267,1.562,38.908C930.874,302.469,931.026,302.373,931.005,302.266z"/>
	<path fill="#FFFFFF" d="M1041.779,636.423c0.992-0.768,0.92-2.451,0.892-3.578c-0.005-0.292-0.464-0.276-0.453,0.015
		c0.056,1.229-0.04,2.287-0.63,3.383C1041.526,636.356,1041.666,636.509,1041.779,636.423z"/>
</g>
</svg>
