<?xml version="1.0" encoding="utf-8"?>
<!-- Generator: Adobe Illustrator 15.1.0, SVG Export Plug-In . SVG Version: 6.00 Build 0)  -->
<!DOCTYPE svg PUBLIC "-//W3C//DTD SVG 1.1//EN" "http://www.w3.org/Graphics/SVG/1.1/DTD/svg11.dtd">
<svg version="1.1" id="Calque_1" xmlns="http://www.w3.org/2000/svg" xmlns:xlink="http://www.w3.org/1999/xlink" x="0px" y="0px"
	 width="1920px" height="1200px" viewBox="0 0 1920 1200" enable-background="new 0 0 1920 1200" xml:space="preserve">
<rect x="-303.5" y="-123.5" fill="#00DDAF" stroke="#000000" stroke-miterlimit="10" width="2262" height="1455"/>
<g>
	<path fill="#00566C" d="M-64.364,629.909c-9.091,134.545,189.091,218.182,290.909,243.636
		c187.273,43.637,407.273,18.183,554.545-112.727c134.545-120,196.363-323.637,150.909-498.182
		c-23.636-87.272-59.741-273.704-125.195-331.885C723.168-145.613,114.545-542.659,0-546.295"/>
</g>
<g>
	<path fill="#DAEEEA" d="M1037.827,1367.895c-27.003-120.012,214.173-390.713,361.445-427.076
		c116.364-29.091,200,38.182,301.818,83.636c54.546,23.637,89.091,34.546,149.091,32.728
		c74.546-1.818,136.363-30.909,207.272-47.272"/>
</g>
<rect x="1474.5" y="1068.5" transform="matrix(0.9914 -0.1306 0.1306 0.9914 -148.4424 244.9833)" fill="#DAEEEA" width="639" height="372"/>
</svg>
