<?xml version="1.0" encoding="utf-8"?>
<!-- Generator: Adobe Illustrator 15.1.0, SVG Export Plug-In . SVG Version: 6.00 Build 0)  -->
<!DOCTYPE svg PUBLIC "-//W3C//DTD SVG 1.1//EN" "http://www.w3.org/Graphics/SVG/1.1/DTD/svg11.dtd">
<svg version="1.1" id="Calque_1" xmlns="http://www.w3.org/2000/svg" xmlns:xlink="http://www.w3.org/1999/xlink" x="0px" y="0px"
	 width="1920px" height="1200px" viewBox="0 0 1920 1200" enable-background="new 0 0 1920 1200" xml:space="preserve">
<rect x="-303.5" y="-123.5" fill="#1DA8AA" stroke="#000000" stroke-miterlimit="10" width="2262" height="1455"/>
<g>
	<path fill="#205B6B" d="M-164.396,120.221c-8.106,115.478,168.62,187.261,259.416,209.108
		c166.999,37.453,363.182,15.606,494.51-96.751c119.98-102.994,175.105-277.772,134.572-427.581
		c-21.078-74.905-53.273-234.916-111.642-284.852C537.877-545.396-4.856-886.174-107-889.295"/>
</g>
<g>
	<path fill="#DAEEEA" d="M743.587,1367.895c-36.834-158.713,292.152-516.709,493.045-564.799
		c158.731-38.472,272.818,50.494,411.709,110.606c74.405,31.259,121.527,45.687,203.373,43.281
		c101.688-2.404,186.013-40.876,282.739-62.517"/>
</g>
<rect x="821.593" y="1100.943" transform="matrix(0.9501 -0.3119 0.3119 0.9501 -336.0253 544.7046)" fill="#DAEEEA" width="1426.617" height="443.856"/>
<g>
	<path fill="#DAEEEA" d="M382.172,946.678c7.098-7.668,12.444-16.742,16.792-26.199c3.395-7.381,7.158-16.665,7.571-24.834
		c0.294-5.81-0.086-11.564-1.088-17.293c-0.485-2.769-0.039-5.829-0.254-8.657c8.088-4.715,11.046-16.717,12.116-25.284
		c1.464-11.767,1.295-25.691-5.476-35.994c0-0.141,0.01-0.275-0.007-0.427c-0.771-6.738,1.122-12.744,1.556-19.379
		c0.449-6.86,0.501-14.033-0.203-20.886c-0.974-9.471-6.829-16.799-11.967-24.441c-11.654-17.331-17.169-54.694-44.789-53.785
		c-0.615,0.021-1.07,0.238-1.379,0.565c-5.829-0.438-13.114,4.033-17.417,6.452c-14,7.873-26.771,18.147-39.465,27.918
		c-9.601,7.391-19.571,14.02-29.613,20.649c10.369-9.166,20.401-18.812,30.533-27.672c10.27-8.979,21.107-17.29,31.286-26.365
		c7.479-6.665,16.611-14.956,18.749-25.216c0.708-3.406-0.184-7.211-2.505-9.817c-1.592-1.787-3.394-2.974-5.554-3.981
		c-1.642-0.764-6.001-0.858-6.974-2.113c-0.316-0.408-0.735-0.52-1.105-0.442c-1.741-4.665-2.278-11.234-5.532-15.019
		c-4.969-5.778-12.03-9.538-16.639-15.548c-3.869-5.042-3.827-8.806-10.319-11.501c-2.233-0.928-4.803-1.239-7.157-1.728
		c-4.848-1.007-8.361-4.389-11.968-7.523c-4.415-3.833-8.629-6.557-14.282-8.116c-4.847-1.34-16.427,1.392-19.078-3.276
		c-1.63-2.878-4.715-2.324-7.705-2.196c-4.109,0.181-8.72,1.951-12.533-0.825c-2.83-2.062-5.408-3.653-8.645-5.146
		c-12.246-5.649-22.314-7.365-35.784-4.979c-8.486,1.503-16.025,2.778-24.583,0.953c-5.302-1.131-10.114-2.106-15.552-1.789
		c-8.929,0.522-18.107,6.082-25.96,9.813c-7.53,3.576-16.286,7.628-14.976,17.397c0.119,0.89,0.904,1.324,1.596,1.213
		c-1.744,9.979,0.382,20.432,3.826,30.526c6.572,19.27,16.84,37.603,25.955,55.739c11.034,21.951,21.527,44.09,28.008,67.87
		c2.559,9.397,4.823,19.098,5.229,28.857c0.268,6.412-1.213,12.522-3.455,18.393c-2.345,3.272-5.289,6.234-7.648,8.696
		c-8.521,8.894-18.371,16.582-28.175,24c-24.757,18.733-51.512,34.945-78.326,50.54c-32.271,18.771-65.119,36.414-97.19,55.56
		c-18.445,11.013-36.961,21.905-55.87,32.111c-18.5,9.986-37.772,18.295-56.683,27.388c-0.865-0.282-1.858-0.062-2.3,0.989
		c-0.02,0.048-0.035,0.094-0.053,0.141c-0.46,0.225-0.924,0.441-1.384,0.666c-0.933,0.455-0.308,1.729,0.569,1.733
		c-1.441,5.515,0.433,10.198,7.74,10.503c8.116,0.341,18.47-4.62,25.915-7.842c37.69-16.322,71.861-40.415,107.142-61.152
		c38.427-22.585,77.088-44.701,114.789-68.504c18.266-11.533,36.289-23.443,53.965-35.87c6.422-4.515,12.591-9.504,19.52-13.236
		c5.205-2.806,12.514-3.997,19.075-4.483c13.138,2.72,25.422,11.752,35.135,19.881c18.757,15.697,34.697,34.754,50.938,52.944
		c15.849,17.747,32.041,35.949,51.575,49.752c7.576,5.354,15.57,9.57,24.488,12.145c3.936,1.136,8.034,1.614,12.119,1.71
		c0.858,0.018,1.648-0.03,2.395-0.119c0.3,0.231,0.657,0.389,1.032,0.389C370.587,960.532,376.942,952.327,382.172,946.678z
		 M316.329,933.463c-18.859-16.006-34.892-35.196-51.342-53.572c-21.563-24.093-56.521-69.447-93.758-57.717
		c-4.288,0.562-8.524,1.896-13.039,4.711c-15.699,9.792-30.379,21.452-45.797,31.712c-34.29,22.809-69.728,43.855-105.083,64.952
		c-34.955,20.857-69.52,42.421-105.069,62.264c-13.144,7.34-26.504,14.992-40.689,20.158c-4.851,1.768-22.561,7.432-20.539-2.757
		c0.002-0.017,0-0.028,0.001-0.043c19.184-5.636,37.118-14.785,54.836-24.029c21.055-10.98,41.451-23.188,61.836-35.346
		c33.151-19.772,67.198-37.869,100.481-57.39c27.731-16.265,55.122-33.627,80.381-53.571c9.776-7.725,31.559-23.196,31.172-38.362
		c1.663-6.656,1.753-13.753,0.601-21.289c-3.434-22.42-11.68-43.979-21.069-64.5c-9.932-21.72-21.286-42.747-31.094-64.531
		c-7.63-16.944-13.069-33.979-8.644-52.093c4.387-4.5,10.94-6.922,17.518-8.325c8.479-1.807,14.249-6.091,22.133-6.168
		c-0.306,5.076,2.067,11.308,3.121,15.908c2.461,10.765,5.116,21.395,6.264,32.407c2.042,19.6,0.243,39.495,2.033,59.158
		c3.078,33.783,17.973,68.625,12.594,102.763c-0.003,0.024,0.034,0.035,0.04,0.008c6.281-32.567-3.98-64.378-7.871-96.645
		c-2.339-19.407-1.027-39.552-1.314-59.079c-0.138-9.535-2.064-19.023-4.133-28.296c-1.107-4.953-2.341-9.878-3.504-14.82
		c-0.713-3.037-2.489-7.504-2.405-10.931c0.554,0.113,1.111,0.229,1.688,0.387c10.052,2.717,18.367,2.438,27.845,1.118
		c-4.253,16.614,2.076,34.603,0.708,51.564c-1.763,21.852-1.178,44.017-0.205,65.889c0.016,0.408,0.607,0.367,0.624-0.028
		c0.889-20.262-0.475-40.556,0.74-60.828c0.534-8.902,1.814-17.068,1.176-26.035c-0.743-10.427-1.729-21.142,1.519-31.248
		c0,0,0-0.003,0-0.005c0.581-0.095,1.163-0.188,1.756-0.286c14.298-2.373,28.047,0.467,39.603,9.315
		c2.012,1.541,6.329,0.768,8.552,0.586c2.347-0.192,5.804-1.432,6.723,1.308c0.308,0.916,0.678,1.823,1.542,2.323
		c3.047,1.768,8.384,1.117,11.709,1.198c9.604,0.235,15.764,3.305,22.742,9.466c3.592,3.174,7.147,5.574,11.777,6.84
		c2.87,0.785,5.46,1.139,8.266,2.331c3.521,1.496,5.534,7.935,7.877,11.041c0.39,0.518,0.809,1.022,1.25,1.518
		c-11.338,12.512-19.874,25.579-28.91,39.744c-10.239,16.051-21.163,31.621-31.895,47.341
		c-9.126,13.367-16.858,27.551-26.179,40.829c-9.874,14.062-20.849,26.038-33.54,37.533c-0.088,0.082,0.04,0.21,0.135,0.155
		c12.766-7.211,22.522-20.299,31.195-31.77c10.258-13.567,19.308-27.758,30.449-40.651c11.384-13.18,21.689-27.536,31.202-42.109
		c5.127-7.853,9.835-16.021,14.06-24.393c4.335-8.597,10.997-15.806,17.326-22.978c2.382,2.058,4.936,3.984,7.155,5.899
		c5.35,4.623,6.142,11.343,10.033,16.816c0.364,0.511,0.992,0.599,1.499,0.415c1.718,2.717,7.278,3.938,9.835,6.127
		c4.055,3.475,2.68,8.279,0.611,12.414c-4.734,9.458-14.152,16.943-22.022,23.688c-10.015,8.595-19.939,17.183-29.693,26.088
		c-15.073,13.759-31.4,26.928-45.947,41.351c-8.615,6.258-16.992,12.783-25.543,19.182c-11.889,8.897-24.882,17.268-36.135,26.875
		c-0.449,0.385-0.039,1.022,0.496,0.77c11.346-5.378,21.13-14.369,31.099-21.888c11.003-8.305,22.495-15.907,33.807-23.789
		c15.157-10.559,31.307-19.58,45.983-30.795c11.732-8.962,23.431-17.968,35.788-26.063c4.502-2.95,16.44-12.181,24.336-12.58
		c0.256,0.345,0.598,0.633,1.061,0.788c12.555,4.176,18.719,12.728,24.476,24.173c2.914,5.789,5.967,11.144,9.223,16.395
		c-33.734,8.07-64.907,24.681-97.088,37.065c-15.418,5.933-30.968,11.533-47.122,15.043c-14.719,3.195-33.103,10.009-44.968,19.483
		c-0.289,0.229-0.1,0.795,0.298,0.634c15.217-6.143,29.54-13.22,45.295-18.13c15.71-4.897,31.567-9.58,47.069-15.215
		c15.99-5.813,32.227-10.97,48.214-16.9c16.927-6.278,33.582-13.109,51.108-17.554c1.987,3.071,4.044,6.138,6.207,9.266
		c2.728,3.95,5.427,7.492,7.484,11.312c-12.588-0.529-26.365,3.499-38.154,6.772c-17.061,4.733-33.692,10.986-50.596,16.249
		c-17.518,5.453-35.524,9.315-53.121,14.559c-17.857,5.317-35.729,9.32-54.07,12.565c-0.097,0.017-0.061,0.158,0.03,0.161
		c16.641,0.557,32.779-4.604,48.535-9.326c16.942-5.079,33.823-9.111,50.977-13.281c16.216-3.947,31.865-9.954,47.736-15.047
		c8.375-2.687,16.84-5.041,25.429-6.938c4.571-1.01,9.195-1.71,13.837-2.292c2.646-0.333,7.042-1.517,10.269-1.689
		c1.489,3.154,2.509,6.553,2.714,10.561c0.323,6.249-0.08,13.367-1.645,19.368c-1.605,6.159-3.787,11.081-2.811,17.554
		c0.174,1.155,0.822,1.953,1.637,2.424c3.638,8.317,5.932,17.534,6.455,26.615c-5.454-1.26-10.703-2.946-16.425-3.818
		c-8.443-1.287-16.915-2.391-25.383-3.493c-16.033-2.086-32.153-3.777-48.294-4.738c-16.911-1.005-33.866-0.444-50.807-0.502
		c-16.753-0.056-34.048-0.132-50.654,2.249c-0.241,0.034-0.229,0.369,0.016,0.377c15.816,0.424,31.723-0.572,47.555-0.518
		c17.072,0.061,33.929,1.805,50.929,3.052c16.785,1.233,33.54,2.738,50.25,4.759c8.477,1.023,16.921,2.3,25.352,3.633
		c5.581,0.885,11.937,0.739,17.273,1.823c0.112,0.022,0.205,0.001,0.307,0.001c0.123,10.209-3.299,18.505-9.583,25.613
		c-0.147-0.062-0.315-0.061-0.481,0.045c-0.813,0.513-1.424,1.228-1.885,2.076c-0.315-0.326-0.711-0.601-1.218-0.77
		c-23.043-7.739-47.769-7.93-70.95-15.015c-25.493-7.792-52.481-9.101-78.811-12.071c-0.527-0.06-0.707,0.751-0.169,0.814
		c26.587,3.067,52.751,4.474,77.804,14.583c22.699,9.161,47.811,9.429,70.929,17.268c0.422,0.145,0.808,0.184,1.157,0.147
		c-0.239,2.891,0.016,5.971-0.054,8.112c-0.32,9.987,0.957,19.538-1.983,29.312c-3.254,10.814-9.025,21.015-15.84,29.95
		c-3.432,4.5-7.098,8.443-11.973,11.418c-0.875,0.536-1.755,1.029-2.628,1.517C349.418,958.842,330.029,945.092,316.329,933.463z"/>
	<path fill="#DAEEEA" d="M388.95,789.219c0.122-0.051,0.064-0.249-0.062-0.201c-29.509,11.467-62.989,6.375-93.456,13.778
		c-32.181,7.817-62.836,15.858-96.27,13.483c-0.292-0.023-0.304,0.427-0.041,0.494c29.871,7.417,62.926-3.021,91.775-10.554
		C323.431,797.727,357.672,802.547,388.95,789.219z"/>
	<path fill="#DAEEEA" d="M380.453,926.902c-3.136-3.713-7.019-5.691-11.142-8.303c-7.4-4.688-14.618-9.666-21.842-14.617
		c-12.075-8.281-24.111-16.609-36.83-23.887c-21.134-12.089-47.487-14.206-65.544-31.871c-0.018-0.018-0.045,0.013-0.025,0.03
		c15.725,17.107,40.575,20.823,60.032,32.141c13.784,8.017,26.877,17.193,39.96,26.29c5.624,3.912,11.269,7.796,16.957,11.615
		c5.511,3.697,11.071,8.378,17.647,9.745C380.244,928.166,380.896,927.431,380.453,926.902z"/>
	<path fill="#DAEEEA" d="M313.007,670.015c0.088-0.104-0.06-0.23-0.155-0.138c-16.905,16.293-32.146,33.936-47.65,51.559
		c-15.483,17.602-32.033,34.042-48.127,51.046c-0.481,0.507,0.241,1.378,0.804,0.941c17.641-13.584,32.489-30.969,47.167-47.597
		C281.279,707.431,296.97,688.564,313.007,670.015z"/>
	<path fill="#DAEEEA" d="M194.004,772.313c-0.015-0.137-0.222-0.167-0.246-0.022c-0.272,1.533-0.497,2.95-1.141,4.395
		c-0.578,1.303-1.338,2.623-2.094,3.83c-0.195,0.313,0.28,0.598,0.513,0.351C193.131,778.668,194.337,775.378,194.004,772.313z"/>
	<path fill="#DAEEEA" d="M246.135,688.164c7.047-11.098,14.89-21.676,22.084-32.68c6.272-9.594,13.278-20.246,15.44-31.679
		c0.139-0.74-0.9-1.129-1.248-0.441c-5.327,10.53-10.104,20.972-16.475,30.969c-7.064,11.087-14.912,21.656-22.072,32.685
		c-15.804,24.348-29.443,50.37-43.628,75.682c-0.128,0.237,0.236,0.42,0.372,0.189C215.251,737.777,230.555,712.7,246.135,688.164z"
		/>
	<path fill="#DAEEEA" d="M218.525,682.465c0.065-0.226-0.304-0.357-0.392-0.138c-8.918,22.661-22.27,43.59-28.737,67.17
		c-0.129,0.47,0.595,0.617,0.731,0.158C197.091,726.242,211.741,705.899,218.525,682.465z"/>
	<path fill="#DAEEEA" d="M232.935,614.05c0.043-0.589-0.883-0.756-1.104-0.237c-7.292,17.008-7.247,37.234-9.464,55.335
		c-0.013,0.112,0.157,0.152,0.174,0.035C225.472,650.936,231.578,632.499,232.935,614.05z"/>
	<path fill="#DAEEEA" d="M181.462,723.312c0.016-0.206-0.323-0.278-0.395-0.086c-0.685,1.888-0.865,3.789-0.531,5.766
		c0.028,0.179,0.299,0.179,0.291-0.014C180.761,727.051,181.323,725.224,181.462,723.312z"/>
</g>
<g>
	<path fill="#DAEEEA" d="M805.498,222.17c10.399,12.428,23.307,22.44,36.998,30.993c10.688,6.675,24.228,14.293,36.713,16.536
		c8.881,1.598,17.809,2.144,26.818,1.731c4.354-0.199,8.976,1.087,13.368,1.313c5.661,13.372,23.543,20.287,36.511,23.619
		c17.814,4.569,39.271,7.052,56.452-1.337c0.217,0.028,0.421,0.071,0.659,0.072c10.516,0.143,19.383,4.235,29.504,6.211
		c10.466,2.041,21.492,3.532,32.172,3.799c14.76,0.368,27.187-7.197,39.958-13.596c28.956-14.515,87.522-15.642,91.562-58.312
		c0.089-0.949-0.156-1.692-0.599-2.232c1.822-8.88-3.623-20.969-6.494-28.065c-9.357-23.087-22.647-44.755-35.181-66.209
		c-9.479-16.227-17.714-32.868-25.935-49.623c12.061,17.755,24.922,35.09,36.558,52.419c11.793,17.57,22.441,35.878,34.4,53.325
		c8.779,12.816,19.735,28.499,35.098,33.806c5.104,1.763,11.131,1.139,15.598-1.92c3.064-2.098,5.243-4.636,7.219-7.76
		c1.499-2.377,2.502-9.062,4.624-10.312c0.69-0.404,0.943-1.028,0.898-1.611c7.519-1.76,17.732-1.292,24.192-5.555
		c9.87-6.506,17.044-16.627,27.196-22.534c8.518-4.961,14.301-4.152,19.725-13.608c1.867-3.254,2.854-7.146,4.067-10.672
		c2.504-7.259,8.397-11.996,13.932-16.93c6.766-6.036,11.786-11.985,15.299-20.374c3.013-7.191,1.094-25.543,8.797-28.704
		c4.747-1.939,4.505-6.794,4.896-11.417c0.53-6.36-1.286-13.801,3.737-19.12c3.728-3.948,6.686-7.6,9.618-12.287
		c11.101-17.725,15.725-32.878,14.705-54.07c-0.641-13.35-1.118-25.201,3.375-38.006c2.783-7.934,5.231-15.144,5.815-23.572
		c0.954-13.841-5.792-29.054-9.985-41.871c-4.019-12.287-8.527-26.554-23.814-26.462c-1.394,0.006-2.217,1.128-2.181,2.216
		c-15.008-4.648-31.508-3.438-47.716-0.125c-30.938,6.315-61.162,18.501-90.859,28.952c-35.942,12.651-72.065,24.433-109.928,29.722
		c-14.958,2.088-30.328,3.66-45.423,2.361c-9.917-0.85-19.025-4.331-27.615-8.936c-4.571-4.252-8.547-9.363-11.87-13.48
		c-12.005-14.856-21.895-31.526-31.373-48.07c-23.945-41.774-43.617-86.126-62.327-130.447
		c-22.521-53.343-43.196-107.351-66.335-160.458c-13.309-30.544-26.42-61.175-38.397-92.273
		c-11.72-30.426-20.706-61.71-30.971-92.592c0.604-1.275,0.461-2.845-1.069-3.732c-0.069-0.041-0.138-0.074-0.206-0.11
		c-0.254-0.751-0.496-1.51-0.753-2.26c-0.517-1.526-2.597-0.815-2.776,0.533c-8.201-3.304-15.775-1.344-17.684,9.838
		c-2.121,12.418,3.471,29.325,6.961,41.411c17.688,61.198,48.023,118.511,72.979,176.867
		c27.179,63.566,53.587,127.398,82.782,190.081c14.146,30.372,28.92,60.445,44.555,90.085c5.68,10.77,12.143,21.241,16.519,32.637
		c3.291,8.56,3.685,20.038,3.141,30.227c-6.77,19.676-23.085,36.792-37.503,50.137c-27.841,25.764-60.299,46.535-91.479,67.937
		c-30.422,20.885-61.612,42.212-86.694,69.544c-9.729,10.603-17.789,22.07-23.506,35.282c-2.52,5.832-4.065,12.041-5.016,18.309
		c-0.197,1.315-0.277,2.542-0.288,3.707c-0.415,0.416-0.727,0.932-0.801,1.51C786.466,201.617,797.837,213.01,805.498,222.17z
		 M838.795,123.478c28.336-25.859,61.017-46.744,92.525-68.433c41.311-28.43,117.967-73.277,107.254-132.871
		c-0.021-6.709-1.24-13.487-4.68-20.986c-11.973-26.081-27.021-50.96-39.768-76.699c-28.336-57.244-53.736-115.908-79.229-174.451
		c-25.204-57.881-51.57-115.302-75.097-173.898c-8.702-21.666-17.845-43.726-22.997-66.564c-1.765-7.81-6.992-36.172,8.284-31.055
		c0.026,0.007,0.044,0.006,0.065,0.011c4.893,30.622,15.437,60.013,26.169,89.091c12.747,34.553,27.51,68.333,42.197,102.09
		c23.891,54.893,45.027,110.833,68.502,165.88c19.561,45.864,40.877,91.422,66.584,134.209c9.959,16.559,29.472,53.116,52.88,55.508
		c9.912,3.871,20.812,5.409,32.633,5.118c35.166-0.868,69.958-9.311,103.373-19.713c35.372-11.001,69.954-24.328,105.398-35.127
		c27.57-8.402,54.849-13.416,81.842-3.04c6.06,7.635,8.495,18.192,9.357,28.588c1.108,13.401,6.563,23.12,5.131,35.264
		c-7.75-1.47-17.803,0.953-25.088,1.667c-17.045,1.667-33.921,3.66-51.089,3.258c-30.554-0.72-60.806-7.403-91.408-8.525
		c-52.578-1.915-109.113,14.137-160.568-0.86c-0.04-0.008-0.062,0.045-0.021,0.062c48.865,16.075,99.822,6.552,150.229,6.922
		c30.314,0.223,61.047,6.208,91.145,9.613c14.695,1.661,29.673,0.568,44.345-0.789c7.838-0.727,15.655-1.655,23.488-2.471
		c4.813-0.5,12.035-2.354,17.291-1.548c-0.283,0.829-0.569,1.664-0.931,2.522c-6.156,14.926-7.363,27.774-7.2,42.615
		c-24.724-9.814-53.643-3.62-79.466-9.065c-33.27-7.015-67.484-10.479-101.323-13.289c-0.632-0.059-0.684,0.86-0.077,0.962
		c30.994,5.359,62.481,7.258,93.429,13.118c13.591,2.576,25.901,6.153,39.822,6.936c16.187,0.912,32.865,1.504,47.771,8.491
		c0,0,0.006,0,0.008,0c0.031,0.911,0.062,1.826,0.094,2.757c0.836,22.465-6.238,43.057-22.13,59.091
		c-2.764,2.792-2.428,9.583-2.584,13.039c-0.165,3.651,1.059,9.211-3.335,10.086c-1.471,0.294-2.939,0.684-3.879,1.914
		c-3.318,4.34-3.37,12.676-4.147,17.778c-2.255,14.729-8.188,23.599-19.041,33.122c-5.591,4.9-9.984,9.896-12.842,16.771
		c-1.774,4.261-2.828,8.175-5.214,12.257c-2.996,5.122-13.297,6.95-18.537,9.944c-0.872,0.497-1.731,1.043-2.582,1.625
		c-17.014-19.906-35.435-35.612-55.448-52.303c-22.676-18.91-44.478-38.784-66.548-58.388
		c-18.766-16.673-39.064-31.359-57.656-48.316c-19.688-17.957-35.95-37.199-51.135-58.987c-0.111-0.15-0.331,0.019-0.266,0.179
		c8.578,21.058,26.794,38.644,42.732,54.246c18.848,18.452,38.897,35.169,56.54,54.848c18.034,20.107,38.09,38.79,58.636,56.292
		c11.071,9.434,22.713,18.285,34.759,26.433c12.369,8.365,22.147,20.031,31.935,31.18c-3.635,3.261-7.102,6.807-10.485,9.844
		c-8.165,7.321-18.658,7.218-27.846,12.123c-0.855,0.459-1.116,1.409-0.933,2.227c-4.517,2.107-7.491,10.421-11.363,13.924
		c-6.143,5.553-13.263,2.489-19.217-1.506c-13.619-9.145-23.279-25.107-32.104-38.543c-11.251-17.101-22.509-34.057-34.286-50.817
		c-18.201-25.9-35.243-53.608-54.568-78.828c-7.929-14.486-16.317-28.657-24.479-43.071c-11.346-20.043-21.665-41.681-34.227-60.884
		c-0.506-0.766-1.566-0.262-1.283,0.614c6.039,18.511,17.943,35.334,27.548,52.15c10.609,18.562,20.042,37.739,29.94,56.695
		c13.259,25.396,23.955,52.017,38.319,76.803c11.476,19.813,23.026,39.584,33.048,60.189c3.653,7.508,15.502,27.688,14.562,39.916
		c-0.581,0.325-1.092,0.797-1.422,1.476c-8.896,18.491-23.266,26.291-42.006,32.895c-9.479,3.342-18.319,6.983-27.038,10.959
		c-5.772-53.484-25.187-104.713-37.901-156.658c-6.092-24.886-11.646-49.913-13.863-75.456c-2.02-23.271-8.88-52.893-21.12-73.015
		c-0.293-0.488-1.202-0.311-1.032,0.333c6.455,24.62,14.521,48.048,18.972,73.252c4.439,25.134,8.521,50.45,14.139,75.408
		c5.793,25.745,10.527,51.738,16.503,77.498c6.325,27.278,13.556,54.244,16.94,82.084c-5.116,2.451-10.238,5.012-15.476,7.725
		c-6.616,3.416-12.596,6.869-18.877,9.287c3.295-19.262-0.19-41.249-2.904-60.032c-3.923-27.178-10.267-53.994-15.032-81.034
		c-4.942-28.025-7.337-56.487-11.938-84.588c-4.664-28.519-7.303-56.8-8.685-85.657c-0.007-0.151-0.229-0.123-0.254,0.014
		c-4.132,25.492,0.628,51.335,4.792,76.501c4.476,27.065,7.354,53.829,10.394,81.04c2.879,25.724,9.037,50.981,13.746,76.399
		c2.483,13.413,4.439,26.9,5.666,40.485c0.656,7.23,0.821,14.482,0.803,21.739c-0.009,4.134,0.945,11.13,0.575,16.129
		c-5.145,1.672-10.573,2.571-16.779,2.098c-9.678-0.735-20.549-2.757-29.473-6.344c-9.159-3.685-16.301-8.008-26.453-7.782
		c-1.808,0.042-3.164,0.878-4.05,2.04c-13.51,3.959-28.141,5.675-42.215,4.691c3.013-8.143,6.641-15.886,9.109-24.518
		c3.641-12.736,7.008-25.549,10.372-38.362c6.367-24.254,12.144-48.718,16.801-73.363c4.874-25.815,7.351-52.011,10.775-78.06
		c3.385-25.762,6.906-52.353,6.516-78.368c-0.006-0.378-0.524-0.424-0.583-0.051c-3.768,24.249-5.368,48.917-8.57,73.261
		c-3.454,26.252-9.457,51.84-14.722,77.747c-5.202,25.581-10.817,51.058-17.218,76.367c-3.243,12.842-6.868,25.582-10.581,38.288
		c-2.46,8.411-3.488,18.219-6.203,26.212c-0.06,0.17-0.045,0.315-0.067,0.474c-15.728-1.822-27.815-8.721-37.514-19.787
		c0.125-0.214,0.155-0.472,0.027-0.747c-0.63-1.351-1.608-2.432-2.824-3.309c0.563-0.422,1.064-0.978,1.424-1.724
		c16.443-33.924,21.605-71.924,37.067-106.191c17.011-37.684,24.336-78.946,34.093-118.865c0.195-0.798-1.015-1.237-1.221-0.421
		c-9.954,40.297-17.27,80.27-37.756,116.82c-18.563,33.115-23.919,71.694-40.531,105.718c-0.306,0.619-0.44,1.205-0.454,1.748
		c-4.399-0.934-9.19-1.15-12.47-1.68c-15.302-2.456-30.246-2.375-44.704-8.823c-15.994-7.135-30.55-18.021-42.954-30.267
		c-6.248-6.166-11.592-12.582-15.208-20.666c-0.655-1.451-1.238-2.903-1.815-4.343C793.236,169.386,818.207,142.267,838.795,123.478
		z"/>
	<path fill="#DAEEEA" d="M1046.397,263.603c0.055,0.199,0.369,0.147,0.324-0.056c-11.832-47.653,2.595-98.156-2.793-146.485
		c-5.692-51.045-12.026-99.789-1.787-150.755c0.094-0.445-0.597-0.553-0.753-0.16c-17.292,44.492-7.744,97.399-1.836,143.265
		C1046.211,161.135,1032.053,212.86,1046.397,263.603z"/>
	<path fill="#DAEEEA" d="M836.261,223.419c6.327-4.094,10.136-9.679,14.966-15.506c8.668-10.462,17.75-20.585,26.787-30.725
		c15.119-16.944,30.301-33.821,44.001-51.955c22.76-30.132,31.206-70.254,61.938-94.558c0.03-0.023-0.011-0.071-0.041-0.045
		c-29.415,20.822-40.024,58.323-61.267,86.025c-15.049,19.626-31.744,37.964-48.312,56.297
		c-7.127,7.884-14.215,15.803-21.209,23.801c-6.775,7.749-15.068,15.382-18.468,25.23
		C834.357,222.849,835.359,223.998,836.261,223.419z"/>
	<path fill="#DAEEEA" d="M1244.735,170.249c0.142,0.153,0.366-0.05,0.24-0.213c-21.734-29.215-45.874-56.137-69.932-83.459
		c-24.03-27.284-46.062-55.982-69.052-84.09c-0.687-0.84-2.168,0.102-1.607,1.053c17.424,29.812,41.246,56.078,63.935,81.934
		C1193.422,114.069,1219.356,141.921,1244.735,170.249z"/>
	<path fill="#DAEEEA" d="M1110.793-32.972c0.214,0.005,0.299-0.306,0.084-0.37c-2.306-0.724-4.442-1.349-6.536-2.622
		c-1.892-1.145-3.772-2.576-5.479-3.975c-0.443-0.359-0.976,0.314-0.641,0.72C1101.189-35.567,1106.015-33.061,1110.793-32.972z"/>
	<path fill="#DAEEEA" d="M1229.982,63.797c15.686,13.026,30.413,27.176,45.926,40.409c13.524,11.54,28.533,24.416,45.694,29.994
		c1.111,0.36,1.914-1.163,0.924-1.834c-15.15-10.268-30.274-19.674-44.396-31.442c-15.667-13.05-30.381-27.206-45.936-40.392
		c-34.345-29.108-71.692-55.215-107.838-82.022c-0.341-0.241-0.69,0.28-0.363,0.537C1159.739,6.518,1195.305,34.995,1229.982,63.797
		z"/>
	<path fill="#DAEEEA" d="M1244.188,22.447c0.331,0.143,0.608-0.398,0.287-0.577c-33.104-18.18-62.672-42.844-97.675-57.437
		c-0.696-0.29-1.065,0.795-0.387,1.095C1181.062-19.15,1209.471,7.392,1244.188,22.447z"/>
	<path fill="#DAEEEA" d="M1346.599,58.083c0.897,0.183,1.339-1.207,0.584-1.651c-24.729-14.567-55.854-18.479-83.264-25.454
		c-0.171-0.043-0.267,0.209-0.09,0.26C1291.324,39.341,1318.483,52.365,1346.599,58.083z"/>
	<path fill="#DAEEEA" d="M1188.645-42.615c0.315,0.065,0.494-0.443,0.211-0.591c-2.769-1.425-5.658-2.078-8.764-1.954
		c-0.28,0.01-0.334,0.426-0.037,0.452C1183.033-44.432,1185.734-43.206,1188.645-42.615z"/>
</g>
</svg>
