<?xml version="1.0" encoding="utf-8"?>
<!-- Generator: Adobe Illustrator 15.1.0, SVG Export Plug-In . SVG Version: 6.00 Build 0)  -->
<!DOCTYPE svg PUBLIC "-//W3C//DTD SVG 1.1//EN" "http://www.w3.org/Graphics/SVG/1.1/DTD/svg11.dtd">
<svg version="1.1" id="Calque_1" xmlns="http://www.w3.org/2000/svg" xmlns:xlink="http://www.w3.org/1999/xlink" x="0px" y="0px"
	 width="778px" height="154px" viewBox="0 0 778 154" enable-background="new 0 0 778 154" xml:space="preserve">
<g>
	<path fill="#FFFFFF" d="M56.354,17.752c6.741,0,13.25-0.323,19.528-0.968c0.277,0.416,0.427,1.245,0.451,2.49
		c0.023,1.248-0.127,2.126-0.451,2.633c-5.447,0.416-8.403,1.248-8.864,2.493c-0.738,1.846-1.107,6.187-1.107,13.021v51.241
		c0,15.696-3.659,27.953-10.975,36.771c-7.318,8.82-17.324,13.229-30.02,13.229c-1.247,0-2.702-0.277-4.363-0.833
		c-1.662-0.554-2.838-1.108-3.531-1.66c-0.046-0.095-0.185-0.301-0.416-0.626c-0.231-0.322-0.38-0.563-0.45-0.726
		c-0.069-0.161-0.196-0.404-0.379-0.727c-0.186-0.322-0.323-0.601-0.417-0.832c-0.092-0.229-0.184-0.519-0.276-0.865
		c-0.092-0.346-0.162-0.693-0.209-1.038c-0.044-0.346-0.068-0.727-0.068-1.145c0-2.397,0.841-4.546,2.527-6.441
		c1.686-1.891,3.613-2.836,5.784-2.836c2.215,0,4.846,1.523,7.894,4.569c0.092,0.092,0.312,0.325,0.658,0.692
		c0.345,0.37,0.576,0.611,0.692,0.728c0.114,0.114,0.322,0.322,0.624,0.625c0.299,0.298,0.529,0.507,0.692,0.622
		c0.162,0.115,0.38,0.3,0.658,0.553c0.277,0.255,0.496,0.428,0.658,0.522c0.161,0.091,0.369,0.218,0.623,0.38
		c0.252,0.158,0.474,0.275,0.658,0.345c0.183,0.071,0.381,0.128,0.589,0.175c0.207,0.045,0.426,0.066,0.657,0.066
		c1.062,0,2.018-0.241,2.874-0.726c0.854-0.484,1.593-1.294,2.217-2.422c0.623-1.132,1.153-2.311,1.592-3.534
		c0.439-1.223,0.796-2.886,1.074-4.984c0.276-2.102,0.508-4.04,0.693-5.817c0.183-1.779,0.311-4.11,0.38-6.994
		c0.069-2.885,0.115-5.402,0.139-7.549c0.023-2.146,0.035-4.952,0.035-8.412V37.421c0-6.834-0.371-11.175-1.109-13.021
		c-0.461-1.245-3.417-2.077-8.863-2.493c-0.323-0.506-0.475-1.385-0.45-2.633c0.022-1.245,0.173-2.074,0.45-2.49
		C42.827,17.429,49.429,17.752,56.354,17.752z"/>
	<path fill="#FFFFFF" d="M99.566,74.952c0,3.694,0.485,6.97,1.453,9.832c0.97,2.863,2.158,5.102,3.567,6.718
		c1.408,1.617,3.036,2.943,4.882,3.981c1.844,1.04,3.532,1.731,5.055,2.077c1.523,0.349,3,0.52,4.431,0.52
		c6.139,0,11.312-2.308,15.512-6.924c0.46,0.139,0.854,0.474,1.178,1.005c0.322,0.53,0.485,1.024,0.485,1.489
		c0,1.34-0.139,2.214-0.417,2.629c-0.738,1.157-1.8,2.414-3.185,3.774c-1.386,1.363-3.141,2.807-5.263,4.329
		c-2.124,1.522-4.652,2.792-7.583,3.808c-2.933,1.016-5.945,1.524-9.038,1.524c-5.217,0-10.018-1.132-14.403-3.395
		c-4.387-2.262-7.929-5.62-10.631-10.074c-2.699-4.454-4.05-9.613-4.05-15.477c0-5.726,1.442-11.23,4.328-16.517
		c2.884-5.285,6.717-9.556,11.495-12.811c4.778-3.255,9.752-4.881,14.923-4.881c3.462,0,6.613,0.473,9.453,1.418
		c2.839,0.947,5.147,2.159,6.924,3.637c1.777,1.477,3.277,3.161,4.501,5.055c1.222,1.892,2.087,3.738,2.597,5.541
		c0.507,1.799,0.762,3.554,0.762,5.263c0,1.522-0.371,2.861-1.107,4.015c-0.74,1.153-1.619,1.754-2.633,1.8
		C124.495,74.027,113.415,74.583,99.566,74.952z M99.704,69.412c0.599,0.046,3.312-0.068,8.137-0.345
		c4.824-0.277,8.068-0.53,9.729-0.763c1.201-0.091,1.8-0.829,1.8-2.215c0-3.694-0.693-6.925-2.077-9.695
		c-1.384-2.77-3.509-4.155-6.371-4.155c-1.895,0-3.613,0.659-5.16,1.974c-1.547,1.315-2.734,2.944-3.566,4.881
		c-0.831,1.94-1.454,3.81-1.87,5.61C99.912,66.504,99.704,68.073,99.704,69.412z"/>
	<path fill="#FFFFFF" d="M190.074,72.458c0-6-0.417-9.787-1.246-11.357c-0.462-0.876-1.767-1.557-3.913-2.042
		c-2.147-0.485-3.751-0.728-4.813-0.728c-0.231-0.138-0.346-0.888-0.346-2.249c0-1.364,0.162-2.044,0.483-2.044
		c4.803-0.369,9.731-1.293,14.786-2.77c5.056-1.478,9.13-3,12.222-4.571c0.46,0.138,0.97,0.509,1.523,1.107
		c0.554,0.601,0.832,1.016,0.832,1.248c-0.184,0.553-0.44,1.767-0.763,3.636c-0.322,1.868-0.53,3.29-0.623,4.257
		c-0.094,2.032-0.139,4.942-0.139,8.726v27.839c0,2.586,0.415,4.339,1.246,5.263s2.909,1.385,6.233,1.385
		c0.275,0.277,0.415,0.877,0.415,1.8c0,0.924-0.276,1.803-0.832,2.632c-2.354,0.231-5.4,0.751-9.14,1.56
		c-3.739,0.81-7.006,1.557-9.799,2.248c-2.793,0.693-4.421,1.04-4.881,1.04c-0.324,0-0.613-0.312-0.866-0.936
		c-0.254-0.623-0.38-1.42-0.38-2.39v-2.214c0-0.647-0.139-0.878-0.417-0.692c-1.106,0.738-2.413,1.5-3.913,2.284
		c-1.499,0.785-3.739,1.592-6.716,2.425c-2.978,0.831-5.944,1.245-8.899,1.245c-3.231,0-6.036-0.668-8.413-2.008
		c-2.379-1.339-4.224-3.197-5.54-5.574c-1.316-2.378-2.274-4.986-2.874-7.823c-0.6-2.841-0.899-5.968-0.899-9.386V72.458
		c0-6-0.417-9.787-1.247-11.357c-0.462-0.876-1.767-1.557-3.913-2.042c-2.148-0.485-3.751-0.728-4.813-0.728
		c-0.231-0.138-0.346-0.888-0.346-2.249c0-1.364,0.162-2.044,0.484-2.044c4.801-0.369,9.729-1.293,14.785-2.77
		c5.056-1.478,9.129-3,12.222-4.571c0.461,0.138,0.969,0.509,1.523,1.107c0.554,0.601,0.832,1.016,0.832,1.248
		c-0.185,0.553-0.44,1.767-0.763,3.636c-0.322,1.868-0.53,3.29-0.623,4.257c-0.092,2.032-0.139,4.942-0.139,8.726v12.465
		c0,7.805,0.773,13.516,2.32,17.139c1.547,3.625,4.374,5.438,8.483,5.438c1.893,0,3.844-0.589,5.851-1.767
		c2.009-1.178,3.013-2.297,3.013-3.359V72.458z"/>
</g>
<g>
	<path fill="#FFFFFF" d="M450.049,43.231c4.476,0,8.02,0.888,10.629,2.666c2.606,1.776,4.742,4.86,6.403,9.245
		c3.14-3.094,6.936-5.852,11.392-8.274c4.456-2.425,8.23-3.637,11.323-3.637c3.139,0,5.816,0.45,8.033,1.352
		c2.216,0.9,4.025,2.169,5.435,3.807c1.41,1.638,2.506,3.844,3.292,6.615c0.781,2.769,1.324,5.781,1.626,9.036
		c0.3,3.255,0.449,7.212,0.449,11.877v8.999c0,6.835,0.372,11.173,1.109,13.021c0.459,1.244,3.414,2.077,8.863,2.494
		c0.32,0.506,0.475,1.383,0.451,2.627c-0.024,1.25-0.173,2.081-0.451,2.497c-6.323-0.646-12.651-0.971-18.973-0.971
		c-5.219,0-10.989,0.325-17.313,0.971c-0.277-0.416-0.428-1.247-0.449-2.497c-0.025-1.244,0.126-2.121,0.449-2.627
		c4.292-0.325,6.692-1.155,7.202-2.494c0.736-1.848,1.107-6.186,1.107-13.021V73.979c0-13.019-3.093-19.528-9.278-19.528
		c-2.679,0-5.519,0.912-8.519,2.736c-3.003,1.821-4.502,3.451-4.502,4.881v0.83c0.371,5.171,0.555,9.512,0.555,13.021v8.999
		c0,6.835,0.37,11.173,1.107,13.021c0.462,1.244,3.324,2.077,8.587,2.494c0.322,0.506,0.473,1.383,0.449,2.627
		c-0.023,1.25-0.172,2.081-0.449,2.497c-6.325-0.646-12.56-0.971-18.696-0.971c-5.402,0-11.265,0.325-17.589,0.971
		c-0.276-0.416-0.429-1.247-0.451-2.497c-0.023-1.244,0.127-2.121,0.451-2.627c4.478-0.325,6.969-1.155,7.478-2.494
		c0.737-1.848,1.107-6.186,1.107-13.021V73.979c0-13.019-3.092-19.528-9.278-19.528c-2.633,0-5.322,0.924-8.067,2.77
		c-2.746,1.845-4.122,3.508-4.122,4.984v22.714c0,6.835,0.371,11.173,1.109,13.021c0.508,1.29,3.14,2.123,7.896,2.494
		c0.321,0.506,0.473,1.383,0.448,2.627c-0.023,1.25-0.171,2.081-0.448,2.497c-6.326-0.646-12.328-0.971-18.005-0.971
		c-6.326,0-12.649,0.325-18.975,0.971c-0.278-0.416-0.428-1.247-0.451-2.497c-0.022-1.244,0.127-2.121,0.451-2.627
		c5.446-0.417,8.402-1.25,8.864-2.494c0.736-1.848,1.106-6.186,1.106-13.021V68.993c0-6-0.414-9.787-1.246-11.358
		c-0.461-0.876-1.766-1.559-3.913-2.042c-2.145-0.485-3.751-0.729-4.812-0.729c-0.232-0.137-0.347-0.888-0.347-2.249
		c0-1.363,0.162-2.043,0.484-2.043c4.802-0.37,9.729-1.293,14.785-2.771c5.056-1.477,9.129-3.001,12.224-4.57
		c0.459,0.138,0.969,0.507,1.522,1.108c0.554,0.6,0.832,1.015,0.832,1.247c-0.186,0.506-0.486,1.926-0.901,4.259
		c-0.416,2.33-0.578,3.542-0.484,3.633c0,0.463,0.046,0.738,0.138,0.833c0.183,0,0.51-0.231,0.97-0.692
		c2.169-2.447,5.205-4.79,9.106-7.029C443.665,44.352,447.093,43.231,450.049,43.231z"/>
	<path fill="#FFFFFF" d="M553.989,42.817c5.816,0,10.733,1.996,14.749,5.989c4.017,3.993,6.027,9.061,6.027,15.199v25.901
		c0,1.8,0.309,3.197,0.931,4.188c0.625,0.992,1.422,1.489,2.392,1.489c0.462,0,0.924-0.071,1.385-0.207
		c0.461-0.139,0.83-0.253,1.107-0.348c0.277-0.184,0.599-0.368,0.97-0.553l0.555-0.278c0.645,0.323,0.969,1.107,0.969,2.354
		c0,0.785-0.186,1.478-0.553,2.078c-0.971,0.876-2.067,1.787-3.29,2.736c-1.221,0.945-2.92,1.926-5.09,2.942
		c-2.169,1.016-4.134,1.521-5.886,1.521c-2.214,0-4.363-0.713-6.441-2.146c-2.075-1.431-3.437-3.023-4.084-4.776
		c-1.155,1.013-3.508,2.469-7.064,4.362c-3.557,1.892-6.417,2.838-8.585,2.838c-5.082,0-9.373-1.742-12.881-5.23
		c-3.509-3.484-5.266-7.373-5.266-11.664c0-2.589,0.729-4.931,2.182-7.03c1.458-2.101,3.126-3.452,5.021-4.051
		c1.521-0.51,3.853-1.352,6.995-2.529c3.139-1.174,6.612-2.502,10.421-3.982c3.81-1.476,6.544-2.538,8.208-3.185V65.53V61.93
		c0-3.603-0.775-6.81-2.322-9.627c-1.546-2.817-3.496-4.223-5.852-4.223c-1.015,0-1.928,0.22-2.733,0.656
		c-0.808,0.439-1.467,0.971-1.975,1.595c-0.508,0.623-0.981,1.511-1.418,2.665c-0.438,1.156-0.786,2.182-1.039,3.082
		c-0.254,0.903-0.544,2.114-0.868,3.636c-0.878,4.064-3.459,6.096-7.755,6.096c-1.939,0-3.624-0.635-5.056-1.907
		c-1.431-1.27-2.145-2.85-2.145-4.741c0-1.525,0.645-3.417,1.938-5.681c1.754-1.754,5.297-3.97,10.629-6.647
		C543.499,44.156,548.773,42.817,553.989,42.817z M551.078,96.414c1.57,0,2.911-0.358,4.019-1.072
		c1.108-0.717,1.664-1.329,1.664-1.836V74.115c-0.278,0.14-1.594,0.74-3.949,1.804c-2.354,1.061-4.086,1.937-5.191,2.629
		c-3.509,2.264-5.175,5.355-4.989,9.281c0.047,2.724,0.947,4.835,2.702,6.335C547.089,95.662,549.005,96.414,551.078,96.414z"/>
	<path fill="#FFFFFF" d="M617.075,62.204v22.714c0,6.835,0.368,11.173,1.107,13.021c0.508,1.29,3.139,2.123,7.895,2.494
		c0.321,0.506,0.474,1.383,0.451,2.627c-0.023,1.25-0.174,2.081-0.451,2.497c-6.324-0.646-12.327-0.971-18.004-0.971
		c-6.325,0-12.65,0.325-18.975,0.971c-0.276-0.416-0.428-1.247-0.449-2.497c-0.024-1.244,0.126-2.121,0.449-2.627
		c5.446-0.417,8.4-1.25,8.865-2.494c0.735-1.848,1.105-6.186,1.105-13.021V68.993c0-6-0.414-9.787-1.245-11.358
		c-0.464-0.876-1.768-1.559-3.914-2.042c-2.146-0.485-3.75-0.729-4.812-0.729c-0.231-0.137-0.348-0.888-0.348-2.249
		c0-1.363,0.164-2.043,0.488-2.043c4.799-0.37,9.729-1.293,14.78-2.771c5.06-1.477,9.131-3.001,12.226-4.57
		c0.457,0.138,0.97,0.507,1.523,1.108c0.552,0.6,0.832,1.015,0.832,1.247c-0.187,0.553-0.439,1.764-0.764,3.633
		c-0.322,1.871-0.531,3.292-0.622,4.259C617.12,55.511,617.075,58.419,617.075,62.204z M599.624,26.751
		c-1.94-1.94-2.91-4.294-2.91-7.065c0-2.768,0.97-5.123,2.91-7.063c1.939-1.938,4.296-2.907,7.065-2.907
		c2.768,0,5.144,0.97,7.13,2.907c1.985,1.94,2.979,4.295,2.979,7.063c0,2.771-0.994,5.125-2.979,7.065
		c-1.986,1.938-4.362,2.908-7.13,2.908C603.92,29.659,601.563,28.689,599.624,26.751z"/>
	<path fill="#FFFFFF" d="M681.336,43.231c3.144,0,5.819,0.45,8.037,1.352c2.214,0.9,4.023,2.169,5.434,3.807
		c1.408,1.638,2.504,3.844,3.289,6.615c0.783,2.769,1.325,5.781,1.626,9.036s0.45,7.212,0.45,11.877v8.999
		c0,6.835,0.372,11.173,1.11,13.021c0.458,1.244,3.415,2.077,8.863,2.494c0.321,0.506,0.473,1.383,0.45,2.627
		c-0.023,1.25-0.173,2.081-0.45,2.497c-6.325-0.646-12.652-0.971-18.973-0.971c-5.221,0-10.989,0.325-17.313,0.971
		c-0.277-0.416-0.427-1.247-0.451-2.497c-0.024-1.244,0.128-2.121,0.451-2.627c4.293-0.325,6.691-1.155,7.202-2.494
		c0.736-1.848,1.105-6.186,1.105-13.021V73.979c0-13.019-3.091-19.528-9.278-19.528c-2.633,0-5.32,0.924-8.065,2.77
		c-2.747,1.845-4.122,3.508-4.122,4.984v22.714c0,6.835,0.369,11.173,1.11,13.021c0.506,1.29,3.138,2.123,7.893,2.494
		c0.321,0.506,0.472,1.383,0.451,2.627c-0.025,1.25-0.175,2.081-0.451,2.497c-6.325-0.646-12.329-0.971-18.004-0.971
		c-6.326,0-12.651,0.325-18.976,0.971c-0.277-0.416-0.426-1.247-0.448-2.497c-0.023-1.244,0.126-2.121,0.448-2.627
		c5.447-0.417,8.402-1.25,8.865-2.494c0.736-1.848,1.106-6.186,1.106-13.021V68.993c0-6-0.416-9.787-1.245-11.358
		c-0.464-0.876-1.768-1.559-3.914-2.042c-2.146-0.485-3.751-0.729-4.812-0.729c-0.232-0.137-0.347-0.888-0.347-2.249
		c0-1.363,0.163-2.043,0.487-2.043c4.799-0.37,9.729-1.293,14.782-2.771c5.057-1.477,9.13-3.001,12.224-4.57
		c0.415,0,0.91,0.299,1.489,0.9c0.576,0.602,0.865,1.085,0.865,1.455c-0.095,0.323-0.255,1.129-0.487,2.422
		c-0.23,1.293-0.439,2.517-0.622,3.67c-0.184,1.154-0.275,1.754-0.275,1.8c0,0.463,0.044,0.738,0.138,0.833
		c0.185,0,0.509-0.231,0.969-0.692c2.171-2.447,5.206-4.79,9.105-7.029C674.956,44.352,678.383,43.231,681.336,43.231z"/>
	<path fill="#FFFFFF" d="M742.207,42.954c1.939,0,3.748,0.129,5.435,0.381c1.688,0.253,3.662,0.669,5.923,1.248
		c2.262,0.577,3.646,0.91,4.151,1.004c0.603,2.539,1.236,5.735,1.907,9.589c0.668,3.856,1.003,6.336,1.003,7.444
		c0,0.277-0.274,0.509-0.829,0.695c-0.555,0.184-1.11,0.275-1.663,0.275c-0.648,0-1.521-0.369-2.632-1.108
		c-2.074-9.326-6.968-13.988-14.681-13.988c-2.355,0-4.255,0.646-5.713,1.941c-1.453,1.29-2.182,3.139-2.182,5.537
		c0,1.155,0.218,2.229,0.66,3.221c0.437,0.992,0.968,1.825,1.593,2.493c0.623,0.669,1.477,1.352,2.56,2.044
		c1.085,0.693,2.044,1.233,2.875,1.626c0.829,0.393,1.94,0.888,3.324,1.488c1.386,0.602,2.424,1.086,3.116,1.457
		c4.432,2.215,7.409,3.947,8.933,5.192c4.018,3.231,6.025,7.732,6.025,13.503c0,3.325-0.738,6.257-2.216,8.795
		c-1.479,2.538-3.498,4.538-6.062,5.992c-2.562,1.451-5.435,2.538-8.618,3.251c-3.186,0.719-6.651,1.075-10.389,1.075
		c-1.43,0-3.022-0.127-4.78-0.382c-1.754-0.253-3.148-0.495-4.188-0.728c-1.038-0.229-2.457-0.575-4.256-1.036
		c-1.804-0.464-2.795-0.717-2.979-0.764c-0.23-1.385-0.475-4.418-0.729-9.105c-0.253-4.688-0.38-7.651-0.38-8.898
		c0-0.647,0.692-0.971,2.076-0.971c0.556,0,1.154,0.14,1.805,0.417c0.644,0.275,1.061,0.601,1.244,0.968
		c0.46,2.864,1.236,5.32,2.322,7.378c1.08,2.053,2.363,3.599,3.839,4.639c1.479,1.038,2.934,1.788,4.363,2.249
		c1.432,0.464,2.911,0.692,4.433,0.692c2.353,0,4.26-0.739,5.712-2.214c1.456-1.478,2.182-3.23,2.182-5.264
		c0-1.338-0.265-2.527-0.796-3.565c-0.532-1.04-1.34-1.964-2.423-2.771c-1.086-0.807-2.124-1.488-3.117-2.043
		c-0.992-0.553-2.331-1.224-4.016-2.008c-1.687-0.785-2.99-1.431-3.914-1.938c-2.306-1.247-4.234-2.425-5.781-3.533
		c-1.547-1.107-3.045-2.412-4.5-3.914c-1.456-1.498-2.551-3.184-3.288-5.055c-0.739-1.868-1.11-3.936-1.11-6.196
		c0-3.276,0.819-6.199,2.458-8.759c1.639-2.562,3.762-4.573,6.373-6.025c2.606-1.455,5.354-2.538,8.238-3.255
		C736.401,43.312,739.299,42.954,742.207,42.954z"/>
</g>
<path fill="#FFFFFF" d="M280.109,29.217c-0.282,26.526-6.013,63.964,25.717,74.614c7.49,2.516,18.03,1.344,22.45-6.05
	c4.081-6.82,6.144-21.55-1.78-26.708c-6.496-4.23-15.303-0.275-17.625,7.004c-3.465,10.88,4.056,21.754,14.435,25.261
	c30.229,10.206,47.883-16.577,41.032-44.128c-1.029-4.137-7.409-2.384-6.376,1.757c4.373,17.6-1.419,37.889-22.547,38.115
	c-9.774,0.104-25.716-8.138-19.677-20.068c3.786-7.492,8.863-0.077,9.244,4.831c0.303,3.945-0.458,8.117-2.956,11.26
	c-7.961,10.016-24.815-1.826-29.689-9.12c-10.482-15.694-5.8-39.049-5.612-56.768C286.769,24.949,280.154,24.953,280.109,29.217
	L280.109,29.217z"/>
<path fill="#FFFFFF" d="M282.448,73.92c-9.864-8.042-24.675-5.465-27.098,8.214c-2.003,11.324,8.924,19.178,19.023,19.824
	c11.876,0.767,16.625-10.479,14.321-20.534c-2.61-11.382-17.928-16.675-27.529-10.043c-3.484,2.409-0.181,8.144,3.338,5.711
	c5.641-3.893,15.01-1.551,17.422,4.796c2.268,5.969,0.606,12.992-6.543,13.456c-5.079,0.335-10.277-2.607-12.754-6.969
	c-2.25-3.965-0.339-9.5,3.367-11.752c3.57-2.172,8.834-0.42,11.774,1.976C281.045,81.27,285.755,76.621,282.448,73.92L282.448,73.92
	z"/>
</svg>
